{"glyphs":{"0":{"ha":907,"x_min":64,"x_max":844,"o":"m 168 855 q 220 923 168 855 q 453 992 272 992 q 739 855 635 992 q 843 486 843 718 q 739 117 843 254 q 453 -19 635 -19 q 168 117 272 -19 q 64 486 64 254 q 168 855 64 718 m 454 933 q 299 733 339 933 q 279 486 279 633 q 324 152 279 265 q 453 39 368 39 q 583 152 539 39 q 628 486 628 265 q 583 820 628 707 q 454 933 539 933 z "},"1":{"ha":544,"x_min":57,"x_max":488,"o":"m 458 14 l 488 14 l 488 0 l 68 0 l 68 14 l 97 14 q 152 36 129 14 q 175 89 175 58 l 175 804 q 93 889 175 889 l 58 889 l 58 903 q 368 992 274 921 l 382 992 l 382 88 q 404 35 382 57 q 458 14 426 14 z "},"2":{"ha":856,"x_min":63,"x_max":810,"o":"m 407 992 q 570 958 489 992 q 698 861 651 925 q 744 711 744 797 q 700 547 744 638 q 590 401 676 497 q 437 263 538 342 q 329 179 336 185 l 615 179 q 717 210 676 179 q 794 314 758 242 l 808 314 l 726 0 l 63 0 l 63 14 q 134 94 82 36 q 213 183 186 153 q 288 270 240 213 q 363 365 336 328 q 424 456 389 403 q 478 551 460 510 q 522 738 522 651 q 474 879 522 825 q 349 933 426 933 q 196 865 247 933 q 146 676 144 797 l 132 676 l 65 890 q 407 992 178 992 z "},"3":{"ha":782,"x_min":58,"x_max":711,"o":"m 58 890 q 365 989 167 989 q 590 928 506 989 q 675 771 675 868 q 617 614 675 674 q 485 550 560 554 q 638 474 572 533 q 711 286 710 407 q 672 133 711 204 q 421 -54 600 3 q 261 -78 346 -78 q 65 -44 160 -78 l 68 -31 q 82 -31 75 -31 q 279 8 186 -31 q 430 125 372 47 q 488 301 488 203 q 321 519 488 471 q 219 533 274 533 l 222 547 q 229 547 226 547 q 392 611 324 547 q 461 765 461 675 q 414 890 461 850 q 303 931 367 931 q 131 714 131 931 q 131 693 131 704 l 117 693 l 58 890 z "},"4":{"ha":860,"x_min":8,"x_max":817,"o":"m 735 14 l 749 14 l 750 0 l 357 0 l 357 14 l 372 14 q 425 35 403 14 q 449 86 447 56 l 449 294 l 10 294 l 10 308 l 644 992 l 657 992 l 657 414 l 718 414 q 772 424 754 414 q 803 458 789 435 l 817 458 l 778 294 l 657 294 l 657 88 q 681 35 658 57 q 735 14 703 14 m 449 414 l 449 688 l 193 414 l 449 414 z "},"5":{"ha":769,"x_min":35,"x_max":688,"o":"m 350 625 q 554 571 469 625 q 688 321 688 489 q 649 156 688 228 q 556 40 611 85 q 210 -75 408 -75 q 36 -43 107 -75 l 39 -29 q 63 -29 43 -29 q 129 -19 82 -29 q 234 15 176 -10 q 340 74 292 39 q 424 164 389 110 q 463 299 463 226 q 414 421 463 371 q 272 476 361 476 q 86 443 182 476 l 74 450 l 186 922 l 544 951 q 656 1021 619 951 l 669 1021 l 615 789 l 228 760 l 188 604 q 350 625 275 625 z "},"6":{"ha":874,"x_min":68,"x_max":811,"o":"m 454 519 q 358 481 399 519 l 349 492 q 464 585 388 556 q 549 601 508 601 q 623 594 589 601 q 692 564 657 586 q 811 310 811 486 q 718 76 811 171 q 444 -21 621 -21 q 168 88 267 -21 q 69 410 69 197 q 222 857 69 686 q 408 981 297 940 q 647 1021 519 1021 q 690 1019 668 1021 l 696 1010 q 407 835 501 949 q 307 565 326 736 q 300 396 300 494 q 332 132 300 218 q 449 46 364 46 q 538 82 503 46 q 597 289 597 144 q 482 517 597 501 q 454 519 468 519 z "},"7":{"ha":756,"x_min":22,"x_max":728,"o":"m 142 794 q 77 774 101 794 q 38 711 53 754 l 24 711 l 63 969 l 726 969 l 561 564 q 461 288 524 475 q 371 0 399 100 l 190 0 q 343 299 253 118 q 474 575 433 481 l 565 794 l 142 794 z "},"8":{"ha":838,"x_min":53,"x_max":785,"o":"m 161 38 q 83 116 111 67 q 54 229 54 165 q 254 469 54 394 q 110 724 110 575 q 194 918 110 844 q 413 992 281 992 q 634 927 546 992 q 722 757 722 863 q 697 663 722 706 q 540 551 651 582 q 665 481 640 500 q 709 443 689 461 q 740 407 729 425 q 763 367 751 389 q 783 264 783 325 q 680 56 783 131 q 418 -19 576 -19 q 161 38 260 -19 m 403 932 q 378 932 403 932 q 322 893 354 932 q 289 793 289 854 q 332 686 289 732 q 481 582 374 640 q 542 765 542 650 q 482 910 542 868 q 403 932 451 932 m 412 39 q 452 39 412 39 q 540 81 492 39 q 588 189 588 124 q 540 297 588 254 q 413 380 492 339 q 304 438 333 421 q 238 261 238 367 q 282 99 238 156 q 412 39 332 39 z "},"9":{"ha":874,"x_min":64,"x_max":806,"o":"m 419 447 q 517 488 476 447 l 526 475 q 457 406 501 433 q 321 365 393 365 q 160 421 232 365 q 90 513 117 453 q 64 651 64 574 q 158 894 64 803 q 433 988 256 988 q 760 797 672 988 q 806 559 806 699 q 767 307 806 419 q 458 -18 683 64 q 233 -54 357 -54 q 185 -53 210 -54 l 179 -43 q 467 131 372 15 q 567 399 547 229 q 575 567 575 471 q 543 835 575 750 q 426 921 511 921 q 338 885 372 921 q 278 679 278 824 q 394 450 278 464 q 419 447 407 447 z "}," ":{"ha":347,"x_min":0,"x_max":0,"o":""},"!":{"ha":374,"x_min":79,"x_max":294,"o":"m 268 526 l 218 286 l 154 286 l 106 526 l 79 975 l 293 975 l 268 526 m 286 86 q 286 65 286 86 q 256 15 286 44 q 192 -14 226 -14 q 135 0 158 -14 q 85 78 85 29 q 114 158 85 128 q 185 188 143 188 q 256 158 226 188 q 286 86 286 128 z "},"\"":{"ha":503,"x_min":51,"x_max":453,"o":"m 53 701 q 92 874 92 819 q 86 972 92 929 l 235 992 q 235 970 235 986 q 228 917 235 954 q 206 835 222 881 q 153 751 189 790 q 72 694 118 711 l 53 701 m 269 701 q 308 874 308 819 q 303 972 308 929 l 451 992 q 453 970 453 986 q 446 917 453 954 q 422 835 439 881 q 371 751 406 790 q 289 694 336 711 l 269 701 z "},"#":{"ha":797,"x_min":26,"x_max":743,"o":"m 742 624 l 581 624 l 536 368 l 681 368 l 681 301 l 524 301 l 471 0 l 401 0 l 454 301 l 246 301 l 193 0 l 124 0 l 176 301 l 28 301 l 28 368 l 189 368 l 233 624 l 89 624 l 89 690 l 246 690 l 294 972 l 365 972 l 315 690 l 524 690 l 572 972 l 643 972 l 593 690 l 742 690 l 742 624 m 467 368 l 511 624 l 303 624 l 258 368 l 467 368 z "},"$":{"ha":774,"x_min":58,"x_max":729,"o":"m 60 129 q 103 300 60 229 l 114 300 q 114 279 114 290 q 172 122 114 190 q 338 42 229 53 l 364 400 l 215 499 q 111 599 142 540 q 81 719 81 658 q 82 749 81 735 q 169 925 92 860 q 365 990 246 990 q 368 990 367 990 l 410 990 l 417 1094 l 475 1093 l 467 988 q 564 978 518 983 l 651 978 l 650 960 l 633 774 l 619 774 q 546 903 619 860 q 463 931 511 924 l 438 607 l 604 499 q 729 288 729 426 q 685 122 729 189 q 389 -19 597 -11 l 381 -142 l 324 -137 l 332 -19 q 174 7 243 -15 q 69 65 104 29 q 60 129 60 92 m 406 932 q 288 890 335 928 q 242 790 242 851 q 339 671 242 728 l 383 642 l 406 932 m 419 364 l 394 40 q 522 89 475 46 q 568 194 568 132 q 457 339 568 278 l 419 364 z "},"%":{"ha":1028,"x_min":40,"x_max":974,"o":"m 476 900 q 497 815 497 857 q 406 567 497 649 q 228 501 333 501 q 75 568 124 501 q 42 692 42 617 q 135 928 42 844 q 314 992 206 992 q 408 975 367 992 q 483 940 450 958 q 554 919 524 919 q 612 926 585 919 q 658 941 639 932 q 706 965 676 950 q 742 985 735 981 l 788 965 l 269 -22 l 218 0 l 704 919 q 582 879 636 879 q 476 900 528 879 m 183 658 q 240 546 183 546 q 313 599 282 546 q 353 722 343 653 q 364 829 364 792 q 306 947 364 947 q 237 894 267 947 q 195 768 207 840 q 183 658 183 696 m 611 408 q 784 471 682 471 q 935 406 886 471 q 972 274 972 354 q 883 46 972 126 q 705 -19 811 -19 q 551 49 599 -19 q 517 171 517 96 q 611 408 517 324 m 654 138 q 710 25 654 25 q 783 78 751 25 q 824 201 814 131 q 833 308 833 272 q 776 426 833 426 q 707 373 738 426 q 665 247 676 319 q 654 138 654 175 z "},"&":{"ha":1121,"x_min":36,"x_max":1179,"o":"m 1178 0 q 971 -6 1018 -12 q 794 51 860 14 q 522 -14 686 -14 q 146 85 285 -14 q 68 175 99 119 q 38 292 38 231 q 56 397 38 353 q 106 469 74 440 q 242 551 164 525 q 181 736 181 647 q 229 883 181 825 q 517 992 322 992 q 681 966 604 992 q 792 893 757 940 l 742 694 l 729 694 q 685 865 728 797 q 563 933 642 933 q 440 888 483 933 q 396 768 396 842 q 449 625 396 694 q 656 422 503 556 q 843 260 810 288 q 861 376 861 318 q 833 494 861 435 q 750 554 804 554 q 749 554 750 554 l 728 554 l 728 568 l 1053 568 l 1053 554 l 1033 554 q 1032 554 1033 554 q 994 536 1004 554 q 985 482 985 518 l 985 458 q 925 189 985 300 q 1071 71 1014 113 q 1178 15 1128 29 l 1178 0 m 574 44 q 732 94 664 44 q 485 298 618 183 q 294 482 353 413 q 257 346 257 424 q 352 122 257 200 q 574 44 447 44 z "},"'":{"ha":278,"x_min":43,"x_max":228,"o":"m 44 701 q 83 874 83 819 q 78 972 83 929 l 226 992 q 226 970 226 986 q 220 917 226 954 q 197 835 214 881 q 145 751 181 790 q 64 694 110 711 l 44 701 z "},"(":{"ha":588,"x_min":125,"x_max":547,"o":"m 332 467 q 332 361 332 467 q 390 98 332 256 q 544 -126 449 -60 l 536 -139 q 311 -7 406 -99 q 125 467 125 176 q 311 917 125 761 q 539 1017 406 994 l 547 1006 q 388 818 444 957 q 332 467 332 679 z "},")":{"ha":588,"x_min":42,"x_max":464,"o":"m 257 466 q 257 573 257 466 q 200 818 257 679 q 42 1006 143 957 l 50 1017 q 356 833 249 985 q 464 467 464 682 q 276 -7 464 176 q 53 -139 182 -99 l 44 -126 q 194 89 138 -61 q 257 466 257 253 z "},"*":{"ha":539,"x_min":51,"x_max":490,"o":"m 281 840 l 357 800 l 446 711 l 406 658 l 344 638 l 285 747 l 271 833 l 256 747 l 199 636 l 136 658 l 97 710 l 183 800 l 261 840 l 175 828 l 51 849 l 51 914 l 90 968 l 203 913 l 265 851 l 226 931 l 207 1054 l 269 1074 l 333 1054 l 315 931 l 276 851 l 339 913 l 451 969 l 490 915 l 490 850 l 367 828 l 281 840 z "},"+":{"ha":668,"x_min":56,"x_max":614,"o":"m 614 469 l 614 390 l 374 390 l 374 151 l 294 151 l 294 390 l 56 390 l 56 469 l 294 469 l 294 710 l 374 710 l 374 469 l 614 469 z "},",":{"ha":319,"x_min":58,"x_max":268,"o":"m 58 -142 q 122 -57 122 -118 q 92 13 122 -22 q 61 92 61 49 q 87 160 61 135 q 147 186 113 186 q 249 121 221 186 q 268 56 268 82 q 236 -69 268 -21 q 86 -158 178 -158 q 64 -157 75 -158 l 58 -142 z "},"-":{"ha":528,"x_min":43,"x_max":485,"o":"m 44 406 l 56 451 l 472 451 l 483 406 l 472 358 l 56 358 l 44 406 z "},".":{"ha":308,"x_min":53,"x_max":256,"o":"m 226 15 q 211 1 226 15 q 154 -14 196 -14 q 83 15 113 -14 q 54 86 54 44 q 83 158 54 128 q 154 188 113 188 q 226 158 196 188 q 256 86 256 128 q 226 15 256 44 z "},"/":{"ha":592,"x_min":11,"x_max":581,"o":"m 13 15 l 513 999 l 579 967 l 78 -19 l 13 15 z "},":":{"ha":303,"x_min":53,"x_max":256,"o":"m 226 547 q 211 532 226 547 q 154 517 196 517 q 83 547 113 517 q 54 618 54 576 q 83 689 54 660 q 154 718 113 718 q 226 689 196 718 q 256 618 256 660 q 226 547 256 576 m 226 15 q 211 1 226 15 q 154 -14 196 -14 q 83 15 113 -14 q 54 86 54 44 q 83 158 54 128 q 154 188 113 188 q 226 158 196 188 q 256 86 256 128 q 226 15 256 44 z "},";":{"ha":546,"x_min":53,"x_max":268,"o":"m 226 587 q 211 572 226 587 q 154 557 196 557 q 83 587 113 557 q 54 658 54 617 q 83 728 54 699 q 154 758 113 758 q 226 728 196 758 q 256 658 256 699 q 226 587 256 617 m 58 -142 q 122 -57 122 -118 q 92 13 122 -22 q 61 92 61 49 q 87 160 61 135 q 147 186 113 186 q 249 121 221 186 q 268 56 268 82 q 236 -69 268 -21 q 86 -158 178 -158 q 64 -157 75 -158 l 58 -142 z "},"<":{"ha":685,"x_min":56,"x_max":614,"o":"m 614 729 l 614 643 l 167 431 l 614 217 l 614 131 l 56 393 l 56 467 l 614 729 z "},"=":{"ha":668,"x_min":56,"x_max":614,"o":"m 56 497 l 56 576 l 614 576 l 614 497 l 56 497 m 56 254 l 56 333 l 614 333 l 614 254 l 56 254 z "},">":{"ha":668,"x_min":56,"x_max":614,"o":"m 56 729 l 614 468 l 614 393 l 56 131 l 56 217 l 503 431 l 56 643 l 56 729 z "},"?":{"ha":640,"x_min":10,"x_max":589,"o":"m 278 992 q 508 928 426 992 q 589 750 589 864 q 567 654 589 700 q 518 581 544 608 q 443 506 492 553 q 372 434 394 460 q 340 397 349 408 q 321 365 331 386 q 331 282 303 329 l 319 274 q 211 418 211 322 q 269 549 211 483 q 314 601 292 574 q 367 753 367 665 q 329 887 367 840 q 234 933 292 933 q 142 910 176 933 q 72 719 71 861 l 58 719 l 11 868 q 113 958 43 925 q 278 992 183 992 m 389 86 q 389 65 389 86 q 360 15 389 44 q 289 -14 331 -14 q 217 15 247 -14 q 188 79 188 44 q 201 138 188 114 q 289 188 231 188 q 360 158 331 188 q 389 86 389 128 z "},"@":{"ha":1374,"x_min":49,"x_max":1322,"o":"m 125 160 q 50 361 50 233 q 89 549 50 446 q 394 875 178 761 q 750 964 560 964 q 1214 781 1064 964 q 1321 472 1321 651 q 1240 150 1321 293 q 1024 -78 1158 7 q 685 -174 875 -174 q 282 -87 494 -174 l 276 -74 q 564 -136 429 -136 q 881 -49 742 -136 q 1069 153 997 25 q 1157 500 1157 308 q 1093 749 1157 647 q 769 908 992 908 q 421 771 578 908 q 256 542 319 682 q 190 290 190 401 q 201 215 190 247 q 281 156 222 156 q 394 217 338 156 q 485 328 443 268 q 540 404 528 388 l 717 644 q 793 751 782 724 l 803 751 l 896 190 q 951 125 907 125 l 958 125 l 957 115 l 669 115 l 671 125 l 681 125 q 719 142 700 125 q 739 185 739 158 l 728 288 l 524 288 q 396 146 450 189 q 263 101 339 101 q 125 160 186 101 m 700 536 l 554 329 l 724 329 l 700 536 z "},"A":{"ha":994,"x_min":-40,"x_max":1036,"o":"m 1024 14 l 1036 14 l 1036 0 l 593 0 l 593 14 l 606 14 q 651 33 636 14 q 665 68 665 51 q 658 101 665 85 l 590 272 l 265 272 l 193 101 q 186 67 186 83 q 201 33 186 51 q 247 14 217 14 l 258 14 l 258 0 l -39 0 l -39 14 l -26 14 q 38 33 6 14 q 90 92 69 53 l 411 818 q 481 1000 476 956 l 493 1000 l 906 94 q 958 34 926 54 q 1024 14 990 14 m 289 331 l 567 331 l 432 672 l 289 331 z "},"B":{"ha":936,"x_min":57,"x_max":889,"o":"m 497 0 l 58 0 l 58 14 l 76 14 q 153 57 126 14 q 165 100 164 76 l 165 872 q 138 933 164 908 q 76 958 113 958 l 58 958 l 58 972 l 461 972 q 717 914 622 972 q 814 735 813 856 q 788 628 813 674 q 643 529 742 542 q 819 449 750 519 q 889 271 889 379 q 784 70 889 140 q 497 0 679 0 m 592 717 q 414 913 590 913 l 374 913 l 374 64 l 438 64 q 440 64 439 64 q 593 119 536 64 q 650 289 650 175 q 586 458 650 403 q 421 514 522 514 q 421 514 421 514 l 421 526 q 421 526 421 526 q 542 573 493 526 q 592 717 590 619 z "},"C":{"ha":1083,"x_min":61,"x_max":1017,"o":"m 636 -19 q 502 -18 636 -19 q 215 117 368 -18 q 63 486 63 251 q 214 856 63 721 q 629 992 365 992 q 975 917 831 992 l 978 678 l 967 678 q 643 933 896 933 q 384 815 479 933 q 289 490 289 696 q 380 164 289 285 q 626 39 471 43 q 872 119 788 39 q 992 406 958 203 l 1003 406 l 1017 167 q 636 -19 904 -19 z "},"D":{"ha":1150,"x_min":57,"x_max":1096,"o":"m 563 972 q 951 842 808 972 q 1094 486 1094 711 q 951 131 1094 261 q 563 0 808 0 l 58 0 l 58 14 l 76 14 q 138 40 113 14 q 165 101 164 65 l 165 879 q 138 935 165 913 q 76 958 111 958 l 58 958 l 58 972 l 563 972 m 544 60 q 717 111 644 60 q 829 259 790 163 q 868 469 868 356 q 845 663 868 583 q 781 799 822 743 q 544 914 694 914 l 374 914 l 374 60 l 544 60 z "},"E":{"ha":876,"x_min":57,"x_max":842,"o":"m 76 14 q 138 40 113 14 q 165 101 164 65 l 165 875 q 144 928 163 911 q 76 958 111 958 l 58 958 l 58 972 l 590 972 q 703 983 658 972 q 757 997 747 993 l 757 754 l 743 756 l 743 771 q 679 893 743 857 q 607 913 649 911 l 374 913 l 374 508 l 557 508 q 642 544 608 510 q 675 628 675 578 l 675 640 l 689 640 l 689 319 l 675 319 l 675 331 q 642 415 675 382 q 560 450 610 449 l 374 450 l 374 60 l 556 60 q 726 118 657 60 q 828 283 794 176 l 842 283 l 778 0 l 58 0 l 58 14 l 76 14 z "},"F":{"ha":826,"x_min":57,"x_max":757,"o":"m 374 913 l 374 508 l 557 508 q 642 543 608 510 q 675 628 675 576 l 675 640 l 689 640 l 689 319 l 675 319 l 675 331 q 642 415 675 382 q 560 450 610 449 l 374 450 l 374 101 q 400 40 374 65 q 463 14 426 14 l 479 14 l 481 0 l 58 0 l 58 14 l 76 14 q 138 40 113 14 q 165 101 164 65 l 165 875 q 119 947 165 924 q 76 958 100 958 l 58 958 l 58 972 l 590 972 q 685 981 633 972 q 757 997 736 989 l 757 763 l 743 763 l 743 776 q 708 874 743 838 q 611 913 672 911 l 374 913 z "},"G":{"ha":1161,"x_min":61,"x_max":1139,"o":"m 588 -19 q 206 117 350 -19 q 63 487 63 254 q 206 856 63 719 q 596 992 350 992 q 811 970 707 992 q 979 917 915 949 l 982 678 l 969 678 q 846 873 933 813 q 638 933 758 933 q 379 813 469 933 q 289 484 289 693 q 372 157 289 275 q 606 39 454 39 q 789 101 715 39 q 842 176 825 133 l 842 389 q 823 435 842 419 q 769 451 804 451 l 747 451 l 747 465 l 1138 465 l 1138 451 l 1117 451 q 1065 435 1083 451 q 1047 389 1047 419 l 1047 160 q 868 35 993 89 q 588 -19 743 -19 z "},"H":{"ha":1196,"x_min":57,"x_max":1139,"o":"m 735 14 q 790 32 771 14 q 824 100 822 64 l 824 454 l 374 454 l 374 101 q 400 40 374 65 q 463 14 426 14 l 479 14 l 481 0 l 58 0 l 58 14 l 76 14 q 138 40 113 14 q 165 101 164 65 l 165 871 q 138 933 164 907 q 76 958 113 958 l 58 958 l 58 972 l 481 972 l 479 958 l 463 958 q 400 933 426 958 q 374 871 374 907 l 374 514 l 824 514 l 824 871 q 797 933 822 907 q 735 958 771 958 l 717 958 l 717 972 l 1139 972 l 1139 958 l 1121 958 q 1058 933 1085 958 q 1032 871 1032 907 l 1032 101 q 1058 40 1032 65 q 1121 14 1085 14 l 1139 14 l 1139 0 l 717 0 l 717 14 l 735 14 z "},"I":{"ha":536,"x_min":57,"x_max":481,"o":"m 76 14 q 138 40 113 14 q 165 101 164 65 l 165 872 q 138 933 164 908 q 76 958 113 958 l 58 958 l 58 972 l 481 972 l 479 958 l 463 958 q 400 933 426 958 q 374 872 374 908 l 374 101 q 400 40 374 65 q 463 14 426 14 l 479 14 l 481 0 l 58 0 l 58 14 l 76 14 z "},"J":{"ha":533,"x_min":6,"x_max":485,"o":"m 467 958 q 390 915 417 958 q 378 871 378 896 l 378 42 q 325 -135 378 -57 q 196 -246 272 -212 q 43 -279 119 -279 q 7 -278 25 -279 l 7 -265 q 130 -145 90 -231 q 169 46 169 -60 l 169 871 q 125 947 168 922 q 81 958 104 958 l 63 958 l 63 972 l 485 972 l 485 958 l 467 958 z "},"K":{"ha":1051,"x_min":57,"x_max":1081,"o":"m 76 14 q 138 40 113 14 q 165 101 164 65 l 165 872 q 119 947 164 922 q 76 958 100 958 l 58 958 l 58 972 l 481 972 l 479 958 l 463 958 q 386 915 413 958 q 374 872 374 896 l 374 101 q 400 40 374 65 q 463 14 426 14 l 479 14 l 481 0 l 58 0 l 58 14 l 76 14 m 1079 0 l 965 0 q 667 115 754 0 q 418 458 418 453 l 747 894 q 758 919 758 908 q 754 939 758 931 q 715 960 743 960 l 701 960 l 701 972 l 1019 972 l 1019 960 l 1014 960 q 863 893 921 960 l 592 572 l 938 100 q 1079 14 1001 17 l 1079 0 z "},"L":{"ha":856,"x_min":57,"x_max":842,"o":"m 76 14 q 138 40 113 14 q 165 101 164 65 l 165 871 q 138 933 164 907 q 76 958 113 958 l 58 958 l 58 972 l 481 972 l 479 958 l 463 958 q 400 933 426 958 q 374 871 374 907 l 374 60 l 556 60 q 726 118 657 60 q 828 283 794 176 l 842 283 l 778 0 l 58 0 l 58 14 l 76 14 z "},"M":{"ha":1324,"x_min":-12,"x_max":1339,"o":"m 1315 14 l 1338 14 l 1338 0 l 921 0 l 921 13 l 942 13 q 982 32 965 14 q 996 72 999 50 l 942 576 l 681 126 q 628 -28 629 40 l 614 -28 l 257 572 l 203 72 q 217 31 200 50 q 257 13 233 13 l 278 13 l 278 0 l -12 0 l -12 14 l 10 14 q 77 38 49 14 q 111 101 106 61 l 226 992 l 239 992 l 669 283 l 1083 992 l 1096 992 l 1214 101 q 1249 38 1221 61 q 1315 14 1278 14 z "},"N":{"ha":1201,"x_min":40,"x_max":1161,"o":"m 1135 958 q 1061 917 1086 958 q 1049 875 1050 899 l 1049 158 q 1061 1 1049 65 l 1065 -19 l 1053 -19 l 351 649 l 351 97 q 376 38 351 63 q 436 14 401 14 l 463 14 l 463 0 l 42 0 l 42 14 l 67 14 q 128 38 103 14 q 153 99 153 63 l 153 819 q 140 972 153 911 l 138 993 l 150 993 l 851 325 l 851 874 q 825 934 850 910 q 765 958 800 958 l 740 958 l 740 972 l 1161 972 l 1161 958 l 1135 958 z "},"O":{"ha":1219,"x_min":67,"x_max":1161,"o":"m 216 856 q 290 924 216 856 q 615 992 364 992 q 1013 856 865 992 q 1161 486 1161 719 q 1013 117 1161 253 q 615 -19 865 -19 q 216 117 364 -19 q 68 486 68 253 q 216 856 68 719 m 381 159 q 424 99 381 159 q 614 39 467 39 q 847 159 761 39 q 933 486 933 279 q 847 813 933 693 q 614 933 761 933 q 381 813 467 933 q 296 486 296 693 q 381 159 296 279 z "},"P":{"ha":910,"x_min":61,"x_max":872,"o":"m 871 694 q 846 574 871 631 q 671 424 799 464 q 601 411 633 411 q 425 463 503 411 l 425 476 q 593 544 529 474 q 649 704 649 606 q 601 859 649 804 q 471 914 553 914 l 378 914 l 378 101 q 404 40 378 65 q 467 14 431 14 l 485 14 l 485 0 l 63 0 l 63 14 l 81 14 q 142 40 117 14 q 169 101 168 65 l 169 878 q 143 935 169 913 q 81 958 117 958 l 63 958 l 63 972 l 526 972 q 782 900 696 972 q 871 694 871 824 z "},"Q":{"ha":1225,"x_min":65,"x_max":1885,"o":"m 1556 -201 q 1876 -100 1751 -201 l 1885 -106 q 1779 -297 1878 -218 q 1503 -387 1668 -387 q 1147 -294 1339 -387 q 863 -124 1061 -251 q 736 -56 807 -86 q 604 -19 665 -25 q 212 119 357 -17 q 67 487 67 254 q 215 856 67 719 q 613 992 363 992 q 1011 856 864 992 q 1158 486 1158 719 q 1065 177 1158 303 q 806 6 971 51 q 1013 -53 917 -17 q 1233 -136 1110 -89 q 1556 -201 1400 -201 m 293 486 q 332 249 293 350 q 443 93 371 147 q 613 39 515 39 q 846 159 760 39 q 932 486 932 279 q 846 813 932 693 q 613 933 760 933 q 379 813 465 933 q 293 486 293 693 z "},"R":{"ha":1038,"x_min":61,"x_max":1096,"o":"m 442 911 l 382 911 q 378 911 379 911 l 378 101 q 405 40 379 65 q 467 14 431 14 l 485 14 l 485 0 l 63 0 l 63 14 l 81 14 q 157 57 131 14 q 169 100 168 76 l 169 871 q 142 933 168 907 q 81 958 117 958 l 63 958 l 63 972 l 539 972 q 767 914 674 972 q 842 833 814 885 q 869 697 869 781 q 811 535 869 613 q 642 446 753 457 q 783 324 722 419 q 1006 38 933 83 q 1096 14 1042 15 l 1096 0 l 960 0 q 759 32 839 0 q 633 144 679 64 q 518 382 607 190 q 424 475 479 467 l 424 489 l 467 489 q 577 526 529 489 q 642 649 625 564 q 647 694 647 678 q 601 859 647 808 q 483 911 556 910 q 442 911 469 911 z "},"S":{"ha":803,"x_min":68,"x_max":739,"o":"m 69 129 q 113 300 69 229 l 125 300 q 124 278 124 289 q 192 110 124 182 q 381 39 261 39 q 526 83 474 39 q 578 196 578 128 q 552 268 578 236 q 467 339 526 300 l 225 499 q 90 721 90 589 q 93 749 90 735 q 178 925 101 858 q 385 992 256 992 q 574 978 461 992 l 661 978 l 643 774 l 629 774 q 576 890 629 846 q 433 933 522 933 q 276 867 325 933 q 251 803 251 835 q 264 749 251 771 q 349 671 283 713 l 614 499 q 739 285 739 417 q 638 59 739 138 q 371 -19 538 -19 q 197 3 276 -19 q 79 65 117 26 q 69 129 69 92 z "},"T":{"ha":925,"x_min":18,"x_max":908,"o":"m 568 915 l 568 100 q 595 39 569 64 q 657 14 621 14 l 674 14 l 675 0 l 253 0 l 253 14 l 271 14 q 331 39 306 14 q 360 99 357 64 l 360 915 l 172 915 q 71 875 108 914 q 33 774 33 836 l 33 757 l 19 757 l 19 999 q 183 974 76 975 l 743 974 q 837 982 786 974 q 907 999 888 990 l 907 757 l 893 757 l 893 774 q 828 896 893 860 q 754 915 797 914 l 568 915 z "},"U":{"ha":1140,"x_min":51,"x_max":1097,"o":"m 1097 958 l 1074 958 q 1024 940 1044 958 q 1001 893 1003 921 l 1001 351 q 894 81 1001 181 q 601 -19 788 -19 q 265 78 382 -19 q 149 350 149 176 l 149 889 q 111 950 147 931 q 75 958 94 958 l 53 958 l 53 972 l 453 972 l 453 958 l 431 958 q 379 940 400 958 q 357 892 358 921 l 357 361 q 429 128 357 214 q 628 42 501 42 q 828 123 754 42 q 903 343 901 204 l 903 892 q 865 950 900 932 q 829 958 849 958 l 807 958 l 807 972 l 1097 972 l 1097 958 z "},"V":{"ha":1010,"x_min":-39,"x_max":1051,"o":"m 753 972 l 1050 972 l 1050 958 l 1038 958 q 974 939 1006 958 q 921 881 942 919 l 592 154 q 524 -28 528 17 l 511 -28 l 90 879 q 38 938 69 918 q -28 958 6 958 l -39 958 l -39 972 l 403 972 l 403 958 l 392 958 q 347 940 361 958 q 332 904 332 921 q 338 871 332 888 l 574 297 l 818 871 q 825 905 825 889 q 810 940 825 921 q 765 958 796 958 l 753 958 l 753 972 z "},"W":{"ha":1349,"x_min":-47,"x_max":1389,"o":"m 1389 958 l 1376 958 q 1306 938 1342 958 q 1256 878 1271 917 l 1022 129 q 999 -12 999 53 q 999 -25 999 -19 l 985 -25 l 682 646 l 463 129 q 429 -25 431 49 l 415 -25 l 83 878 q 32 938 65 918 q -36 958 -1 958 l -47 958 l -47 972 l 376 972 l 376 958 l 364 958 q 320 940 335 958 q 306 904 306 921 q 311 872 306 888 l 482 389 l 733 994 l 746 993 l 1022 383 l 1161 872 q 1165 904 1165 888 q 1152 940 1165 921 q 1108 958 1139 958 l 1096 958 l 1096 972 l 1389 972 l 1389 958 z "},"X":{"ha":1013,"x_min":-35,"x_max":1051,"o":"m 594 14 q 642 42 624 14 q 650 71 650 57 q 642 99 650 85 l 447 401 l 243 100 q 235 72 235 86 q 243 43 235 57 q 292 14 263 14 l 310 14 l 310 0 l -33 0 l -33 14 l -14 14 q 124 92 64 14 l 397 479 l 140 876 q 79 935 117 911 q 0 958 42 958 l -19 958 l -19 972 l 453 972 l 453 958 l 435 958 q 388 931 406 958 q 379 901 379 915 q 386 874 379 886 l 560 606 l 731 872 q 739 901 739 886 q 729 929 739 915 q 682 958 711 958 l 664 958 l 664 972 l 1006 972 l 1006 958 l 986 958 q 908 935 944 958 q 847 878 872 913 l 611 526 l 890 94 q 952 37 914 60 q 1031 14 990 14 l 1050 14 l 1050 0 l 576 0 l 576 14 l 594 14 z "},"Y":{"ha":975,"x_min":-43,"x_max":1021,"o":"m 1019 958 l 1000 958 q 921 935 958 958 q 861 878 883 911 l 588 442 l 588 101 q 614 40 588 65 q 676 14 640 14 l 693 14 l 694 0 l 272 0 l 272 14 l 290 14 q 352 39 326 14 q 379 100 378 64 l 379 443 l 114 879 q 55 935 93 913 q -24 958 17 958 l -43 958 l -43 972 l 417 972 l 417 958 l 399 958 q 351 931 368 958 q 343 901 343 915 q 350 872 343 886 l 549 511 l 756 872 q 763 901 763 886 q 753 929 763 915 q 706 958 736 958 l 689 958 l 689 972 l 1019 972 l 1019 958 z "},"Z":{"ha":918,"x_min":61,"x_max":881,"o":"m 82 999 q 155 982 103 990 q 228 974 207 974 q 250 974 250 974 l 693 974 q 792 981 751 974 q 839 992 832 988 l 839 979 l 325 58 l 617 58 q 772 118 706 58 q 865 279 838 178 l 879 279 l 829 0 l 63 0 l 63 13 l 572 915 l 236 915 q 113 847 149 914 q 96 774 96 815 l 96 757 l 82 757 l 82 999 z "},"[":{"ha":579,"x_min":167,"x_max":525,"o":"m 167 -125 l 167 1003 l 519 1003 l 519 989 l 375 936 l 375 -58 l 524 -111 l 524 -125 l 167 -125 z "},"\\":{"ha":592,"x_min":11,"x_max":581,"o":"m 13 967 l 79 999 l 579 15 l 514 -19 l 13 967 z "},"]":{"ha":579,"x_min":54,"x_max":414,"o":"m 60 1003 l 413 1003 l 413 -125 l 56 -125 l 56 -111 l 204 -58 l 204 936 l 60 989 l 60 1003 z "},"^":{"ha":767,"x_min":49,"x_max":721,"o":"m 340 524 l 431 524 l 719 244 l 611 244 l 386 457 l 158 244 l 49 244 l 340 524 z "},"_":{"ha":694,"x_min":0,"x_max":694,"o":"m 0 -142 l 0 -83 l 694 -83 l 694 -142 l 0 -142 z "},"`":{"ha":744,"x_min":83,"x_max":379,"o":"m 378 1043 l 368 1033 q 85 1158 229 1067 q 179 1271 111 1238 q 378 1043 319 1144 z "},"a":{"ha":894,"x_min":-37,"x_max":935,"o":"m 924 14 l 935 14 l 935 0 l 526 0 l 526 14 l 538 14 q 578 31 565 14 q 590 61 590 47 q 585 90 590 75 l 531 218 l 236 218 l 181 89 q 175 60 175 75 q 188 30 175 46 q 229 14 201 14 l 240 14 l 240 0 l -37 0 l -37 14 l -26 14 q 32 32 3 14 q 79 86 61 50 l 367 703 q 431 872 428 840 l 443 872 l 815 92 q 863 33 833 51 q 924 14 893 14 m 260 272 l 507 272 l 385 563 l 260 272 z "},"b":{"ha":839,"x_min":49,"x_max":803,"o":"m 736 626 q 714 536 736 575 q 583 454 671 461 q 739 388 676 447 q 801 238 801 329 q 586 13 801 58 q 453 0 525 0 l 50 0 l 50 14 l 65 14 q 119 35 97 14 q 142 88 140 56 l 142 746 q 94 814 140 796 q 65 819 81 819 l 50 819 l 50 833 l 422 833 q 736 626 736 833 m 576 250 q 550 357 576 314 q 382 440 501 440 q 379 440 381 440 l 379 453 q 488 492 446 453 q 529 613 529 531 q 378 779 529 779 l 339 779 l 339 56 l 394 56 q 526 103 475 56 q 576 250 576 150 z "},"c":{"ha":947,"x_min":46,"x_max":897,"o":"m 547 -18 q 181 98 314 -17 q 47 417 47 213 q 180 736 47 621 q 547 851 313 851 q 860 788 731 851 l 860 567 l 850 567 q 743 743 815 690 q 561 796 671 796 q 336 695 414 796 q 258 420 258 594 q 335 143 258 246 q 550 38 414 38 q 713 68 649 38 q 814 166 776 99 q 869 349 851 233 l 879 349 l 896 139 q 765 25 853 68 q 547 -18 676 -18 z "},"d":{"ha":1039,"x_min":44,"x_max":993,"o":"m 865 723 q 928 668 865 723 q 992 417 992 613 q 865 110 992 221 q 515 0 739 0 l 46 0 l 46 14 l 64 14 q 118 36 96 14 q 142 89 140 58 l 142 747 q 117 799 139 778 q 63 819 94 819 l 46 819 l 46 833 l 515 833 q 865 723 739 833 m 499 56 q 705 151 629 56 q 781 417 781 247 q 705 683 781 586 q 499 779 629 779 l 342 779 l 342 56 l 499 56 z "},"e":{"ha":782,"x_min":47,"x_max":756,"o":"m 701 0 l 47 0 l 47 14 l 64 14 q 117 35 96 14 q 140 86 139 56 l 140 747 q 117 799 139 778 q 64 819 96 819 l 47 819 l 47 833 l 536 833 q 618 840 574 833 q 681 854 663 847 l 681 633 l 667 633 l 667 646 q 633 742 667 707 q 540 778 600 776 l 340 778 l 340 440 l 499 440 q 575 472 546 442 q 604 550 604 503 l 604 560 l 618 560 l 618 265 l 604 265 l 604 275 q 556 369 604 340 q 500 385 531 385 l 340 385 l 340 56 l 507 56 q 653 109 593 57 q 742 256 714 161 l 754 256 l 701 0 z "},"f":{"ha":742,"x_min":47,"x_max":683,"o":"m 668 632 l 668 646 q 635 741 668 706 q 540 778 601 776 l 340 778 l 340 440 l 500 440 q 593 494 565 442 q 606 550 606 519 l 606 560 l 621 560 l 621 265 l 606 265 l 606 275 q 557 369 606 340 q 501 385 533 385 l 340 385 l 340 88 q 363 35 342 56 q 417 14 385 14 l 433 14 l 433 0 l 47 0 l 47 14 l 64 14 q 117 35 96 14 q 140 86 139 56 l 140 747 q 118 799 140 778 q 64 819 96 819 l 47 819 l 47 833 l 538 833 q 683 854 631 833 l 683 632 l 668 632 z "},"g":{"ha":1014,"x_min":47,"x_max":1001,"o":"m 172 99 q 109 157 172 99 q 47 418 47 215 q 172 736 47 621 q 514 851 296 851 q 706 834 611 851 q 858 788 800 817 l 858 567 l 847 567 q 556 796 786 796 q 335 695 411 796 q 260 415 260 594 q 328 136 260 235 q 524 38 397 38 q 649 70 593 38 q 722 164 704 103 l 724 331 q 708 372 724 357 q 663 386 692 386 l 643 386 l 643 397 l 1000 397 l 1000 386 l 983 386 q 922 331 922 386 l 922 144 q 758 32 874 82 q 506 -18 643 -18 q 172 99 296 -17 z "},"h":{"ha":1042,"x_min":47,"x_max":997,"o":"m 981 14 l 996 14 l 996 0 l 614 0 l 614 14 l 628 14 q 682 35 660 14 q 704 88 704 56 l 704 388 l 339 388 l 339 88 q 363 35 340 56 q 415 14 385 14 l 431 14 l 431 0 l 47 0 l 47 14 l 63 14 q 117 35 94 14 q 139 88 139 57 l 139 746 q 117 798 139 776 q 63 819 94 819 l 47 819 l 47 833 l 431 833 l 431 819 l 415 819 q 363 799 385 819 q 339 747 340 778 l 339 443 l 704 443 l 704 746 q 667 810 704 789 q 628 819 649 819 l 614 819 l 614 833 l 996 833 l 996 819 l 981 819 q 928 799 950 819 q 904 746 906 778 l 904 86 q 942 24 906 43 q 981 14 960 14 z "},"i":{"ha":489,"x_min":47,"x_max":443,"o":"m 47 14 l 64 14 q 121 35 97 14 q 144 88 144 57 l 144 746 q 121 798 144 776 q 64 819 97 819 l 47 819 l 47 833 l 442 833 l 442 819 l 425 819 q 369 799 393 819 q 344 747 346 778 l 344 88 q 369 35 346 56 q 425 14 393 14 l 442 14 l 442 0 l 47 0 l 47 14 z "},"j":{"ha":472,"x_min":-4,"x_max":438,"o":"m 421 819 q 365 798 389 819 q 340 744 342 776 l 340 43 q 291 -115 340 -46 q 171 -214 242 -185 q 32 -243 100 -243 q -4 -242 14 -243 l -4 -229 q 106 -122 71 -197 q 140 46 140 -47 l 140 746 q 115 798 139 776 q 58 819 92 819 l 43 819 l 43 833 l 438 833 l 438 819 l 421 819 z "},"k":{"ha":935,"x_min":47,"x_max":967,"o":"m 50 0 l 50 14 l 64 14 q 131 50 108 14 q 142 88 140 67 l 142 746 q 103 810 140 789 q 64 819 85 819 l 49 819 l 49 833 l 433 833 l 433 819 l 418 819 q 365 799 388 819 q 340 747 342 778 l 340 88 q 364 35 342 57 q 418 14 386 14 l 432 14 l 433 0 l 50 0 m 965 0 l 858 0 q 583 107 665 0 q 522 192 576 118 q 382 389 382 388 l 667 767 q 672 803 682 786 q 639 821 663 821 l 626 821 l 626 833 l 910 833 l 910 821 l 904 821 q 779 771 829 821 l 549 499 l 840 93 q 965 13 896 14 l 965 0 z "},"l":{"ha":761,"x_min":47,"x_max":756,"o":"m 47 0 l 47 14 l 64 14 q 117 35 96 14 q 139 86 139 56 l 139 746 q 117 798 139 776 q 64 819 94 819 l 47 819 l 47 833 l 433 833 l 433 819 l 417 819 q 363 799 385 819 q 340 746 340 778 l 340 56 l 507 56 q 653 109 593 57 q 740 256 713 161 l 756 256 l 701 0 l 47 0 z "},"m":{"ha":1199,"x_min":-11,"x_max":1213,"o":"m 1192 14 l 1211 14 l 1211 0 l 825 0 l 825 14 l 844 14 q 883 32 871 14 q 892 69 894 50 l 838 467 l 617 115 q 567 -26 567 36 l 554 -26 l 233 460 l 186 69 q 196 32 183 50 q 233 14 208 14 l 253 14 l 253 0 l -11 0 l -11 14 l 8 14 q 69 34 43 14 q 99 89 94 54 l 207 851 l 218 851 l 611 264 l 979 851 l 992 851 l 1103 82 q 1135 32 1110 50 q 1192 14 1160 14 z "},"n":{"ha":1082,"x_min":29,"x_max":1054,"o":"m 664 833 l 1054 833 l 1054 819 l 1031 819 q 977 800 999 819 q 954 750 956 781 l 954 143 q 965 1 954 57 l 968 -18 l 956 -18 l 318 544 l 318 85 q 341 34 319 54 q 394 14 363 14 l 418 14 l 418 0 l 29 0 l 29 14 l 51 14 q 106 34 83 14 q 128 85 128 54 l 128 696 q 117 833 128 779 l 114 853 l 126 851 l 763 292 l 763 749 q 741 799 763 779 q 688 819 719 819 l 664 819 l 664 833 z "},"o":{"ha":1079,"x_min":47,"x_max":1032,"o":"m 49 417 q 49 517 49 417 q 183 734 49 617 q 540 851 317 851 q 897 734 763 851 q 1032 417 1032 617 q 897 99 1032 217 q 540 -18 763 -18 q 183 99 318 -18 q 49 417 49 217 m 261 417 q 261 329 261 417 q 337 140 261 242 q 540 38 413 38 q 742 140 667 38 q 818 417 818 242 q 742 694 818 592 q 540 796 667 796 q 337 694 413 796 q 261 417 261 592 z "},"p":{"ha":813,"x_min":47,"x_max":782,"o":"m 749 460 q 531 339 679 339 q 385 388 457 339 l 385 399 q 563 540 524 399 q 571 592 571 572 q 525 733 571 688 q 403 779 479 779 l 340 779 l 340 88 q 378 24 342 43 q 415 14 394 14 l 432 14 l 432 0 l 49 0 l 49 14 l 65 14 q 117 35 96 14 q 139 86 139 56 l 139 746 q 117 799 139 778 q 64 819 96 819 l 47 819 l 47 833 l 458 833 q 697 769 618 833 q 782 590 782 704 q 749 460 782 518 z "},"q":{"ha":1064,"x_min":47,"x_max":1617,"o":"m 1067 -110 q 1360 -167 1215 -167 q 1610 -83 1506 -167 l 1617 -87 q 1528 -265 1613 -193 q 1292 -343 1435 -343 q 981 -260 1150 -343 q 826 -163 918 -226 q 666 -62 735 -100 q 532 -18 597 -24 l 528 -18 q 179 99 310 -18 q 49 417 49 217 q 179 734 49 617 q 527 851 310 851 q 876 734 744 851 q 1007 417 1007 617 q 867 90 1007 208 q 706 7 799 35 q 883 -42 803 -12 q 1067 -110 963 -71 m 263 417 q 334 140 263 242 q 528 38 406 38 q 722 139 650 38 q 793 416 793 240 q 722 694 793 592 q 528 796 650 796 q 387 751 447 796 q 294 619 326 706 q 263 417 263 532 z "},"r":{"ha":913,"x_min":57,"x_max":972,"o":"m 393 776 l 349 776 l 349 88 q 372 34 349 54 q 424 14 394 14 l 439 14 l 439 0 l 57 0 l 57 14 l 74 14 q 126 35 104 14 q 147 86 147 56 l 147 747 q 126 799 147 778 q 75 819 104 819 l 57 819 l 57 833 l 483 833 q 693 785 608 833 q 788 606 788 731 q 739 460 788 525 q 594 382 690 396 q 669 335 632 369 q 728 264 706 300 q 821 119 772 185 q 899 33 869 53 q 972 14 929 14 l 972 0 l 856 0 q 678 28 740 0 q 568 133 617 56 q 475 322 493 253 q 435 385 458 364 q 392 408 413 406 l 392 419 l 426 419 q 571 558 544 421 q 576 594 576 579 q 575 637 576 610 q 558 698 574 664 q 517 747 542 732 q 428 775 474 774 q 393 776 413 776 z "},"s":{"ha":714,"x_min":63,"x_max":657,"o":"m 64 114 q 104 268 64 204 l 115 268 q 114 250 114 258 q 174 101 114 165 q 343 38 235 38 q 463 74 421 38 q 506 154 506 110 q 481 226 506 199 q 401 289 457 253 l 204 414 q 79 614 79 492 q 81 640 79 626 q 157 795 89 739 q 317 851 225 851 q 513 839 410 851 l 588 839 l 568 656 l 556 656 q 510 758 556 721 q 391 796 465 796 q 274 765 317 796 q 231 682 231 733 q 272 610 231 640 q 321 578 289 597 l 542 442 q 656 250 656 372 q 565 51 656 121 q 329 -18 474 -18 q 172 3 240 -18 q 72 56 104 24 q 64 114 64 81 z "},"t":{"ha":832,"x_min":14,"x_max":819,"o":"m 804 636 l 804 649 q 771 743 804 708 q 678 779 738 778 l 517 779 l 517 86 q 540 35 518 56 q 593 14 563 14 l 608 14 l 608 0 l 225 0 l 225 14 l 239 14 q 293 35 271 14 q 315 88 315 56 l 315 779 l 156 779 q 61 743 94 778 q 28 649 28 708 l 28 636 l 14 636 l 14 856 q 78 842 33 849 q 160 835 124 835 l 672 835 q 773 844 733 835 q 818 856 813 853 l 818 636 l 804 636 z "},"u":{"ha":978,"x_min":38,"x_max":951,"o":"m 951 819 l 932 819 q 888 803 906 819 q 868 763 869 788 l 868 303 q 776 67 868 153 q 503 -18 685 -18 q 222 65 322 -18 q 121 300 121 149 l 121 761 q 102 803 121 786 q 57 819 83 819 l 38 819 l 38 833 l 403 833 l 403 819 l 383 819 q 339 803 357 819 q 321 761 321 786 l 321 310 q 380 110 321 182 q 546 38 439 38 q 715 106 653 38 q 776 294 776 174 l 776 761 q 757 803 775 788 q 713 819 739 819 l 694 819 l 694 833 l 951 833 l 951 819 z "},"v":{"ha":883,"x_min":-39,"x_max":924,"o":"m 924 819 l 913 819 q 854 802 883 819 q 807 749 825 785 l 524 151 q 460 -18 463 18 l 447 -18 l 78 746 q -28 819 40 819 l -37 819 l -37 833 l 369 833 l 369 821 l 358 821 q 319 803 332 821 q 306 772 306 786 q 311 742 306 757 l 506 290 l 704 742 q 711 772 711 758 q 698 803 711 786 q 658 821 685 821 l 647 821 l 647 833 l 924 833 l 924 819 z "},"w":{"ha":1207,"x_min":-32,"x_max":1239,"o":"m 1238 819 l 1228 819 q 1167 803 1196 819 q 1124 754 1138 786 l 918 125 q 896 -1 896 58 q 896 -15 896 -8 l 883 -15 l 613 532 l 425 125 q 393 -15 393 51 l 381 -15 l 85 749 q 41 801 69 783 q -21 819 13 819 l -32 819 l -32 833 l 358 833 l 358 819 l 347 819 q 308 803 321 819 q 296 774 296 788 q 301 743 296 760 l 446 365 l 665 853 l 676 853 l 919 363 l 1032 743 q 1010 815 1046 799 q 988 819 1000 819 l 976 819 l 976 833 l 1238 833 l 1238 819 z "},"x":{"ha":903,"x_min":-26,"x_max":931,"o":"m 931 0 l 500 0 l 500 14 l 515 14 q 553 32 542 14 q 565 62 565 50 q 558 85 565 74 l 400 329 l 222 85 q 214 60 214 72 q 226 31 214 49 q 264 14 238 14 l 279 14 l 279 0 l -26 0 l -26 14 l -10 14 q 108 75 57 14 l 356 400 l 125 758 q 72 803 104 786 q 6 821 40 821 l -11 821 l -11 835 l 417 835 l 417 821 l 401 821 q 363 803 375 821 q 351 773 351 785 q 358 750 351 761 l 506 522 l 654 750 q 661 773 661 761 q 650 803 661 785 q 613 821 639 821 l 597 821 l 597 835 l 901 835 l 901 821 l 883 821 q 817 803 849 821 q 765 758 786 786 l 553 450 l 793 78 q 856 26 821 39 q 914 14 890 14 l 931 14 l 931 0 z "},"y":{"ha":882,"x_min":-44,"x_max":929,"o":"m 929 819 l 911 819 q 842 800 875 819 q 789 751 810 781 l 542 371 l 542 88 q 565 35 543 57 q 621 14 588 14 l 636 14 l 636 0 l 247 0 l 247 14 l 264 14 q 318 35 296 14 q 342 88 340 57 l 342 371 l 96 751 q 44 801 76 782 q -26 819 11 819 l -43 819 l -43 833 l 379 833 l 379 819 l 364 819 q 326 802 338 819 q 314 773 314 785 q 319 751 314 761 l 504 432 l 692 751 q 696 773 696 761 q 684 802 696 785 q 646 819 672 819 l 632 819 l 632 833 l 929 833 l 929 819 z "},"z":{"ha":842,"x_min":47,"x_max":824,"o":"m 49 0 l 49 11 l 506 779 l 208 779 q 115 743 149 778 q 82 647 82 708 l 82 636 l 68 636 l 68 856 q 133 842 85 849 q 219 835 181 835 l 628 835 q 713 840 668 835 q 771 851 758 846 l 771 840 l 319 54 l 560 54 q 808 256 744 57 l 824 256 l 763 0 l 49 0 z "},"{":{"ha":526,"x_min":118,"x_max":490,"o":"m 183 472 q 186 493 186 479 q 171 596 186 511 q 156 721 156 681 q 238 935 156 851 q 488 1018 321 1018 l 489 1007 q 401 953 425 990 q 380 914 388 932 q 369 863 372 896 q 364 776 364 817 q 348 567 364 628 q 303 481 332 507 q 221 439 275 456 q 331 355 299 418 q 364 154 364 292 q 363 104 364 136 q 363 56 363 72 q 365 13 363 39 q 370 -27 367 -12 q 381 -60 374 -42 q 401 -90 389 -79 q 472 -128 429 -117 l 469 -139 q 172 43 232 -139 q 156 146 156 94 q 169 286 156 213 q 182 375 182 360 q 179 406 182 390 q 118 436 168 432 l 118 450 q 183 472 172 451 z "},"|":{"ha":357,"x_min":139,"x_max":219,"o":"m 139 -250 l 139 972 l 218 972 l 218 -250 l 139 -250 z "},"}":{"ha":526,"x_min":38,"x_max":411,"o":"m 372 721 q 363 625 372 681 q 342 495 342 511 q 344 472 342 479 q 410 450 356 451 l 410 436 q 349 406 360 432 q 346 375 346 390 q 350 338 346 360 q 372 153 372 213 q 356 43 372 94 q 303 -50 339 -8 q 58 -139 228 -139 l 56 -128 q 147 -60 126 -110 q 165 56 165 -15 q 165 104 165 72 q 164 154 164 136 q 197 355 164 292 q 307 439 229 418 q 224 482 253 456 q 164 744 164 536 q 152 906 164 879 q 126 953 140 932 q 39 1007 103 990 l 42 1018 q 290 935 207 1018 q 372 721 372 851 z "},"~":{"ha":685,"x_min":42,"x_max":646,"o":"m 644 435 q 613 343 644 379 q 481 289 561 289 q 329 356 417 289 q 195 426 238 426 q 135 396 153 426 q 122 350 122 376 q 128 296 122 324 l 49 296 q 43 351 43 325 q 74 449 43 410 q 197 506 121 506 q 350 438 261 506 q 485 368 443 368 q 553 403 528 368 q 567 445 567 421 q 554 499 567 469 l 636 499 q 644 435 644 464 z "},"¡":{"ha":374,"x_min":81,"x_max":294,"o":"m 118 959 q 133 974 118 959 q 189 989 147 989 q 260 959 231 989 q 289 888 289 929 q 260 817 289 846 q 189 788 231 788 q 118 817 147 788 q 89 888 89 846 q 118 959 89 929 m 106 449 l 156 686 l 221 686 l 269 449 l 294 0 l 81 0 l 106 449 z "},"¢":{"ha":815,"x_min":39,"x_max":772,"o":"m 428 108 q 144 221 247 122 q 40 490 40 319 q 159 758 40 660 q 488 857 278 857 l 497 974 l 554 972 l 544 854 q 742 803 663 843 l 742 613 l 732 613 q 540 801 688 781 l 488 160 q 667 220 608 161 q 749 422 726 279 l 757 422 l 772 242 q 663 144 736 181 q 483 107 590 107 l 474 -12 l 418 -8 l 428 108 m 432 164 l 483 804 q 299 719 361 801 q 238 492 238 636 q 288 266 238 349 q 432 164 338 183 z "},"£":{"ha":838,"x_min":53,"x_max":819,"o":"m 206 92 q 271 103 238 103 q 324 100 304 103 q 388 92 344 97 q 502 82 460 82 q 597 94 544 82 q 709 152 650 107 q 804 272 768 197 l 818 272 l 756 33 q 508 -14 651 -14 q 347 10 451 -14 q 214 35 243 35 q 170 33 185 35 q 118 17 156 32 q 71 -8 81 3 l 57 -8 l 57 6 q 142 178 104 67 q 182 449 179 289 l 53 449 l 74 515 l 181 515 q 181 550 181 533 q 524 992 181 968 q 569 993 540 993 q 640 985 597 993 q 772 913 729 967 l 717 743 l 703 743 q 703 753 703 747 q 565 933 703 933 q 410 814 444 933 q 389 654 389 739 q 393 515 389 569 l 644 515 l 621 449 l 394 449 q 336 192 392 269 q 279 131 308 153 q 206 92 250 110 z "},"¤":{"ha":751,"x_min":69,"x_max":683,"o":"m 569 268 q 375 193 486 193 q 181 265 264 193 l 99 183 l 69 214 l 151 294 q 78 490 78 378 q 153 685 78 601 l 69 768 l 99 797 l 182 714 q 375 785 265 785 q 568 713 485 785 l 653 797 l 683 768 l 597 683 q 669 490 669 600 q 599 297 669 379 l 683 214 l 653 183 l 569 268 m 194 309 q 232 272 194 309 q 374 235 269 235 q 553 309 479 235 q 628 489 628 383 q 553 669 628 594 q 374 743 479 743 q 194 669 269 743 q 119 489 119 594 q 194 309 119 383 z "},"¥":{"ha":975,"x_min":-43,"x_max":1021,"o":"m 1019 958 l 1000 958 q 896 917 944 958 q 861 878 875 900 l 676 585 l 825 585 l 825 526 l 640 526 l 588 442 l 588 426 l 825 426 l 825 368 l 588 368 l 588 101 q 632 25 588 50 q 676 14 653 14 l 693 14 l 694 0 l 272 0 l 272 14 l 290 14 q 352 40 326 14 q 379 101 378 65 l 379 368 l 139 368 l 139 426 l 379 426 l 379 443 l 328 526 l 139 526 l 139 585 l 293 585 l 114 879 q 55 935 93 913 q -24 958 17 958 l -43 958 l -43 972 l 417 972 l 417 958 l 399 958 q 351 931 368 958 q 343 901 343 915 q 350 872 343 886 l 549 511 l 756 872 q 763 901 763 886 q 753 929 763 915 q 706 958 736 958 l 689 958 l 689 972 l 1019 972 l 1019 958 z "},"¦":{"ha":357,"x_min":139,"x_max":219,"o":"m 139 486 l 139 972 l 218 972 l 218 486 l 139 486 m 139 -250 l 139 236 l 218 236 l 218 -250 l 139 -250 z "},"§":{"ha":731,"x_min":57,"x_max":676,"o":"m 114 786 q 465 990 239 990 q 585 960 535 990 q 640 879 640 924 q 621 832 640 856 q 577 806 601 806 q 531 821 553 806 q 483 857 510 836 q 432 897 457 878 q 375 919 403 919 q 325 904 347 919 q 296 860 296 882 q 306 814 296 838 q 329 767 315 790 q 378 703 343 743 q 466 605 426 647 q 508 560 506 563 q 626 385 583 478 q 675 175 675 276 q 589 -85 675 21 q 472 -178 542 -142 q 293 -218 393 -218 q 110 -149 169 -218 q 92 -104 92 -128 q 110 -56 92 -81 q 154 -26 129 -26 q 202 -42 179 -26 q 254 -78 225 -57 q 310 -119 283 -100 q 370 -143 342 -143 q 419 -126 399 -143 q 450 -76 450 -106 q 372 64 450 -25 q 235 208 318 126 q 61 517 79 361 q 58 581 58 544 q 114 786 58 696 m 199 810 q 160 672 160 729 q 176 567 160 615 q 327 355 208 469 q 492 162 446 240 q 539 17 539 83 q 535 -26 539 -4 q 572 99 572 43 q 554 207 572 156 q 396 433 518 308 q 236 626 274 557 q 199 792 199 694 q 199 810 199 800 z "},"¨":{"ha":833,"x_min":143,"x_max":636,"o":"m 287 967 q 275 955 287 967 q 228 943 263 943 q 169 967 193 943 q 144 1026 144 992 q 169 1085 144 1061 q 228 1110 193 1110 q 287 1085 263 1110 q 311 1026 311 1061 q 287 967 311 992 m 610 967 q 598 955 610 967 q 551 943 586 943 q 492 967 517 943 q 468 1026 468 992 q 492 1085 468 1061 q 551 1110 517 1110 q 610 1085 586 1110 q 635 1026 635 1061 q 610 967 635 992 z "},"©":{"ha":1178,"x_min":83,"x_max":1094,"o":"m 231 844 q 305 918 231 844 q 589 992 379 992 q 947 844 799 992 q 1094 486 1094 696 q 947 128 1094 276 q 589 -19 799 -19 q 231 128 379 -19 q 83 486 83 276 q 231 844 83 696 m 810 869 q 759 898 810 869 q 589 928 708 928 q 367 869 469 928 q 206 708 265 810 q 147 486 147 606 q 206 265 147 367 q 367 103 265 163 q 589 44 469 44 q 810 103 708 44 q 972 265 913 163 q 1031 486 1031 367 q 972 708 1031 606 q 810 869 913 810 m 600 176 q 360 266 456 178 q 265 487 265 354 q 361 708 265 619 q 603 796 457 796 q 729 780 664 796 q 842 736 794 764 l 844 581 l 836 581 q 749 703 807 660 q 606 747 692 747 q 469 676 521 747 q 417 487 417 604 q 469 298 417 369 q 616 226 522 226 q 774 282 710 226 q 850 447 838 338 l 858 447 l 875 304 q 758 210 829 243 q 600 176 688 176 z "},"ª":{"ha":529,"x_min":-4,"x_max":535,"o":"m 528 531 l 535 531 l 535 524 l 294 524 l 294 531 l 300 531 q 325 542 315 531 q 328 571 335 553 l 300 635 l 149 635 l 121 574 q 122 542 113 554 q 147 531 132 531 l 153 531 l 153 524 l -4 524 l -4 531 l 1 531 q 60 568 38 531 l 218 893 q 254 988 253 971 l 261 988 l 469 571 q 528 531 493 531 m 165 671 l 285 671 l 226 803 l 165 671 z "},"«":{"ha":703,"x_min":56,"x_max":622,"o":"m 340 681 l 351 674 l 222 406 l 353 132 l 340 122 l 56 406 l 340 681 m 608 681 l 619 674 l 490 406 l 621 132 l 608 124 l 324 406 l 608 681 z "},"¬":{"ha":833,"x_min":56,"x_max":781,"o":"m 781 560 l 781 271 l 701 271 l 701 481 l 56 481 l 56 560 l 781 560 z "},"­":{"ha":528,"x_min":43,"x_max":485,"o":"m 44 406 l 56 451 l 472 451 l 483 406 l 472 358 l 56 358 l 44 406 z "},"®":{"ha":340,"x_min":14,"x_max":328,"o":"m 60 928 q 83 951 60 928 q 171 974 106 974 q 282 928 236 974 q 328 817 328 882 q 282 706 328 751 q 171 660 236 660 q 60 706 106 660 q 14 817 14 751 q 60 928 14 882 m 81 727 q 99 709 81 727 q 170 690 117 690 q 260 727 224 690 q 297 817 297 764 q 260 906 297 869 q 170 943 224 943 q 81 906 117 943 q 44 817 44 869 q 81 727 44 764 m 235 858 q 193 813 235 817 q 227 777 206 810 q 263 740 249 744 l 263 738 l 240 738 q 183 771 204 738 q 175 786 181 774 q 156 818 160 818 l 156 821 l 169 821 q 193 856 194 822 q 163 890 192 890 l 147 890 l 147 754 q 163 740 147 740 l 165 740 l 165 738 l 90 738 l 90 740 l 93 740 q 108 754 107 740 l 108 886 q 93 900 107 900 l 90 900 l 90 903 l 175 904 q 218 892 201 904 q 235 858 235 879 z "},"¯":{"ha":833,"x_min":219,"x_max":601,"o":"m 219 976 l 219 1067 l 600 1067 l 600 976 l 219 976 z "},"°":{"ha":339,"x_min":32,"x_max":307,"o":"m 74 883 q 94 902 74 883 q 170 922 114 922 q 267 883 226 922 q 307 786 307 843 q 267 689 307 729 q 170 649 226 649 q 74 689 114 649 q 33 786 33 729 q 74 883 33 843 m 217 833 q 207 842 217 833 q 169 851 197 851 q 123 833 142 851 q 104 786 104 814 q 123 739 104 758 q 169 719 142 719 q 217 739 197 719 q 236 786 236 758 q 217 833 236 814 z "},"±":{"ha":668,"x_min":56,"x_max":614,"o":"m 374 567 l 614 567 l 614 488 l 374 488 l 374 249 l 294 249 l 294 488 l 56 488 l 56 567 l 294 567 l 294 807 l 374 807 l 374 567 m 56 75 l 56 154 l 614 154 l 614 75 l 56 75 z "},"²":{"ha":557,"x_min":46,"x_max":513,"o":"m 246 996 q 408 952 343 996 q 472 835 472 908 q 240 557 472 690 l 394 557 q 472 592 442 557 q 503 639 489 610 l 511 639 l 458 428 l 49 428 l 49 436 q 118 515 69 460 q 192 603 167 571 q 251 682 218 635 q 314 849 314 771 q 286 928 314 900 q 218 956 258 956 q 132 913 161 956 q 103 796 103 869 l 94 796 l 47 933 q 172 989 92 974 q 246 996 208 996 z "},"³":{"ha":483,"x_min":38,"x_max":438,"o":"m 392 929 q 415 856 415 900 q 383 783 415 813 q 308 747 351 753 q 399 703 361 739 q 438 603 438 668 q 400 490 438 539 q 186 400 332 400 q 39 429 110 400 l 40 436 q 51 436 46 436 q 251 515 188 436 q 285 608 285 557 q 263 688 285 658 q 133 739 222 738 l 135 747 q 139 747 138 747 q 231 782 194 747 q 268 865 268 817 q 242 933 268 914 q 183 951 215 951 q 94 889 113 951 q 86 840 86 863 q 86 811 86 817 l 78 811 l 39 939 q 220 990 99 990 q 392 929 342 990 z "},"´":{"ha":744,"x_min":281,"x_max":576,"o":"m 290 1033 l 281 1043 q 481 1271 342 1146 q 575 1158 549 1236 q 290 1033 432 1068 z "},"¶":{"ha":739,"x_min":68,"x_max":726,"o":"m 578 204 q 494 -18 578 58 l 482 -7 q 519 118 517 51 q 519 201 519 139 l 519 914 l 404 914 l 404 0 q 268 -276 404 -214 l 258 -264 q 329 -159 315 -206 q 343 -65 343 -112 q 342 0 343 -18 l 342 463 q 147 532 224 463 q 69 717 69 601 q 148 902 69 832 q 342 972 226 972 l 583 972 q 594 972 585 972 q 606 972 603 972 q 618 973 608 972 q 633 976 628 974 q 647 980 638 978 q 663 987 656 982 q 679 997 671 992 q 717 1032 696 1008 l 726 1024 q 675 948 714 981 q 578 914 636 915 l 578 204 z "},"·":{"ha":303,"x_min":50,"x_max":253,"o":"m 223 419 q 208 405 223 419 q 151 390 193 390 q 81 419 110 390 q 51 490 51 449 q 81 561 51 532 q 151 590 110 590 q 223 561 193 590 q 253 490 253 532 q 223 419 253 449 z "},"¸":{"ha":833,"x_min":314,"x_max":551,"o":"m 393 -67 q 478 -62 438 -51 q 551 -151 551 -82 q 472 -256 551 -219 q 390 -275 429 -275 q 315 -262 350 -275 l 317 -249 q 410 -223 367 -249 q 453 -146 453 -197 q 432 -106 453 -121 q 382 -90 411 -90 q 325 -100 353 -90 l 318 -86 l 385 1 l 451 1 l 393 -67 z "},"¹":{"ha":361,"x_min":46,"x_max":326,"o":"m 256 993 l 264 993 l 264 481 q 277 449 264 463 q 308 436 290 436 l 325 436 l 325 428 l 53 428 l 53 436 l 71 436 q 102 449 89 436 q 115 481 115 463 l 115 878 q 64 932 115 932 l 47 932 l 47 940 q 256 993 190 950 z "},"º":{"ha":561,"x_min":32,"x_max":531,"o":"m 33 753 q 33 807 33 753 q 100 924 33 861 q 281 988 167 988 q 462 924 394 988 q 529 753 529 861 q 462 583 529 646 q 281 519 394 519 q 100 583 167 519 q 33 753 33 646 m 165 753 q 165 707 165 753 q 195 606 165 660 q 281 553 225 553 q 367 606 336 553 q 397 753 397 660 q 367 901 397 847 q 281 956 336 956 q 195 901 225 956 q 165 753 165 847 z "},"»":{"ha":703,"x_min":83,"x_max":650,"o":"m 96 122 l 83 132 l 215 406 l 85 674 l 96 681 l 381 406 l 96 122 m 364 122 l 351 132 l 483 406 l 353 674 l 364 681 l 649 406 l 364 122 z "},"¼":{"ha":1038,"x_min":49,"x_max":1000,"o":"m 819 999 l 872 964 l 208 -25 l 156 11 l 819 999 m 50 940 q 258 993 193 950 l 265 993 l 265 481 q 279 449 265 463 q 311 436 293 436 l 328 436 l 328 428 l 56 428 l 56 436 l 74 436 q 105 449 92 436 q 118 481 118 463 l 118 878 q 67 932 118 932 l 50 932 l 50 940 m 947 8 l 957 8 l 957 0 l 696 0 l 696 8 l 706 8 q 739 21 725 8 q 754 53 753 33 l 754 149 l 490 149 l 490 157 l 892 565 l 899 565 l 899 228 l 938 228 q 992 258 975 228 l 1000 258 l 975 149 l 900 149 l 900 54 q 914 22 900 35 q 947 8 928 8 m 754 228 l 754 363 l 621 228 l 754 228 z "},"½":{"ha":1156,"x_min":49,"x_max":1101,"o":"m 800 999 l 853 964 l 189 -25 l 136 11 l 800 999 m 257 993 l 265 993 l 265 481 q 279 449 265 463 q 311 436 293 436 l 328 436 l 328 428 l 56 428 l 56 436 l 72 436 q 105 449 92 436 q 118 481 118 463 l 118 878 q 67 932 118 932 l 50 932 l 50 940 q 257 993 193 950 m 636 507 q 724 552 669 536 q 838 568 778 568 q 950 549 899 568 q 1031 493 1001 531 q 1061 407 1061 456 q 831 129 1061 263 l 983 129 q 1063 164 1031 129 q 1093 213 1078 182 l 1101 213 l 1049 0 l 638 0 l 638 8 q 696 75 658 32 q 758 146 733 118 q 813 214 782 174 q 861 285 843 254 q 904 416 904 360 q 876 500 904 472 q 807 528 849 528 q 721 485 750 528 q 692 368 692 442 l 685 368 l 636 507 z "},"¾":{"ha":1096,"x_min":42,"x_max":1071,"o":"m 901 999 l 954 964 l 290 -25 l 236 11 l 901 999 m 385 942 q 418 860 418 908 q 387 783 418 813 q 313 749 356 753 q 403 703 365 739 q 442 603 442 668 q 404 490 442 539 q 190 400 335 400 q 43 429 114 400 l 44 436 q 56 436 50 436 q 221 482 153 436 q 289 615 289 528 q 265 688 289 658 q 138 739 225 738 l 139 747 q 143 747 140 747 q 235 782 199 747 q 272 865 272 817 q 245 933 272 914 q 188 951 218 951 q 111 918 132 951 q 90 822 90 885 q 90 811 90 817 l 82 811 l 43 939 q 217 990 101 990 q 385 942 332 990 m 1018 8 l 1026 8 l 1026 0 l 767 0 l 767 8 l 775 8 q 808 21 794 8 q 824 53 822 33 l 824 149 l 561 149 l 561 157 l 961 565 l 969 565 l 969 228 l 1007 228 q 1061 258 1044 228 l 1069 258 l 1044 149 l 969 149 l 969 54 q 984 22 969 35 q 1018 8 999 8 m 824 228 l 824 363 l 690 228 l 824 228 z "},"¿":{"ha":676,"x_min":51,"x_max":631,"o":"m 253 886 q 282 957 253 928 q 345 986 311 986 q 403 972 379 986 q 453 886 454 944 q 424 815 454 844 q 353 785 394 785 q 282 815 311 785 q 253 886 253 844 m 364 -19 q 134 44 215 -19 q 53 222 53 108 q 75 318 53 272 q 124 392 97 364 q 199 466 150 419 q 270 538 247 513 q 302 575 293 564 q 321 607 311 586 q 311 690 339 643 l 321 699 q 431 554 431 650 q 372 424 431 489 q 326 371 349 399 q 275 219 275 307 q 313 85 275 132 q 420 39 350 39 q 530 93 490 39 q 569 253 569 147 l 583 253 l 631 104 q 528 14 599 47 q 364 -19 457 -19 z "},"À":{"ha":994,"x_min":-40,"x_max":1036,"o":"m 515 1071 l 506 1061 q 221 1186 367 1094 q 315 1299 249 1265 q 515 1071 457 1172 m 1024 14 l 1036 14 l 1036 0 l 593 0 l 593 14 l 606 14 q 651 33 636 14 q 665 68 665 51 q 658 101 665 85 l 590 272 l 265 272 l 193 101 q 186 72 186 83 q 191 48 186 61 q 212 24 196 35 q 247 14 228 14 l 258 14 l 258 0 l -39 0 l -39 14 l -26 14 q 38 33 6 14 q 90 92 69 53 l 411 818 q 481 1000 476 956 l 493 1000 l 906 94 q 958 34 926 54 q 1024 14 990 14 m 289 331 l 567 331 l 432 672 l 289 331 z "},"Á":{"ha":994,"x_min":-40,"x_max":1036,"o":"m 475 1058 l 465 1068 q 664 1296 525 1171 q 758 1183 732 1261 q 475 1058 615 1093 m 1024 14 l 1036 14 l 1036 0 l 593 0 l 593 14 l 606 14 q 651 33 636 14 q 665 68 665 51 q 658 101 665 85 l 590 272 l 265 272 l 193 101 q 186 67 186 83 q 201 33 186 51 q 247 14 217 14 l 258 14 l 258 0 l -39 0 l -39 14 l -26 14 q 38 33 6 14 q 90 92 69 53 l 411 818 q 481 1000 476 956 l 493 1000 l 906 94 q 958 34 926 54 q 1024 14 990 14 m 289 331 l 567 331 l 432 672 l 289 331 z "},"Â":{"ha":994,"x_min":-39,"x_max":1036,"o":"m 479 1271 l 496 1271 l 708 1058 l 699 1047 l 488 1138 l 289 1047 l 279 1058 l 479 1271 m 1024 14 l 1036 14 l 1036 0 l 593 0 l 593 14 l 606 14 q 651 33 636 14 q 665 68 665 51 q 658 101 665 85 l 590 272 l 265 272 l 193 101 q 186 72 186 83 q 191 48 186 61 q 212 24 196 35 q 247 14 228 14 l 258 14 l 258 0 l -39 0 l -39 14 l -26 14 q 38 33 6 14 q 90 92 69 53 l 411 818 q 481 1000 476 956 l 493 1000 l 906 94 q 958 34 926 54 q 1024 14 990 14 m 289 331 l 567 331 l 432 672 l 289 331 z "},"Ã":{"ha":994,"x_min":-39,"x_max":1036,"o":"m 722 1235 l 738 1235 q 742 1206 742 1219 q 714 1119 742 1163 q 604 1061 676 1061 q 499 1094 563 1061 q 415 1129 435 1126 q 378 1132 396 1132 q 333 1113 361 1132 q 294 1065 306 1093 l 279 1065 q 278 1086 278 1076 q 310 1194 278 1139 q 413 1249 343 1249 q 519 1214 451 1249 q 639 1179 586 1179 q 685 1196 657 1179 q 722 1235 713 1213 m 1024 14 l 1036 14 l 1036 0 l 593 0 l 593 14 l 606 14 q 651 33 636 14 q 665 68 665 51 q 658 101 665 85 l 590 272 l 265 272 l 193 101 q 186 67 186 83 q 201 33 186 51 q 247 14 217 14 l 258 14 l 258 0 l -39 0 l -39 14 l -26 14 q 38 33 6 14 q 90 92 69 53 l 411 818 q 481 1000 476 956 l 493 1000 l 906 94 q 958 34 926 54 q 1024 14 990 14 m 289 331 l 567 331 l 432 672 l 289 331 z "},"Ä":{"ha":994,"x_min":-40,"x_max":1036,"o":"m 383 1078 q 370 1066 383 1078 q 324 1054 358 1054 q 265 1078 289 1054 q 240 1138 240 1103 q 265 1197 240 1172 q 324 1221 289 1221 q 383 1197 358 1221 q 407 1138 407 1172 q 383 1078 407 1103 m 707 1078 q 694 1066 707 1078 q 648 1054 682 1054 q 589 1078 614 1054 q 564 1138 564 1103 q 589 1197 564 1172 q 648 1221 614 1221 q 707 1197 682 1221 q 732 1138 732 1172 q 707 1078 732 1103 m 1024 14 l 1036 14 l 1036 0 l 593 0 l 593 14 l 606 14 q 651 33 636 14 q 665 68 665 51 q 658 101 665 85 l 590 272 l 265 272 l 193 101 q 186 67 186 83 q 201 33 186 51 q 247 14 215 14 l 258 14 l 258 0 l -39 0 l -39 14 l -26 14 q 38 33 6 14 q 90 92 69 53 l 411 818 q 481 1000 476 956 l 493 1000 l 906 94 q 958 34 926 54 q 1024 14 990 14 m 289 331 l 567 331 l 432 672 l 289 331 z "},"Å":{"ha":994,"x_min":-39,"x_max":1036,"o":"m 1024 14 l 1036 14 l 1036 0 l 593 0 l 593 14 l 606 14 q 651 33 636 14 q 665 67 665 51 q 658 101 665 83 l 589 272 l 265 272 l 193 101 q 186 67 186 83 q 201 33 186 51 q 247 14 217 14 l 258 14 l 258 0 l -39 0 l -39 14 l -26 14 q 40 35 7 14 q 93 99 74 57 l 411 810 q 475 968 460 911 q 391 999 425 971 q 357 1069 357 1026 q 394 1140 357 1111 q 488 1168 432 1168 q 580 1141 543 1168 q 617 1071 617 1114 q 584 1000 617 1028 q 503 968 551 972 l 901 101 q 956 35 924 57 q 1024 14 989 14 m 492 1140 q 477 1140 492 1140 q 444 1120 461 1140 q 426 1068 426 1100 q 444 1015 426 1036 q 487 994 461 994 q 530 1015 513 994 q 547 1063 547 1036 q 540 1106 547 1089 q 492 1140 524 1140 m 290 331 l 565 331 l 431 665 l 290 331 z "},"Æ":{"ha":1349,"x_min":-35,"x_max":1313,"o":"m 578 14 q 626 33 606 14 q 647 81 646 53 l 647 442 l 425 442 l 217 99 q 206 63 206 78 q 214 38 206 49 q 261 14 231 14 q 263 14 263 14 l 276 14 l 276 0 l -33 0 l -33 14 l -22 14 q 100 97 43 14 l 635 899 q 643 923 643 913 q 639 940 643 933 q 604 958 629 958 l 599 958 l 599 972 l 1064 972 q 1158 981 1107 972 q 1229 997 1210 989 l 1229 763 l 1215 763 l 1215 776 q 1180 874 1215 838 q 1083 913 1144 911 l 856 913 l 856 501 l 1033 501 q 1116 536 1083 503 q 1149 619 1149 569 l 1149 632 l 1163 632 l 1163 311 l 1149 311 l 1149 324 q 1093 425 1149 392 q 1036 442 1068 440 l 856 442 l 856 60 l 1040 60 q 1242 158 1165 60 q 1299 271 1278 206 l 1313 271 l 1250 0 l 564 0 l 565 14 l 578 14 m 647 500 l 647 807 l 461 500 l 647 500 z "},"Ç":{"ha":1083,"x_min":61,"x_max":1017,"o":"m 571 -79 q 618 -72 592 -72 q 713 -108 685 -72 q 729 -158 729 -128 q 650 -269 729 -232 q 568 -289 607 -289 q 493 -276 529 -289 l 494 -262 q 588 -237 544 -262 q 631 -158 631 -211 q 610 -118 631 -133 q 560 -103 589 -103 q 503 -112 531 -103 l 496 -99 l 560 -17 q 196 135 329 1 q 63 494 63 268 q 214 856 63 721 q 629 992 365 992 q 975 917 831 992 l 978 678 l 967 678 q 643 933 896 933 q 384 815 479 933 q 289 490 289 696 q 380 164 289 285 q 626 39 471 43 q 872 119 788 39 q 992 406 958 203 l 1003 406 l 1017 167 q 624 -19 904 -19 l 571 -79 z "},"È":{"ha":876,"x_min":57,"x_max":842,"o":"m 475 1071 l 465 1061 q 182 1186 326 1094 q 275 1299 208 1265 q 475 1071 417 1172 m 76 14 q 138 40 113 14 q 165 101 164 65 l 165 875 q 144 928 163 910 q 76 958 111 958 l 58 958 l 58 972 l 590 972 q 685 981 633 972 q 757 997 736 989 l 757 754 l 743 754 l 743 771 q 679 893 743 857 q 607 913 649 911 l 374 913 l 374 508 l 557 508 q 642 544 608 510 q 675 628 675 578 l 675 640 l 689 640 l 689 319 l 675 319 l 675 331 q 619 433 675 400 q 560 450 592 449 l 374 450 l 374 60 l 556 60 q 726 118 657 60 q 828 283 794 176 l 842 283 l 778 0 l 58 0 l 58 14 l 76 14 z "},"É":{"ha":876,"x_min":57,"x_max":842,"o":"m 435 1058 l 425 1068 q 625 1296 485 1171 q 718 1183 692 1261 q 435 1058 576 1093 m 76 14 q 138 40 113 14 q 165 101 164 65 l 165 875 q 144 928 163 911 q 76 958 111 958 l 58 958 l 58 972 l 590 972 q 685 981 633 972 q 757 997 736 989 l 757 754 l 743 756 l 743 771 q 679 893 743 857 q 607 913 649 911 l 374 913 l 374 508 l 557 508 q 642 544 608 510 q 675 628 675 578 l 675 640 l 689 640 l 689 319 l 675 319 l 675 331 q 642 415 675 382 q 560 450 610 449 l 374 450 l 374 60 l 556 60 q 726 118 657 60 q 828 283 794 176 l 842 283 l 778 0 l 58 0 l 58 14 l 76 14 z "},"Ê":{"ha":876,"x_min":57,"x_max":842,"o":"m 440 1271 l 456 1271 l 668 1058 l 658 1047 l 447 1138 l 249 1047 l 239 1058 l 440 1271 m 76 14 q 138 40 113 14 q 165 101 164 65 l 165 875 q 144 928 163 910 q 76 958 111 958 l 58 958 l 58 972 l 590 972 q 685 981 633 972 q 757 997 736 989 l 757 754 l 743 756 l 743 771 q 706 872 743 833 q 607 913 669 910 l 374 913 l 374 508 l 557 508 q 642 544 608 510 q 675 628 675 578 l 675 640 l 689 640 l 689 319 l 675 319 l 675 331 q 642 415 675 382 q 560 450 610 449 l 374 450 l 374 60 l 556 60 q 726 118 657 60 q 828 283 794 176 l 842 283 l 778 0 l 58 0 l 58 14 l 76 14 z "},"Ë":{"ha":876,"x_min":57,"x_max":842,"o":"m 342 1078 q 330 1066 342 1078 q 283 1054 318 1054 q 224 1078 249 1054 q 200 1138 200 1103 q 224 1197 200 1172 q 283 1221 249 1221 q 342 1197 318 1221 q 367 1138 367 1172 q 342 1078 367 1103 m 667 1078 q 654 1066 667 1078 q 608 1054 642 1054 q 549 1078 574 1054 q 525 1138 525 1103 q 549 1197 525 1172 q 608 1221 574 1221 q 667 1197 642 1221 q 692 1138 692 1172 q 667 1078 692 1103 m 76 14 q 138 40 113 14 q 165 101 164 65 l 165 875 q 144 928 163 911 q 76 958 111 958 l 58 958 l 58 972 l 590 972 q 703 983 658 972 q 757 997 747 993 l 757 754 l 743 756 l 743 771 q 679 893 743 857 q 607 913 649 911 l 374 913 l 374 508 l 557 508 q 642 544 608 510 q 675 628 675 578 l 675 640 l 689 640 l 689 319 l 675 319 l 675 331 q 619 433 675 400 q 560 450 592 449 l 374 450 l 374 60 l 556 60 q 726 118 657 60 q 828 283 794 176 l 842 283 l 778 0 l 58 0 l 58 14 l 76 14 z "},"Ì":{"ha":536,"x_min":8,"x_max":481,"o":"m 303 1071 l 293 1061 q 10 1186 154 1094 q 103 1299 36 1265 q 303 1071 244 1172 m 76 14 q 138 40 113 14 q 165 101 164 65 l 165 872 q 138 933 164 908 q 76 958 113 958 l 58 958 l 58 972 l 481 972 l 479 958 l 463 958 q 400 933 426 958 q 374 872 374 908 l 374 101 q 400 40 374 65 q 463 14 426 14 l 479 14 l 481 0 l 58 0 l 58 14 l 76 14 z "},"Í":{"ha":536,"x_min":57,"x_max":539,"o":"m 254 1058 l 244 1068 q 443 1296 304 1171 q 538 1183 511 1261 q 254 1058 396 1093 m 76 14 q 138 40 113 14 q 165 101 164 65 l 165 872 q 138 933 164 908 q 76 958 113 958 l 58 958 l 58 972 l 481 972 l 479 958 l 463 958 q 400 933 426 958 q 374 872 374 908 l 374 101 q 400 40 374 65 q 463 14 426 14 l 479 14 l 481 0 l 58 0 l 58 14 l 76 14 z "},"Î":{"ha":536,"x_min":57,"x_max":488,"o":"m 260 1271 l 275 1271 l 488 1058 l 478 1047 l 267 1138 l 68 1047 l 58 1058 l 260 1271 m 76 14 q 138 40 113 14 q 165 101 164 65 l 165 872 q 138 933 164 908 q 76 958 113 958 l 58 958 l 58 972 l 481 972 l 479 958 l 463 958 q 400 933 426 958 q 374 872 374 908 l 374 101 q 400 40 374 65 q 463 14 426 14 l 479 14 l 481 0 l 58 0 l 58 14 l 76 14 z "},"Ï":{"ha":536,"x_min":19,"x_max":511,"o":"m 162 1078 q 150 1066 162 1078 q 103 1054 138 1054 q 44 1078 68 1054 q 19 1138 19 1103 q 44 1197 19 1172 q 103 1221 68 1221 q 162 1197 138 1221 q 186 1138 186 1172 q 162 1078 186 1103 m 486 1078 q 474 1066 486 1078 q 427 1054 461 1054 q 368 1078 393 1054 q 343 1138 343 1103 q 368 1197 343 1172 q 427 1221 393 1221 q 486 1197 461 1221 q 511 1138 511 1172 q 486 1078 511 1103 m 76 14 q 138 40 113 14 q 165 101 164 65 l 165 872 q 138 933 164 908 q 76 958 113 958 l 58 958 l 58 972 l 481 972 l 479 958 l 463 958 q 400 933 426 958 q 374 872 374 908 l 374 101 q 400 40 374 65 q 463 14 426 14 l 479 14 l 481 0 l 58 0 l 58 14 l 76 14 z "},"Ð":{"ha":1150,"x_min":57,"x_max":1094,"o":"m 565 972 q 953 842 811 972 q 1094 486 1094 711 q 953 131 1094 261 q 565 0 811 0 l 61 0 l 61 14 l 79 14 q 141 40 115 14 q 168 101 167 65 l 168 457 l 58 457 l 58 515 l 168 515 l 168 879 q 141 935 168 913 q 79 958 114 958 l 61 958 l 61 972 l 565 972 m 376 457 l 376 58 l 547 58 q 786 174 697 58 q 875 486 875 289 q 786 799 875 683 q 547 914 697 914 l 376 914 l 376 515 l 556 515 l 556 457 l 376 457 z "},"Ñ":{"ha":1201,"x_min":40,"x_max":1161,"o":"m 813 1235 l 829 1235 q 832 1206 832 1219 q 804 1119 832 1163 q 694 1061 767 1061 q 628 1076 663 1061 q 558 1110 593 1092 q 504 1130 522 1128 q 469 1132 486 1132 q 424 1113 451 1132 q 386 1065 397 1093 l 369 1065 q 368 1086 368 1076 q 401 1194 368 1139 q 504 1249 435 1249 q 609 1214 542 1249 q 724 1179 676 1179 q 757 1188 736 1179 q 813 1235 800 1203 m 1135 958 q 1075 934 1100 958 q 1049 875 1050 910 l 1049 158 q 1061 1 1049 65 l 1065 -19 l 1053 -19 l 351 649 l 351 97 q 394 25 351 49 q 436 14 414 14 l 463 14 l 463 0 l 42 0 l 42 14 l 67 14 q 128 38 103 14 q 153 99 153 63 l 153 819 q 140 972 153 911 l 138 993 l 150 993 l 851 325 l 851 874 q 825 934 850 910 q 765 958 800 958 l 740 958 l 740 972 l 1161 972 l 1161 958 l 1135 958 z "},"Ò":{"ha":1219,"x_min":61,"x_max":1156,"o":"m 635 1082 l 625 1072 q 342 1197 486 1106 q 435 1311 368 1276 q 635 1082 576 1185 m 210 856 q 284 924 210 856 q 609 992 358 992 q 1008 856 860 992 q 1156 486 1156 719 q 1008 117 1156 253 q 609 -19 860 -19 q 210 117 358 -19 q 63 486 63 253 q 210 856 63 719 m 372 159 q 415 99 372 159 q 609 39 458 39 q 846 159 760 39 q 932 486 932 279 q 893 724 932 624 q 781 879 854 825 q 608 933 708 933 q 372 813 458 933 q 286 486 286 693 q 372 159 286 279 z "},"Ó":{"ha":1219,"x_min":67,"x_max":1161,"o":"m 600 1071 l 590 1081 q 790 1308 650 1183 q 883 1196 857 1274 q 600 1071 742 1104 m 216 856 q 290 924 216 856 q 615 992 364 992 q 1013 856 865 992 q 1161 486 1161 719 q 1013 117 1161 253 q 615 -19 865 -19 q 216 117 364 -19 q 68 486 68 253 q 216 856 68 719 m 381 159 q 424 99 381 159 q 614 39 467 39 q 847 159 761 39 q 933 486 933 279 q 847 813 933 693 q 614 933 761 933 q 381 813 467 933 q 296 486 296 693 q 381 159 296 279 z "},"Ô":{"ha":1219,"x_min":67,"x_max":1161,"o":"m 606 1283 l 621 1283 l 833 1069 l 824 1058 l 613 1150 l 414 1060 l 404 1071 l 606 1283 m 614 992 q 903 931 781 992 q 1094 755 1026 869 q 1161 486 1161 640 q 1013 117 1161 253 q 615 -19 865 -19 q 216 117 364 -19 q 68 486 68 253 q 216 856 68 719 q 614 992 364 992 m 381 159 q 424 99 381 159 q 614 39 467 39 q 847 159 761 39 q 933 486 933 279 q 847 813 933 693 q 614 933 761 933 q 381 813 467 933 q 296 486 296 693 q 381 159 296 279 z "},"Õ":{"ha":1219,"x_min":67,"x_max":1161,"o":"m 403 1099 q 435 1206 403 1151 q 538 1260 468 1260 q 639 1228 576 1260 q 731 1193 701 1196 q 778 1194 760 1190 q 847 1247 831 1207 l 863 1247 q 867 1217 867 1232 q 839 1131 867 1175 q 729 1074 801 1074 q 624 1106 689 1074 q 540 1141 560 1139 q 503 1143 521 1143 q 459 1124 486 1143 q 419 1078 432 1106 l 404 1078 q 403 1099 403 1088 m 216 856 q 290 924 216 856 q 615 992 364 992 q 1013 856 865 992 q 1161 486 1161 719 q 1013 117 1161 253 q 615 -19 865 -19 q 216 117 364 -19 q 68 486 68 253 q 216 856 68 719 m 381 159 q 424 99 381 159 q 614 39 467 39 q 847 159 761 39 q 933 486 933 279 q 847 813 933 693 q 614 933 761 933 q 381 813 467 933 q 296 486 296 693 q 381 159 296 279 z "},"Ö":{"ha":1219,"x_min":67,"x_max":1161,"o":"m 508 1090 q 495 1078 508 1090 q 449 1065 483 1065 q 390 1090 414 1065 q 365 1149 365 1115 q 390 1208 365 1183 q 449 1233 414 1233 q 508 1208 483 1233 q 532 1149 532 1183 q 508 1090 532 1115 m 832 1090 q 819 1078 832 1090 q 773 1065 807 1065 q 714 1090 739 1065 q 689 1149 689 1115 q 714 1208 689 1183 q 773 1233 739 1233 q 832 1208 807 1233 q 857 1149 857 1183 q 832 1090 857 1115 m 216 856 q 290 924 216 856 q 615 992 364 992 q 1013 856 865 992 q 1161 486 1161 719 q 1013 117 1161 253 q 615 -19 865 -19 q 216 117 364 -19 q 68 486 68 253 q 216 856 68 719 m 381 159 q 424 99 381 159 q 614 39 467 39 q 847 159 761 39 q 933 486 933 279 q 847 813 933 693 q 614 933 761 933 q 381 813 467 933 q 296 486 296 693 q 381 159 296 279 z "},"×":{"ha":571,"x_min":60,"x_max":513,"o":"m 511 600 l 343 431 l 511 261 l 456 206 l 286 374 l 117 206 l 61 261 l 231 431 l 61 600 l 117 656 l 286 486 l 456 656 l 511 600 z "},"Ø":{"ha":1214,"x_min":61,"x_max":1150,"o":"m 1150 486 q 1003 117 1150 253 q 606 -19 857 -19 q 278 64 413 -19 l 196 -32 l 146 11 l 224 103 q 63 486 63 240 q 128 755 63 640 q 317 931 194 869 q 613 992 440 992 q 917 919 786 992 l 990 1007 l 1042 965 l 971 882 q 1150 486 1150 746 m 835 824 q 603 933 750 933 q 369 813 456 933 q 283 486 283 693 q 331 228 283 335 l 835 824 m 364 167 q 603 39 450 39 q 843 159 757 39 q 929 486 929 279 q 872 765 929 653 l 364 167 z "},"Ù":{"ha":1140,"x_min":51,"x_max":1097,"o":"m 653 1071 l 643 1061 q 360 1186 504 1094 q 453 1299 386 1265 q 653 1071 594 1172 m 1097 958 l 1075 958 q 1024 940 1044 958 q 1001 893 1003 921 l 1001 351 q 894 81 1001 181 q 601 -19 788 -19 q 265 78 382 -19 q 149 350 149 176 l 149 889 q 127 939 149 919 q 75 958 106 958 l 53 958 l 53 972 l 453 972 l 453 958 l 431 958 q 379 940 400 958 q 357 892 358 921 l 357 361 q 429 128 357 214 q 626 42 501 42 q 773 78 711 42 q 869 183 835 114 q 903 343 903 251 l 903 892 q 865 950 900 932 q 829 958 849 958 l 807 958 l 807 972 l 1097 972 l 1097 958 z "},"Ú":{"ha":1140,"x_min":51,"x_max":1097,"o":"m 613 1058 l 603 1068 q 803 1296 663 1171 q 896 1183 869 1261 q 613 1058 754 1093 m 1097 958 l 1074 958 q 1024 940 1044 958 q 1001 893 1003 921 l 1001 351 q 894 81 1001 181 q 601 -19 788 -19 q 265 78 382 -19 q 149 350 149 176 l 149 890 q 127 939 149 919 q 75 958 106 958 l 53 958 l 53 972 l 453 972 l 453 958 l 431 958 q 379 940 400 958 q 357 892 358 921 l 357 361 q 429 128 357 214 q 628 42 501 42 q 828 123 754 42 q 903 343 901 204 l 903 892 q 865 950 900 932 q 829 958 849 958 l 807 958 l 807 972 l 1097 972 l 1097 958 z "},"Û":{"ha":1140,"x_min":51,"x_max":1097,"o":"m 618 1271 l 633 1271 l 846 1058 l 836 1047 l 625 1138 l 426 1047 l 417 1058 l 618 1271 m 1097 958 l 1075 958 q 1024 940 1044 958 q 1001 893 1003 921 l 1001 351 q 894 81 1001 181 q 601 -19 788 -19 q 265 78 382 -19 q 149 350 149 176 l 149 889 q 127 939 149 919 q 75 958 106 958 l 53 958 l 53 972 l 453 972 l 453 958 l 431 958 q 379 940 400 958 q 357 892 358 921 l 357 361 q 429 128 357 214 q 626 42 501 42 q 773 78 711 42 q 869 183 835 114 q 903 343 903 251 l 903 892 q 865 950 900 932 q 829 958 849 958 l 807 958 l 807 972 l 1097 972 l 1097 958 z "},"Ü":{"ha":1140,"x_min":51,"x_max":1097,"o":"m 520 1078 q 508 1066 520 1078 q 461 1054 496 1054 q 402 1078 426 1054 q 378 1138 378 1103 q 402 1197 378 1172 q 461 1221 426 1221 q 520 1197 496 1221 q 544 1138 544 1172 q 520 1078 544 1103 m 844 1078 q 832 1066 844 1078 q 785 1054 819 1054 q 727 1078 751 1054 q 703 1138 703 1103 q 727 1197 703 1172 q 785 1221 751 1221 q 844 1197 819 1221 q 869 1138 869 1172 q 844 1078 869 1103 m 1097 958 l 1074 958 q 1004 911 1021 958 q 1001 893 1001 903 l 1001 351 q 894 81 1001 181 q 601 -19 788 -19 q 265 78 382 -19 q 149 350 149 176 l 149 889 q 111 950 147 931 q 75 958 94 958 l 53 958 l 53 972 l 453 972 l 453 958 l 431 958 q 379 940 400 958 q 357 892 358 921 l 357 361 q 429 128 357 214 q 628 42 501 42 q 828 123 754 42 q 903 343 901 204 l 903 892 q 865 950 900 932 q 829 958 849 958 l 807 958 l 807 972 l 1097 972 l 1097 958 z "},"Ý":{"ha":975,"x_min":-43,"x_max":1021,"o":"m 538 1058 l 528 1068 q 728 1296 588 1171 q 822 1183 796 1261 q 538 1058 679 1093 m 1019 958 l 1000 958 q 921 935 958 958 q 861 878 883 911 l 588 442 l 588 101 q 614 40 588 65 q 676 14 640 14 l 693 14 l 694 0 l 272 0 l 272 14 l 290 14 q 352 39 326 14 q 379 100 378 64 l 379 443 l 114 879 q 55 935 93 913 q -24 958 17 958 l -43 958 l -43 972 l 417 972 l 417 958 l 399 958 q 351 931 368 958 q 343 901 343 915 q 350 872 343 886 l 549 511 l 756 872 q 763 901 763 886 q 753 929 763 915 q 706 958 736 958 l 689 958 l 689 972 l 1019 972 l 1019 958 z "},"Þ":{"ha":897,"x_min":58,"x_max":860,"o":"m 860 492 q 835 371 860 428 q 660 221 788 263 q 592 208 624 208 q 415 260 494 208 l 415 274 q 433 272 425 272 q 555 313 500 272 q 631 432 610 354 q 640 487 640 465 q 639 534 640 508 q 625 596 638 560 q 590 657 613 632 q 461 711 543 711 l 375 711 l 375 101 q 401 40 375 65 q 464 14 426 14 l 481 14 l 481 0 l 60 0 l 60 14 l 76 14 q 140 40 114 14 q 167 101 165 65 l 167 872 q 140 933 165 908 q 78 958 114 958 l 60 958 l 60 972 l 481 972 l 481 958 l 464 958 q 401 933 428 958 q 375 872 375 908 l 375 769 l 517 769 q 771 697 688 769 q 860 492 860 621 z "},"ß":{"ha":1429,"x_min":63,"x_max":1371,"o":"m 64 114 q 104 268 64 204 l 115 268 q 114 250 114 258 q 174 101 114 165 q 343 38 235 38 q 463 74 421 38 q 506 154 506 110 q 481 226 506 199 q 401 289 457 253 l 204 414 q 79 614 79 492 q 81 640 79 626 q 157 795 89 739 q 317 851 225 851 q 513 839 410 851 l 588 839 l 568 656 l 556 656 q 510 758 556 721 q 391 796 465 796 q 274 765 317 796 q 231 682 231 733 q 272 610 231 640 q 321 578 289 597 l 542 442 q 656 250 656 372 q 565 51 656 121 q 329 -18 474 -18 q 172 3 240 -18 q 72 56 104 24 q 64 114 64 81 m 779 114 q 819 268 779 204 l 831 268 q 829 250 829 258 q 890 101 829 165 q 1058 38 950 38 q 1178 74 1136 38 q 1221 164 1221 110 q 1201 221 1221 199 q 1117 289 1171 254 l 918 414 q 794 614 794 492 q 796 640 794 626 q 872 795 804 739 q 1032 851 939 851 q 1226 839 1125 851 l 1303 839 l 1283 656 l 1271 656 q 1226 758 1271 721 q 1106 796 1181 796 q 990 766 1032 796 q 946 688 949 736 q 965 631 943 650 q 1036 578 993 604 l 1256 442 q 1371 250 1371 372 q 1280 51 1371 121 q 1044 -18 1189 -18 q 887 3 956 -18 q 788 56 818 24 q 779 114 779 81 z "},"à":{"ha":894,"x_min":-37,"x_max":935,"o":"m 464 932 l 454 922 q 171 1047 315 956 q 265 1160 197 1126 q 464 932 406 1033 m 924 14 l 935 14 l 935 0 l 526 0 l 526 14 l 538 14 q 578 31 565 14 q 590 61 590 47 q 585 90 590 75 l 531 218 l 236 218 l 181 89 q 175 60 175 75 q 188 30 175 46 q 229 14 201 14 l 240 14 l 240 0 l -37 0 l -37 14 l -26 14 q 32 32 3 14 q 79 86 61 50 l 367 703 q 431 872 428 840 l 443 872 l 815 92 q 863 33 833 51 q 924 14 893 14 m 260 272 l 507 272 l 385 563 l 260 272 z "},"á":{"ha":894,"x_min":-37,"x_max":935,"o":"m 424 919 l 414 929 q 614 1157 474 1032 q 708 1044 681 1122 q 424 919 565 954 m 924 14 l 935 14 l 935 0 l 526 0 l 526 14 l 538 14 q 578 31 565 14 q 590 61 590 47 q 585 92 590 75 l 531 218 l 236 218 l 181 89 q 175 60 175 75 q 188 30 175 46 q 229 14 201 14 l 240 14 l 240 0 l -37 0 l -37 14 l -26 14 q 32 32 3 14 q 79 86 61 50 l 367 703 q 431 872 428 840 l 443 872 l 815 92 q 924 14 853 14 m 260 272 l 507 272 l 385 563 l 260 272 z "},"â":{"ha":894,"x_min":-37,"x_max":935,"o":"m 429 1132 l 444 1132 l 657 919 l 649 908 l 436 999 l 238 908 l 229 919 l 429 1132 m 924 14 l 935 14 l 935 0 l 526 0 l 526 14 l 538 14 q 578 31 565 14 q 590 61 590 47 q 585 90 590 75 l 531 218 l 236 218 l 181 89 q 175 60 175 75 q 188 30 175 46 q 229 14 201 14 l 240 14 l 240 0 l -37 0 l -37 14 l -26 14 q 32 32 3 14 q 79 86 61 50 l 367 703 q 431 872 428 840 l 443 872 l 815 92 q 863 33 833 51 q 924 14 893 14 m 260 272 l 507 272 l 385 563 l 260 272 z "},"ã":{"ha":894,"x_min":-37,"x_max":935,"o":"m 671 1096 l 688 1096 q 690 1067 690 1081 q 663 981 690 1024 q 553 922 625 922 q 448 955 513 922 q 364 990 383 988 q 327 993 344 993 q 283 974 310 993 q 244 926 256 954 l 228 926 q 226 947 226 938 q 260 1055 226 1000 q 363 1110 293 1110 q 467 1075 400 1110 q 589 1040 535 1040 q 634 1057 606 1040 q 671 1096 663 1074 m 924 14 l 935 14 l 935 0 l 526 0 l 526 14 l 538 14 q 578 31 565 14 q 590 61 590 47 q 585 92 590 75 l 531 218 l 236 218 l 181 89 q 175 60 175 75 q 188 30 175 46 q 229 14 201 14 l 240 14 l 240 0 l -37 0 l -37 14 l -26 14 q 32 32 3 14 q 79 86 61 50 l 367 703 q 431 872 428 840 l 443 872 l 815 92 q 863 33 833 51 q 924 14 893 14 m 260 272 l 507 272 l 385 563 l 260 272 z "},"ä":{"ha":894,"x_min":-37,"x_max":935,"o":"m 332 940 q 319 927 332 940 q 273 915 307 915 q 214 940 239 915 q 189 999 189 964 q 214 1058 189 1033 q 273 1082 239 1082 q 332 1058 307 1082 q 357 999 357 1033 q 332 940 357 964 m 656 940 q 644 927 656 940 q 597 915 632 915 q 538 940 563 915 q 514 999 514 964 q 538 1058 514 1033 q 597 1082 563 1082 q 656 1058 632 1082 q 681 999 681 1033 q 656 940 681 964 m 924 14 l 935 14 l 935 0 l 526 0 l 526 14 l 538 14 q 578 31 565 14 q 590 61 590 47 q 585 92 590 75 l 531 218 l 236 218 l 181 89 q 206 18 161 38 q 229 14 217 14 l 240 14 l 240 0 l -37 0 l -37 14 l -26 14 q 32 32 3 14 q 79 86 61 50 l 367 703 q 431 872 428 840 l 443 872 l 815 92 q 863 33 833 51 q 924 14 893 14 m 260 272 l 507 272 l 385 563 l 260 272 z "},"å":{"ha":894,"x_min":-37,"x_max":935,"o":"m 286 1038 q 286 1063 286 1038 q 330 1121 286 1088 q 438 1154 374 1154 q 545 1122 503 1154 q 588 1040 588 1090 q 544 956 588 989 q 437 922 501 922 q 329 955 372 922 q 286 1038 286 988 m 507 1038 q 507 1056 507 1038 q 488 1097 507 1074 q 438 1119 468 1119 q 388 1097 407 1119 q 368 1038 368 1074 q 388 979 368 1001 q 438 957 407 957 q 488 979 468 957 q 507 1038 507 1001 m 924 14 l 935 14 l 935 0 l 526 0 l 526 14 l 538 14 q 577 31 564 14 q 590 61 590 47 q 585 92 590 75 l 531 218 l 236 218 l 181 89 q 206 18 161 38 q 229 14 217 14 l 240 14 l 240 0 l -37 0 l -37 14 l -26 14 q 32 32 3 14 q 79 86 61 50 l 367 703 q 431 872 428 840 l 443 872 l 815 92 q 863 33 833 51 q 924 14 893 14 m 260 272 l 507 272 l 385 563 l 260 272 z "},"æ":{"ha":1200,"x_min":-29,"x_max":1176,"o":"m 515 14 q 556 30 539 14 q 574 69 574 46 l 574 376 l 378 376 l 189 78 q 213 18 169 35 q 235 14 222 14 l 246 14 l 246 0 l -29 0 l -29 14 l -19 14 q 89 86 38 14 l 563 768 q 567 805 575 789 q 536 821 558 821 l 531 821 l 531 833 l 961 833 q 1042 840 999 833 q 1104 854 1086 847 l 1104 640 l 1092 640 l 1092 653 q 1035 760 1092 728 q 971 776 1007 775 l 771 776 l 771 431 l 929 431 q 1004 463 975 433 q 1033 539 1033 493 l 1033 549 l 1046 549 l 1046 261 l 1033 261 l 1033 268 q 1004 344 1033 314 q 931 376 975 374 l 771 376 l 771 56 l 936 56 q 1113 143 1046 56 q 1163 243 1144 185 l 1175 243 l 1124 0 l 503 0 l 503 14 l 515 14 m 574 431 l 574 688 l 413 431 l 574 431 z "},"ç":{"ha":947,"x_min":46,"x_max":897,"o":"m 660 -161 q 581 -271 660 -235 q 499 -290 538 -290 q 424 -278 460 -290 l 425 -264 q 518 -238 475 -264 q 561 -161 561 -212 q 540 -121 561 -136 q 490 -106 519 -106 q 433 -114 461 -106 l 426 -100 l 492 -15 q 165 112 283 -1 q 47 423 47 225 q 180 736 47 621 q 547 851 313 851 q 860 788 731 851 l 860 567 l 850 567 q 743 743 815 690 q 561 796 671 796 q 336 695 414 796 q 258 420 258 594 q 335 143 258 246 q 550 38 414 38 q 713 68 649 38 q 814 166 776 99 q 869 349 851 233 l 879 349 l 896 139 q 767 26 853 69 q 557 -18 682 -17 l 501 -81 q 549 -74 522 -74 q 644 -111 615 -74 q 660 -161 660 -131 z "},"è":{"ha":782,"x_min":47,"x_max":756,"o":"m 431 932 l 421 922 q 138 1047 282 956 q 232 1160 164 1126 q 431 932 372 1035 m 701 0 l 47 0 l 47 14 l 64 14 q 117 35 96 14 q 140 86 139 56 l 140 747 q 117 799 139 778 q 64 819 96 819 l 47 819 l 47 833 l 536 833 q 618 840 574 833 q 681 854 663 847 l 681 633 l 667 633 l 667 646 q 633 742 667 707 q 540 778 600 776 l 340 778 l 340 440 l 499 440 q 575 472 546 442 q 604 550 604 503 l 604 560 l 618 560 l 618 265 l 604 265 l 604 275 q 556 369 604 340 q 500 385 531 385 l 340 385 l 340 56 l 507 56 q 653 109 593 57 q 742 256 714 161 l 754 256 l 701 0 z "},"é":{"ha":782,"x_min":47,"x_max":756,"o":"m 390 919 l 381 929 q 581 1158 440 1032 q 675 1044 647 1122 q 390 919 532 954 m 701 0 l 47 0 l 47 14 l 64 14 q 117 35 96 14 q 140 86 139 56 l 140 747 q 117 799 139 778 q 64 819 96 819 l 47 819 l 47 833 l 536 833 q 618 840 574 833 q 681 854 663 847 l 681 633 l 667 633 l 667 646 q 633 742 667 707 q 540 778 600 776 l 340 778 l 340 440 l 499 440 q 575 472 546 442 q 604 551 604 503 l 604 560 l 618 560 l 618 265 l 604 265 l 604 275 q 556 369 604 340 q 500 385 531 385 l 340 385 l 340 56 l 507 56 q 653 109 593 57 q 742 256 714 161 l 754 256 l 701 0 z "},"ê":{"ha":782,"x_min":47,"x_max":756,"o":"m 396 1133 l 411 1133 l 624 919 l 615 908 l 403 999 l 204 908 l 196 919 l 396 1133 m 701 0 l 47 0 l 47 14 l 64 14 q 117 35 96 14 q 140 86 139 56 l 140 747 q 117 799 139 778 q 64 819 96 819 l 47 819 l 47 833 l 536 833 q 618 840 574 833 q 681 854 663 847 l 681 633 l 667 633 l 667 646 q 633 742 667 707 q 540 778 600 776 l 340 778 l 340 440 l 499 440 q 575 472 546 442 q 604 550 604 503 l 604 560 l 618 560 l 618 265 l 604 265 l 604 275 q 556 369 604 340 q 500 385 531 385 l 340 385 l 340 56 l 507 56 q 653 109 593 57 q 742 256 714 161 l 754 256 l 701 0 z "},"ë":{"ha":782,"x_min":47,"x_max":756,"o":"m 299 940 q 286 927 299 940 q 240 915 274 915 q 181 940 206 915 q 156 999 156 964 q 181 1058 156 1033 q 240 1082 206 1082 q 299 1058 274 1082 q 324 999 324 1033 q 299 940 324 964 m 623 940 q 611 927 623 940 q 564 915 599 915 q 505 940 529 915 q 481 999 481 964 q 505 1058 481 1033 q 564 1082 529 1082 q 623 1058 599 1082 q 647 999 647 1033 q 623 940 647 964 m 701 0 l 47 0 l 47 14 l 64 14 q 117 35 96 14 q 140 86 139 56 l 140 747 q 117 799 139 778 q 64 819 96 819 l 47 819 l 47 833 l 536 833 q 618 840 574 833 q 681 854 663 847 l 681 633 l 667 633 l 667 646 q 633 742 667 707 q 540 778 600 776 l 340 778 l 340 440 l 499 440 q 575 472 546 442 q 604 550 604 503 l 604 560 l 618 560 l 618 265 l 604 265 l 604 275 q 556 369 604 340 q 500 385 531 385 l 340 385 l 340 56 l 507 56 q 653 109 593 57 q 742 256 714 161 l 754 256 l 701 0 z "},"ì":{"ha":472,"x_min":-35,"x_max":426,"o":"m 261 932 l 251 922 q -33 1047 113 956 q 61 1160 -4 1126 q 261 932 203 1035 m 425 0 l 47 0 l 47 14 l 63 14 q 115 35 93 14 q 136 88 136 57 l 136 746 q 115 798 136 776 q 63 819 93 819 l 47 819 l 47 833 l 425 833 l 425 819 l 411 819 q 359 799 381 819 q 336 746 338 778 l 336 88 q 359 35 338 56 q 411 14 381 14 l 425 14 l 425 0 z "},"í":{"ha":472,"x_min":47,"x_max":506,"o":"m 221 919 l 211 929 q 410 1158 271 1032 q 504 1044 478 1124 q 221 919 363 954 m 425 0 l 47 0 l 47 14 l 63 14 q 115 35 93 14 q 136 88 136 57 l 136 746 q 115 798 136 776 q 63 819 93 819 l 47 819 l 47 833 l 425 833 l 425 819 l 411 819 q 359 799 381 819 q 336 746 338 778 l 336 88 q 359 35 338 56 q 411 14 381 14 l 425 14 l 425 0 z "},"î":{"ha":472,"x_min":25,"x_max":454,"o":"m 226 1133 l 242 1133 l 454 919 l 444 908 l 233 999 l 35 908 l 25 919 l 226 1133 m 425 0 l 47 0 l 47 14 l 63 14 q 115 35 93 14 q 136 88 136 57 l 136 746 q 115 798 136 776 q 63 819 93 819 l 47 819 l 47 833 l 425 833 l 425 819 l 411 819 q 359 799 381 819 q 336 746 338 778 l 336 88 q 359 35 338 56 q 411 14 381 14 l 425 14 l 425 0 z "},"ï":{"ha":472,"x_min":-14,"x_max":478,"o":"m 153 999 q 153 981 153 999 q 128 940 153 964 q 76 915 104 915 q 28 926 47 915 q -14 992 -14 951 q 10 1058 -14 1033 q 69 1082 35 1082 q 128 1058 104 1082 q 153 999 153 1033 m 453 940 q 440 927 453 940 q 394 915 428 915 q 335 940 360 915 q 310 999 310 964 q 335 1058 310 1033 q 394 1082 360 1082 q 453 1058 428 1082 q 478 999 478 1033 q 453 940 478 964 m 425 0 l 47 0 l 47 14 l 63 14 q 115 35 93 14 q 136 88 136 57 l 136 746 q 115 798 136 776 q 63 819 93 819 l 47 819 l 47 833 l 425 833 l 425 819 l 411 819 q 359 799 381 819 q 336 746 338 778 l 336 88 q 359 35 338 56 q 411 14 381 14 l 425 14 l 425 0 z "},"ð":{"ha":1039,"x_min":44,"x_max":993,"o":"m 865 723 q 928 668 865 723 q 992 417 992 613 q 865 110 992 221 q 515 0 739 0 l 46 0 l 46 14 l 64 14 q 118 35 96 14 q 142 88 140 57 l 142 390 l 50 390 l 50 444 l 142 444 l 142 747 q 101 810 140 790 q 63 819 83 819 l 46 819 l 46 833 l 515 833 q 865 723 739 833 m 499 56 q 705 151 629 56 q 781 417 781 247 q 705 683 781 586 q 499 779 629 779 l 342 779 l 342 444 l 517 444 l 517 390 l 342 390 l 342 56 l 499 56 z "},"ñ":{"ha":1082,"x_min":29,"x_max":1054,"o":"m 750 1096 l 767 1096 q 769 1067 769 1081 q 742 981 769 1024 q 632 922 704 922 q 527 955 592 922 q 443 990 463 988 q 406 993 424 993 q 362 974 389 993 q 324 926 335 954 l 307 926 q 306 947 306 938 q 339 1055 306 1000 q 442 1110 372 1110 q 547 1075 479 1110 q 667 1040 614 1040 q 713 1057 685 1040 q 750 1096 740 1074 m 664 833 l 1054 833 l 1054 819 l 1031 819 q 977 800 999 819 q 954 750 956 781 l 954 143 q 965 1 954 57 l 968 -18 l 957 -18 l 318 544 l 318 85 q 357 24 319 43 q 394 14 374 14 l 418 14 l 418 0 l 29 0 l 29 14 l 51 14 q 106 34 83 14 q 128 85 128 54 l 128 696 q 117 833 128 779 l 114 853 l 126 851 l 763 292 l 763 749 q 725 810 763 790 q 688 819 708 819 l 664 819 l 664 833 z "},"ò":{"ha":1079,"x_min":47,"x_max":1032,"o":"m 567 933 l 557 922 q 272 1047 418 956 q 367 1161 300 1126 q 567 933 508 1035 m 49 417 q 49 517 49 417 q 183 734 49 617 q 540 851 317 851 q 897 734 763 851 q 1032 417 1032 617 q 897 99 1032 217 q 540 -18 763 -18 q 183 99 318 -18 q 49 417 49 217 m 261 417 q 261 329 261 417 q 337 140 261 242 q 540 38 413 38 q 742 140 667 38 q 818 417 818 242 q 742 694 818 592 q 540 796 667 796 q 337 694 413 796 q 261 417 261 592 z "},"ó":{"ha":1079,"x_min":47,"x_max":1032,"o":"m 526 921 l 517 931 q 715 1158 576 1033 q 810 1046 783 1124 q 526 921 667 954 m 49 417 q 49 517 49 417 q 183 734 49 617 q 540 851 317 851 q 897 734 763 851 q 1032 417 1032 617 q 897 99 1032 217 q 540 -18 763 -18 q 183 99 318 -18 q 49 417 49 217 m 261 417 q 261 329 261 417 q 337 140 261 242 q 540 38 413 38 q 742 140 667 38 q 818 417 818 242 q 742 694 818 592 q 540 796 667 796 q 337 694 413 796 q 261 417 261 592 z "},"ô":{"ha":1079,"x_min":47,"x_max":1032,"o":"m 532 1133 l 547 1133 l 760 921 l 750 910 l 539 1000 l 340 910 l 331 921 l 532 1133 m 49 417 q 49 517 49 417 q 183 734 49 617 q 540 851 317 851 q 897 734 763 851 q 1032 417 1032 617 q 897 99 1032 217 q 540 -18 763 -18 q 183 99 318 -18 q 49 417 49 217 m 261 417 q 261 329 261 417 q 337 140 261 242 q 540 38 413 38 q 742 140 667 38 q 818 417 818 242 q 742 694 818 592 q 540 796 667 796 q 337 694 413 796 q 261 417 261 592 z "},"õ":{"ha":1079,"x_min":47,"x_max":1032,"o":"m 774 1097 l 789 1097 q 793 1067 793 1082 q 765 982 793 1025 q 656 924 728 924 q 550 956 614 924 q 467 991 486 989 q 430 993 447 993 q 385 974 413 993 q 346 928 358 956 l 331 928 q 329 949 329 938 q 362 1056 329 1001 q 464 1110 394 1110 q 570 1076 503 1110 q 690 1042 638 1042 q 736 1058 708 1042 q 774 1097 764 1074 m 49 417 q 49 517 49 417 q 183 734 49 617 q 540 851 317 851 q 897 734 763 851 q 1032 417 1032 617 q 897 99 1032 217 q 540 -18 763 -18 q 183 99 318 -18 q 49 417 49 217 m 261 417 q 261 329 261 417 q 337 140 261 242 q 540 38 413 38 q 742 140 667 38 q 818 417 818 242 q 742 694 818 592 q 540 796 667 796 q 337 694 413 796 q 261 417 261 592 z "},"ö":{"ha":1079,"x_min":47,"x_max":1032,"o":"m 434 940 q 422 928 434 940 q 375 915 410 915 q 316 940 340 915 q 292 999 292 965 q 316 1058 292 1033 q 375 1083 340 1083 q 434 1058 410 1083 q 458 999 458 1033 q 434 940 458 965 m 758 940 q 746 928 758 940 q 699 915 733 915 q 640 940 665 915 q 615 999 615 965 q 640 1058 615 1033 q 699 1083 665 1083 q 758 1058 733 1083 q 783 999 783 1033 q 758 940 783 965 m 49 417 q 49 517 49 417 q 183 734 49 617 q 540 851 317 851 q 897 734 763 851 q 1032 417 1032 617 q 897 99 1032 217 q 540 -18 763 -18 q 183 99 318 -18 q 49 417 49 217 m 261 417 q 261 329 261 417 q 337 140 261 242 q 540 38 413 38 q 742 140 667 38 q 818 417 818 242 q 742 694 818 592 q 540 796 667 796 q 337 694 413 796 q 261 417 261 592 z "},"÷":{"ha":668,"x_min":56,"x_max":614,"o":"m 378 606 q 369 597 378 606 q 334 588 360 588 q 290 606 308 588 q 271 650 271 624 q 290 695 271 676 q 334 714 308 714 q 378 695 360 714 q 397 650 397 676 q 378 606 397 624 m 56 390 l 56 469 l 614 469 l 614 390 l 56 390 m 378 167 q 369 158 378 167 q 334 149 360 149 q 290 167 308 149 q 271 211 271 185 q 290 256 271 238 q 334 275 308 275 q 378 256 360 275 q 397 211 397 238 q 378 167 397 185 z "},"ø":{"ha":1079,"x_min":47,"x_max":1032,"o":"m 1032 417 q 897 99 1032 217 q 539 -18 763 -18 q 257 49 376 -18 l 182 -40 l 132 1 l 201 85 q 49 410 49 203 q 183 734 49 617 q 539 851 317 851 q 799 796 686 851 l 875 886 l 925 844 l 857 763 q 986 617 940 706 q 1032 417 1032 528 m 728 711 q 533 796 654 796 q 337 694 413 796 q 261 417 261 592 q 300 203 261 293 l 728 711 m 335 142 q 539 38 411 38 q 742 140 667 38 q 818 400 818 242 q 767 656 818 558 l 335 142 z "},"ù":{"ha":978,"x_min":38,"x_max":951,"o":"m 553 932 l 543 922 q 260 1047 404 956 q 353 1160 286 1126 q 553 932 494 1033 m 951 819 l 932 819 q 888 803 906 819 q 868 763 869 788 l 868 303 q 776 67 868 153 q 503 -18 685 -18 q 222 65 322 -18 q 121 300 121 149 l 121 761 q 102 803 121 786 q 57 819 83 819 l 38 819 l 38 833 l 403 833 l 403 819 l 383 819 q 339 803 357 819 q 321 761 321 786 l 321 310 q 380 110 321 182 q 546 38 439 38 q 715 106 653 38 q 776 294 776 174 l 776 761 q 757 803 775 788 q 713 819 739 819 l 694 819 l 694 833 l 951 833 l 951 819 z "},"ú":{"ha":978,"x_min":38,"x_max":951,"o":"m 513 919 l 503 929 q 703 1157 563 1032 q 796 1044 769 1122 q 513 919 654 954 m 951 819 l 932 819 q 888 803 906 819 q 868 763 869 788 l 868 303 q 776 67 868 153 q 503 -18 685 -18 q 222 65 322 -18 q 121 300 121 149 l 121 761 q 102 803 121 786 q 57 819 83 819 l 38 819 l 38 833 l 403 833 l 403 819 l 383 819 q 339 803 357 819 q 321 761 321 786 l 321 310 q 380 110 321 182 q 546 38 439 38 q 715 106 653 38 q 776 294 776 174 l 776 761 q 757 803 775 788 q 713 819 739 819 l 694 819 l 694 833 l 951 833 l 951 819 z "},"û":{"ha":978,"x_min":38,"x_max":951,"o":"m 518 1132 l 533 1132 l 746 919 l 736 908 l 525 999 l 326 908 l 318 919 l 518 1132 m 951 819 l 932 819 q 878 792 896 819 q 868 763 868 779 l 868 303 q 776 67 868 153 q 503 -18 685 -18 q 222 65 322 -18 q 121 300 121 149 l 121 761 q 102 803 121 786 q 57 819 83 819 l 38 819 l 38 833 l 403 833 l 403 819 l 383 819 q 339 803 357 819 q 321 761 321 786 l 321 310 q 380 110 321 182 q 546 38 439 38 q 715 106 653 38 q 776 294 776 174 l 776 761 q 757 803 775 788 q 713 819 739 819 l 694 819 l 694 833 l 951 833 l 951 819 z "},"ü":{"ha":978,"x_min":38,"x_max":951,"o":"m 420 940 q 408 927 420 940 q 361 915 396 915 q 302 940 326 915 q 278 999 278 964 q 302 1058 278 1033 q 361 1082 326 1082 q 420 1058 396 1082 q 444 999 444 1033 q 420 940 444 964 m 745 940 q 733 927 745 940 q 686 915 721 915 q 627 940 651 915 q 603 999 603 964 q 627 1058 603 1033 q 686 1082 651 1082 q 745 1058 721 1082 q 769 999 769 1033 q 745 940 769 964 m 951 819 l 932 819 q 888 803 906 819 q 868 763 869 788 l 868 303 q 776 67 868 153 q 503 -18 685 -18 q 222 65 322 -18 q 121 300 121 149 l 121 761 q 102 803 121 786 q 57 819 83 819 l 38 819 l 38 833 l 403 833 l 403 819 l 383 819 q 339 803 357 819 q 321 761 321 786 l 321 310 q 380 110 321 182 q 546 38 439 38 q 715 106 653 38 q 776 294 776 174 l 776 761 q 757 803 775 788 q 713 819 739 819 l 694 819 l 694 833 l 951 833 l 951 819 z "},"ý":{"ha":882,"x_min":-43,"x_max":929,"o":"m 482 919 l 472 929 q 672 1157 532 1032 q 767 1044 740 1122 q 482 919 624 954 m 929 819 l 911 819 q 842 800 875 819 q 789 751 810 781 l 542 371 l 542 88 q 565 35 543 57 q 621 14 588 14 l 636 14 l 636 0 l 247 0 l 247 14 l 264 14 q 318 35 296 14 q 342 88 340 57 l 342 371 l 96 751 q 44 801 76 782 q -26 819 11 819 l -43 819 l -43 833 l 379 833 l 379 819 l 364 819 q 326 802 338 819 q 314 773 314 785 q 319 751 314 761 l 504 432 l 692 751 q 696 773 696 761 q 684 802 696 785 q 646 819 672 819 l 632 819 l 632 833 l 929 833 l 929 819 z "},"þ":{"ha":793,"x_min":60,"x_max":789,"o":"m 788 421 q 754 288 788 349 q 547 169 686 169 q 392 218 464 169 l 392 229 q 507 264 453 222 q 574 371 554 300 q 582 421 582 401 q 582 444 582 440 q 535 567 579 522 q 414 611 490 611 l 349 611 l 349 88 q 386 24 350 44 q 424 14 404 14 l 440 14 l 440 0 l 60 0 l 61 14 l 76 14 q 130 35 108 14 q 153 88 151 57 l 153 747 q 130 799 151 778 q 76 819 108 819 l 61 819 l 60 833 l 440 833 l 440 819 l 424 819 q 360 785 381 819 q 349 747 349 768 l 349 665 l 467 665 q 704 601 625 665 q 788 421 788 535 z "},"ÿ":{"ha":882,"x_min":-44,"x_max":929,"o":"m 391 940 q 379 927 391 940 q 332 915 367 915 q 273 940 297 915 q 249 999 249 964 q 273 1058 249 1033 q 332 1082 297 1082 q 391 1058 367 1082 q 415 999 415 1033 q 391 940 415 964 m 715 940 q 702 927 715 940 q 656 915 690 915 q 597 940 621 915 q 572 999 572 964 q 597 1058 572 1033 q 656 1082 621 1082 q 715 1058 690 1082 q 739 999 739 1033 q 715 940 739 964 m 929 819 l 911 819 q 789 751 836 819 l 542 371 l 542 88 q 565 35 543 57 q 621 14 588 14 l 636 14 l 636 0 l 247 0 l 247 14 l 264 14 q 331 50 308 14 q 342 88 340 67 l 342 371 l 96 751 q 44 801 76 782 q -26 819 11 819 l -43 819 l -43 833 l 379 833 l 379 819 l 364 819 q 326 802 338 819 q 314 773 314 785 q 319 751 314 761 l 504 432 l 692 751 q 696 773 696 761 q 684 802 696 785 q 646 819 672 819 l 632 819 l 632 833 l 929 833 l 929 819 z "},"Ā":{"ha":994,"x_min":-40,"x_max":1036,"o":"m 303 1104 l 303 1196 l 683 1196 l 683 1104 l 303 1104 m 1024 14 l 1036 14 l 1036 0 l 593 0 l 593 14 l 606 14 q 651 33 636 14 q 665 68 665 51 q 658 101 665 85 l 590 272 l 265 272 l 193 101 q 186 67 186 83 q 201 33 186 51 q 247 14 215 14 l 258 14 l 258 0 l -39 0 l -39 14 l -26 14 q 38 33 6 14 q 90 92 69 53 l 411 818 q 481 1000 476 956 l 493 1000 l 906 94 q 958 34 926 54 q 1024 14 990 14 m 289 331 l 567 331 l 432 672 l 289 331 z "},"ā":{"ha":894,"x_min":-37,"x_max":935,"o":"m 251 965 l 251 1057 l 632 1057 l 632 965 l 251 965 m 924 14 l 935 14 l 935 0 l 526 0 l 526 14 l 538 14 q 578 31 565 14 q 590 61 590 47 q 585 92 590 75 l 531 218 l 236 218 l 181 89 q 206 18 161 38 q 229 14 217 14 l 240 14 l 240 0 l -37 0 l -37 14 l -26 14 q 32 32 3 14 q 79 86 61 50 l 367 703 q 431 872 428 840 l 443 872 l 815 92 q 863 33 833 51 q 924 14 893 14 m 260 272 l 507 272 l 385 563 l 260 272 z "},"Ă":{"ha":994,"x_min":-40,"x_max":1036,"o":"m 665 1228 q 617 1115 665 1168 q 488 1061 568 1061 q 360 1115 408 1061 q 313 1228 313 1168 q 315 1256 313 1242 l 331 1256 q 390 1197 346 1221 q 488 1172 433 1172 q 588 1197 543 1172 q 647 1256 632 1221 l 663 1256 q 665 1228 665 1242 m 958 34 q 974 24 958 34 q 1024 14 990 14 l 1036 14 l 1036 0 l 593 0 l 593 14 l 606 14 q 651 33 636 14 q 665 68 665 51 q 658 101 665 85 l 590 272 l 265 272 l 193 101 q 186 72 186 83 q 191 48 186 61 q 212 24 196 35 q 247 14 228 14 l 258 14 l 258 0 l -39 0 l -39 14 l -26 14 q 38 33 6 14 q 90 92 69 53 l 411 818 q 481 1000 476 956 l 493 1000 l 906 94 q 958 34 926 54 m 289 331 l 567 331 l 432 672 l 289 331 z "},"ă":{"ha":894,"x_min":-37,"x_max":935,"o":"m 614 1089 q 565 976 614 1029 q 438 922 517 922 q 343 949 386 922 q 281 1015 300 976 q 263 1079 263 1054 q 264 1117 263 1104 l 281 1117 q 339 1058 294 1082 q 438 1033 383 1033 q 538 1058 493 1033 q 596 1117 582 1082 l 613 1117 q 614 1089 614 1103 m 863 33 q 878 23 863 33 q 924 14 893 14 l 935 14 l 935 0 l 526 0 l 526 14 l 538 14 q 578 31 565 14 q 590 61 590 47 q 585 90 590 75 l 531 218 l 236 218 l 181 89 q 206 18 161 38 q 229 14 217 14 l 240 14 l 240 0 l -37 0 l -37 14 l -26 14 q 32 32 3 14 q 79 86 61 50 l 367 703 q 431 872 428 840 l 443 872 l 815 92 q 863 33 833 51 m 260 272 l 507 272 l 385 563 l 260 272 z "},"Ą":{"ha":1008,"x_min":-40,"x_max":1050,"o":"m 757 0 q 668 -100 668 -18 q 695 -163 668 -137 q 760 -189 722 -189 q 831 -158 797 -189 l 839 -167 q 801 -240 832 -212 q 726 -269 767 -269 q 589 -206 628 -269 q 569 -135 569 -174 q 593 -56 569 -83 q 649 -10 617 -29 q 686 39 686 14 q 674 96 686 64 l 601 272 l 268 272 l 193 101 q 186 67 186 83 q 201 33 186 51 q 247 14 215 14 l 258 14 l 258 0 l -39 0 l -39 14 l -26 14 q 42 36 8 14 q 94 101 75 58 l 419 810 q 488 992 483 947 l 500 992 l 918 99 q 1038 15 953 25 l 1049 14 l 1049 0 q 970 4 1033 0 q 879 8 907 8 q 757 0 796 8 m 293 331 l 576 331 l 438 668 l 293 331 z "},"ą":{"ha":878,"x_min":-35,"x_max":925,"o":"m 560 -96 q 587 -169 560 -143 q 651 -194 614 -194 q 722 -164 688 -194 l 731 -172 q 644 -271 719 -250 q 601 -276 622 -276 q 507 -241 553 -276 q 461 -140 461 -206 q 490 -54 461 -85 q 553 -6 518 -24 q 597 47 597 17 q 588 96 597 65 l 533 222 l 236 222 l 178 90 q 172 60 172 75 q 185 30 172 46 q 225 14 199 14 l 236 14 l 236 0 l -33 0 l -33 14 l -22 14 q 37 32 8 14 q 85 88 65 50 l 368 696 q 432 863 428 829 l 443 863 l 813 86 q 867 29 832 47 q 924 11 903 11 l 924 -3 l 765 4 q 642 -6 685 4 q 560 -96 560 -25 m 260 276 l 511 276 l 388 571 l 260 276 z "},"Ć":{"ha":1083,"x_min":61,"x_max":1017,"o":"m 581 1058 l 571 1068 q 771 1296 631 1171 q 865 1183 839 1261 q 581 1058 722 1093 m 636 -19 q 502 -18 636 -19 q 215 117 368 -18 q 63 486 63 251 q 214 856 63 721 q 629 992 365 992 q 975 917 831 992 l 978 678 l 967 678 q 643 933 896 933 q 384 815 479 933 q 289 490 289 696 q 380 164 289 285 q 626 39 471 43 q 874 122 789 39 q 992 406 960 204 l 1003 406 l 1017 167 q 636 -19 904 -19 z "},"ć":{"ha":947,"x_min":46,"x_max":897,"o":"m 511 932 l 501 942 q 701 1171 561 1044 q 796 1057 768 1136 q 511 932 653 967 m 547 -18 q 181 98 314 -17 q 47 417 47 213 q 180 736 47 621 q 547 851 313 851 q 860 788 731 851 l 860 567 l 850 567 q 743 743 815 690 q 561 796 671 796 q 336 695 414 796 q 258 420 258 594 q 335 143 258 246 q 550 38 414 38 q 713 68 649 38 q 814 166 776 99 q 869 349 851 233 l 879 349 l 896 139 q 765 25 853 68 q 547 -18 676 -18 z "},"Ċ":{"ha":1083,"x_min":61,"x_max":1017,"o":"m 656 1086 q 643 1074 656 1086 q 595 1061 631 1061 q 534 1086 560 1061 q 508 1147 508 1111 q 534 1208 508 1182 q 595 1233 560 1233 q 656 1208 631 1233 q 681 1147 681 1182 q 656 1086 681 1111 m 636 -19 q 502 -18 636 -19 q 215 117 368 -18 q 63 486 63 251 q 214 856 63 721 q 629 992 365 992 q 975 917 831 992 l 978 678 l 967 678 q 643 933 896 933 q 384 815 479 933 q 289 490 289 696 q 380 164 289 285 q 626 39 471 43 q 872 119 788 39 q 992 406 958 203 l 1003 406 l 1017 167 q 636 -19 904 -19 z "},"ċ":{"ha":947,"x_min":46,"x_max":897,"o":"m 585 961 q 572 949 585 961 q 524 936 560 936 q 464 961 489 936 q 439 1022 439 986 q 464 1082 439 1057 q 524 1107 489 1107 q 585 1082 560 1107 q 610 1022 610 1057 q 585 961 610 986 m 547 -18 q 181 98 314 -17 q 47 417 47 213 q 180 736 47 621 q 547 851 313 851 q 860 788 731 851 l 860 567 l 850 567 q 743 743 815 690 q 561 796 671 796 q 336 695 414 796 q 258 420 258 594 q 335 143 258 246 q 556 38 414 38 q 770 108 697 38 q 869 349 843 179 l 879 349 l 896 139 q 765 25 853 68 q 547 -18 676 -18 z "},"Č":{"ha":1083,"x_min":61,"x_max":1017,"o":"m 604 1061 l 588 1061 l 383 1274 l 393 1285 l 597 1194 l 786 1285 l 796 1274 l 604 1061 m 636 -19 q 502 -18 636 -19 q 215 117 368 -18 q 63 486 63 251 q 214 856 63 721 q 629 992 365 992 q 975 917 831 992 l 978 678 l 967 678 q 643 933 896 933 q 384 815 479 933 q 289 490 289 696 q 380 164 289 285 q 626 39 471 43 q 872 119 788 39 q 992 406 958 203 l 1003 406 l 1017 167 q 636 -19 904 -19 z "},"č":{"ha":947,"x_min":46,"x_max":897,"o":"m 533 935 l 518 935 l 314 1149 l 322 1160 l 526 1069 l 717 1158 l 726 1147 l 533 935 m 547 -18 q 181 98 314 -17 q 47 417 47 213 q 180 736 47 621 q 547 851 313 851 q 860 788 731 851 l 860 567 l 850 567 q 743 743 815 690 q 561 796 671 796 q 336 695 414 796 q 258 420 258 594 q 335 143 258 246 q 556 38 414 38 q 770 108 697 38 q 869 349 843 179 l 879 349 l 896 139 q 765 25 853 68 q 547 -18 676 -18 z "},"Ď":{"ha":1150,"x_min":57,"x_max":1096,"o":"m 582 1061 l 565 1061 l 361 1274 l 371 1285 l 575 1194 l 764 1285 l 774 1274 l 582 1061 m 563 972 q 951 842 808 972 q 1094 486 1094 711 q 951 131 1094 261 q 563 0 808 0 l 58 0 l 58 14 l 76 14 q 138 40 113 14 q 165 101 164 65 l 165 879 q 138 935 165 913 q 76 958 111 958 l 58 958 l 58 972 l 563 972 m 544 60 q 717 111 644 60 q 829 259 790 163 q 868 460 868 356 q 853 631 868 564 q 811 751 839 699 q 744 839 783 803 q 544 914 665 914 l 374 914 l 374 60 l 544 60 z "},"ď":{"ha":1039,"x_min":44,"x_max":993,"o":"m 524 924 l 507 924 l 303 1136 l 313 1147 l 517 1057 l 706 1147 l 715 1136 l 524 924 m 865 723 q 928 668 865 723 q 992 417 992 613 q 865 110 992 221 q 515 0 739 0 l 46 0 l 46 14 l 64 14 q 118 36 96 14 q 142 89 140 58 l 142 747 q 117 799 139 778 q 63 819 94 819 l 46 819 l 46 833 l 515 833 q 865 723 739 833 m 499 56 q 705 151 629 56 q 781 417 781 247 q 705 683 781 586 q 499 779 629 779 l 342 779 l 342 56 l 499 56 z "},"Đ":{"ha":1150,"x_min":57,"x_max":1096,"o":"m 386 1104 l 386 1196 l 768 1196 l 768 1104 l 386 1104 m 563 972 q 951 842 808 972 q 1094 486 1094 711 q 951 131 1094 261 q 563 0 808 0 l 58 0 l 58 14 l 76 14 q 138 40 113 14 q 165 101 164 65 l 165 879 q 138 935 165 913 q 76 958 111 958 l 58 958 l 58 972 l 563 972 m 544 60 q 717 111 644 60 q 829 259 790 163 q 868 486 868 356 q 781 799 868 683 q 544 914 694 914 l 374 914 l 374 60 l 544 60 z "},"đ":{"ha":1039,"x_min":44,"x_max":993,"o":"m 328 967 l 328 1058 l 710 1058 l 710 967 l 328 967 m 865 723 q 928 668 865 723 q 992 417 992 613 q 865 110 992 221 q 515 0 739 0 l 46 0 l 46 14 l 64 14 q 118 36 96 14 q 142 89 140 58 l 142 747 q 117 799 139 778 q 63 819 94 819 l 46 819 l 46 833 l 515 833 q 865 723 739 833 m 499 56 q 705 151 629 56 q 781 417 781 247 q 705 683 781 586 q 499 779 629 779 l 342 779 l 342 56 l 499 56 z "},"Ē":{"ha":876,"x_min":57,"x_max":842,"o":"m 263 1104 l 263 1196 l 643 1196 l 643 1104 l 263 1104 m 76 14 q 138 40 113 14 q 165 101 164 65 l 165 875 q 144 928 163 911 q 76 958 111 958 l 58 958 l 58 972 l 590 972 q 685 981 633 972 q 757 997 736 989 l 757 754 l 743 756 l 743 771 q 679 893 743 857 q 607 913 649 911 l 374 913 l 374 508 l 557 508 q 642 544 608 510 q 675 628 675 578 l 675 640 l 689 640 l 689 319 l 675 319 l 675 331 q 642 415 675 382 q 560 450 610 449 l 374 450 l 374 60 l 556 60 q 726 118 657 60 q 828 283 794 176 l 842 283 l 778 0 l 58 0 l 58 14 l 76 14 z "},"ē":{"ha":782,"x_min":47,"x_max":756,"o":"m 218 967 l 218 1057 l 599 1057 l 599 967 l 218 967 m 701 0 l 47 0 l 47 14 l 64 14 q 117 35 96 14 q 140 86 139 56 l 140 747 q 117 799 139 778 q 64 819 96 819 l 47 819 l 47 833 l 536 833 q 618 840 574 833 q 681 854 663 847 l 681 633 l 667 633 l 667 646 q 633 742 667 707 q 540 778 600 776 l 340 778 l 340 440 l 499 440 q 575 472 546 442 q 604 550 604 503 l 604 560 l 618 560 l 618 265 l 604 265 l 604 275 q 556 369 604 340 q 500 385 531 385 l 340 385 l 340 56 l 507 56 q 653 109 593 57 q 742 256 714 161 l 754 256 l 701 0 z "},"Ė":{"ha":876,"x_min":57,"x_max":842,"o":"m 508 1086 q 496 1074 508 1086 q 448 1061 483 1061 q 388 1086 413 1061 q 363 1147 363 1111 q 388 1208 363 1182 q 448 1233 413 1233 q 508 1208 483 1233 q 533 1147 533 1182 q 508 1086 533 1111 m 76 14 q 138 40 113 14 q 165 101 164 65 l 165 875 q 144 928 163 910 q 76 958 111 958 l 58 958 l 58 972 l 590 972 q 703 983 658 972 q 757 997 747 993 l 757 754 l 743 756 l 743 771 q 706 872 743 833 q 607 913 669 910 l 374 913 l 374 508 l 557 508 q 642 544 608 510 q 675 628 675 578 l 675 640 l 689 640 l 689 319 l 675 319 l 675 331 q 642 415 675 382 q 560 450 610 449 l 374 450 l 374 60 l 556 60 q 726 118 657 60 q 828 283 794 176 l 842 283 l 778 0 l 58 0 l 58 14 l 76 14 z "},"ė":{"ha":782,"x_min":47,"x_max":756,"o":"m 464 948 q 451 935 464 948 q 403 922 439 922 q 343 948 368 922 q 318 1009 318 974 q 343 1069 318 1044 q 403 1094 368 1094 q 464 1069 439 1094 q 489 1009 489 1044 q 464 948 489 974 m 701 0 l 47 0 l 47 14 l 64 14 q 117 35 96 14 q 140 86 139 56 l 140 747 q 117 799 139 778 q 64 819 96 819 l 47 819 l 47 833 l 536 833 q 618 840 574 833 q 681 854 663 847 l 681 633 l 667 633 l 667 646 q 633 742 667 707 q 540 778 600 776 l 340 778 l 340 440 l 499 440 q 575 472 546 442 q 604 551 604 503 l 604 560 l 618 560 l 618 265 l 604 265 l 604 275 q 556 369 604 340 q 500 385 531 385 l 340 385 l 340 56 l 507 56 q 653 109 593 57 q 742 256 714 161 l 754 256 l 701 0 z "},"Ę":{"ha":876,"x_min":57,"x_max":851,"o":"m 742 -278 q 717 -278 738 -278 q 662 -265 697 -278 q 605 -216 626 -251 q 583 -140 583 -181 q 620 -44 583 -78 q 706 0 657 -10 l 58 0 l 58 14 l 76 14 q 138 40 113 14 q 165 101 164 65 l 165 875 q 144 928 163 910 q 76 958 111 958 l 58 958 l 58 972 l 590 972 q 697 982 651 972 q 757 997 743 992 l 757 754 l 743 756 l 743 771 q 706 872 743 833 q 607 913 669 910 l 374 913 l 374 508 l 557 508 q 642 544 608 510 q 675 628 675 578 l 675 640 l 689 640 l 689 319 l 675 319 l 675 331 q 642 415 675 382 q 560 450 610 449 l 374 450 l 374 60 l 556 60 q 726 118 657 60 q 828 283 794 176 l 842 283 l 776 0 q 681 -100 681 -22 q 738 -192 681 -169 q 769 -199 754 -199 q 842 -167 806 -199 l 850 -175 q 812 -249 843 -221 q 742 -278 781 -276 z "},"ę":{"ha":782,"x_min":47,"x_max":771,"o":"m 661 -278 q 638 -278 657 -278 q 582 -265 618 -278 q 524 -216 546 -251 q 503 -140 503 -181 q 539 -44 503 -78 q 625 0 575 -10 l 47 0 l 47 14 l 64 14 q 117 35 96 14 q 140 86 139 56 l 140 747 q 117 799 139 778 q 64 819 96 819 l 47 819 l 47 833 l 536 833 q 618 840 574 833 q 681 854 663 847 l 681 633 l 667 633 l 667 646 q 633 742 667 707 q 540 778 600 776 l 340 778 l 340 440 l 499 440 q 575 472 546 442 q 604 550 604 503 l 604 560 l 618 560 l 618 265 l 604 265 l 604 275 q 556 369 604 340 q 500 385 531 385 l 340 385 l 340 56 l 507 56 q 653 109 593 57 q 742 256 714 161 l 754 256 l 701 0 l 694 0 q 601 -100 601 -22 q 658 -192 601 -169 q 690 -199 674 -199 q 763 -167 726 -199 l 771 -175 q 733 -249 764 -221 q 661 -278 701 -276 z "},"Ě":{"ha":876,"x_min":57,"x_max":842,"o":"m 457 1061 l 442 1061 l 236 1274 l 246 1285 l 450 1194 l 640 1285 l 650 1274 l 457 1061 m 76 14 q 138 40 113 14 q 165 101 164 65 l 165 875 q 144 928 163 911 q 76 958 111 958 l 58 958 l 58 972 l 590 972 q 697 982 651 972 q 757 997 743 992 l 757 754 l 743 756 l 743 771 q 679 893 743 857 q 607 913 649 911 l 374 913 l 374 508 l 557 508 q 642 544 608 510 q 675 628 675 578 l 675 640 l 689 640 l 689 319 l 675 319 l 675 331 q 619 433 675 400 q 560 450 592 449 l 374 450 l 374 60 l 556 60 q 726 118 657 60 q 828 283 794 176 l 842 283 l 778 0 l 58 0 l 58 14 l 76 14 z "},"ě":{"ha":782,"x_min":47,"x_max":756,"o":"m 413 922 l 397 922 l 193 1136 l 201 1147 l 406 1056 l 596 1146 l 606 1135 l 413 922 m 701 0 l 47 0 l 47 14 l 64 14 q 117 35 96 14 q 140 86 139 56 l 140 747 q 117 799 139 778 q 64 819 96 819 l 47 819 l 47 833 l 536 833 q 618 840 574 833 q 681 854 663 847 l 681 633 l 667 633 l 667 646 q 633 742 667 707 q 540 778 600 776 l 340 778 l 340 440 l 499 440 q 575 472 546 442 q 604 551 604 503 l 604 560 l 618 560 l 618 265 l 604 265 l 604 275 q 556 369 604 340 q 500 385 531 385 l 340 385 l 340 56 l 507 56 q 653 109 593 57 q 742 256 714 161 l 754 256 l 701 0 z "},"Ğ":{"ha":1161,"x_min":61,"x_max":1139,"o":"m 764 1228 q 715 1115 764 1168 q 588 1061 667 1061 q 460 1115 508 1061 q 413 1228 413 1168 q 414 1256 413 1242 l 431 1256 q 489 1197 444 1221 q 588 1172 533 1172 q 688 1197 643 1172 q 746 1256 732 1221 l 763 1256 q 764 1228 764 1242 m 1138 451 l 1117 451 q 1065 435 1083 451 q 1047 389 1047 419 l 1047 160 q 790 8 971 60 q 588 -19 693 -19 q 206 117 350 -19 q 63 487 63 254 q 206 856 63 719 q 596 992 350 992 q 811 970 707 992 q 979 917 915 949 l 982 678 l 969 678 q 846 873 933 813 q 638 933 758 933 q 379 813 469 933 q 289 484 289 693 q 372 157 289 275 q 606 39 454 39 q 751 76 685 39 q 842 176 817 113 l 842 389 q 823 435 842 419 q 769 451 804 451 l 747 451 l 747 465 l 1138 465 l 1138 451 z "},"ğ":{"ha":1014,"x_min":47,"x_max":1001,"o":"m 690 1099 q 642 985 690 1039 q 514 932 593 932 q 381 992 433 932 q 339 1101 339 1039 q 340 1126 339 1114 l 357 1126 q 444 1056 376 1079 q 505 1044 478 1044 q 550 1047 532 1044 q 584 1056 568 1050 q 614 1069 600 1061 q 639 1085 628 1076 q 672 1126 663 1104 l 688 1126 q 690 1099 690 1113 m 172 99 q 109 157 172 99 q 47 418 47 215 q 172 736 47 621 q 514 851 296 851 q 733 829 646 851 q 858 788 819 807 l 858 567 l 847 567 q 556 796 786 796 q 335 695 411 796 q 260 415 260 594 q 328 135 260 235 q 524 36 397 36 q 649 69 593 36 q 722 164 704 103 l 724 331 q 708 372 724 357 q 663 386 692 386 l 643 386 l 643 397 l 1000 397 l 1000 386 l 983 386 q 922 331 922 386 l 922 144 q 686 7 853 56 q 506 -18 599 -18 q 172 99 296 -17 z "},"Ġ":{"ha":1161,"x_min":61,"x_max":1139,"o":"m 648 1086 q 635 1074 648 1086 q 587 1061 622 1061 q 526 1086 551 1061 q 501 1147 501 1111 q 526 1208 501 1182 q 587 1233 551 1233 q 648 1208 622 1233 q 674 1147 674 1182 q 648 1086 674 1111 m 1138 451 l 1117 451 q 1065 435 1083 451 q 1047 389 1047 419 l 1047 160 q 790 8 971 60 q 588 -19 693 -19 q 206 117 350 -19 q 63 487 63 254 q 206 856 63 719 q 596 992 350 992 q 811 970 707 992 q 979 917 915 949 l 982 678 l 969 678 q 846 873 933 813 q 638 933 758 933 q 379 813 469 933 q 289 484 289 693 q 372 157 289 275 q 606 39 454 39 q 789 101 715 39 q 842 176 825 133 l 842 389 q 823 435 842 419 q 769 451 804 451 l 747 451 l 747 465 l 1138 465 l 1138 451 z "},"ġ":{"ha":1014,"x_min":47,"x_max":1001,"o":"m 574 958 q 561 945 574 958 q 513 932 549 932 q 453 958 478 932 q 428 1019 428 983 q 453 1079 428 1054 q 513 1104 478 1104 q 574 1079 549 1104 q 599 1019 599 1054 q 574 958 599 983 m 172 99 q 109 157 172 99 q 47 418 47 215 q 172 736 47 621 q 514 851 296 851 q 706 834 611 851 q 858 788 800 817 l 858 567 l 847 567 q 556 796 786 796 q 335 695 411 796 q 260 415 260 594 q 328 136 260 235 q 524 38 397 38 q 649 70 593 38 q 722 164 704 103 l 724 331 q 708 372 724 357 q 663 386 692 386 l 643 386 l 643 397 l 1000 397 l 1000 386 l 983 386 q 922 331 922 386 l 922 144 q 758 32 874 82 q 506 -18 643 -18 q 172 99 296 -17 z "},"Ģ":{"ha":1161,"x_min":61,"x_max":1139,"o":"m 1138 451 l 1117 451 q 1065 435 1083 451 q 1047 389 1047 419 l 1047 160 q 868 35 993 89 q 588 -19 743 -19 q 206 117 350 -19 q 63 487 63 254 q 206 856 63 719 q 596 992 350 992 q 811 970 707 992 q 979 917 915 949 l 982 678 l 969 678 q 846 873 933 813 q 638 933 758 933 q 379 813 469 933 q 289 484 289 693 q 372 157 289 275 q 606 39 454 39 q 789 101 715 39 q 842 176 825 133 l 842 389 q 823 435 842 419 q 769 451 804 451 l 747 451 l 747 465 l 1138 465 l 1138 451 m 532 -332 q 579 -269 579 -315 q 557 -216 579 -243 q 535 -158 535 -189 q 553 -108 535 -128 q 589 -89 571 -89 q 672 -137 651 -89 q 685 -196 685 -171 q 626 -319 685 -275 q 553 -344 592 -344 q 536 -343 544 -344 l 532 -332 z "},"ģ":{"ha":1014,"x_min":47,"x_max":1001,"o":"m 172 99 q 109 157 172 99 q 47 418 47 215 q 172 736 47 621 q 514 851 296 851 q 733 829 646 851 q 858 788 819 807 l 858 567 l 847 567 q 556 796 786 796 q 278 574 338 796 q 260 410 260 501 q 328 136 260 235 q 524 38 397 38 q 649 70 593 38 q 722 164 704 103 l 724 331 q 708 372 724 357 q 663 386 692 386 l 643 386 l 643 397 l 1000 397 l 1000 386 l 983 386 q 922 331 922 386 l 922 144 q 758 32 874 82 q 506 -18 643 -18 q 172 99 296 -17 m 446 -332 q 494 -269 494 -315 q 472 -216 494 -243 q 449 -158 449 -189 q 467 -108 449 -128 q 503 -89 485 -89 q 586 -137 565 -89 q 599 -196 599 -171 q 540 -319 599 -275 q 467 -344 506 -344 q 450 -343 458 -344 l 446 -332 z "},"Ħ":{"ha":1176,"x_min":47,"x_max":1131,"o":"m 725 14 q 787 39 761 14 q 814 100 813 64 l 814 454 l 364 454 l 364 101 q 390 40 364 65 q 453 14 417 14 l 471 14 l 471 0 l 49 0 l 49 14 l 67 14 q 128 40 103 14 q 156 101 154 65 l 156 683 l 67 683 l 67 742 l 156 742 l 156 872 q 128 933 154 908 q 67 958 103 958 l 49 958 l 49 972 l 471 972 l 471 958 l 453 958 q 391 933 417 958 q 364 872 365 908 l 364 742 l 814 742 l 814 872 q 787 933 813 908 q 725 958 761 958 l 707 958 l 707 972 l 1129 972 l 1129 958 l 1111 958 q 1049 933 1075 958 q 1022 871 1024 907 l 1022 742 l 1115 742 l 1115 683 l 1022 683 l 1022 101 q 1049 40 1024 65 q 1111 14 1075 14 l 1129 14 l 1129 0 l 707 0 l 707 14 l 725 14 m 364 514 l 814 514 l 814 683 l 364 683 l 364 514 z "},"ħ":{"ha":1043,"x_min":47,"x_max":997,"o":"m 904 638 l 994 638 l 994 583 l 904 583 l 904 86 q 942 24 906 43 q 981 14 960 14 l 996 14 l 996 0 l 614 0 l 614 14 l 629 14 q 682 35 660 14 q 706 88 704 56 l 706 388 l 339 388 l 339 88 q 363 35 340 56 q 415 14 385 14 l 431 14 l 431 0 l 47 0 l 47 14 l 63 14 q 117 35 94 14 q 139 88 139 57 l 139 583 l 53 583 l 53 638 l 139 638 l 139 746 q 117 798 139 776 q 63 819 94 819 l 47 819 l 47 833 l 431 833 l 431 819 l 415 819 q 363 799 385 819 q 339 747 340 778 l 339 638 l 704 638 l 704 746 q 667 810 704 789 q 628 819 649 819 l 614 819 l 614 833 l 996 833 l 996 819 l 981 819 q 928 799 950 819 q 904 746 906 778 l 904 638 m 706 443 l 706 583 l 339 583 l 339 443 l 706 443 z "},"Ī":{"ha":536,"x_min":57,"x_max":481,"o":"m 82 1104 l 82 1196 l 463 1196 l 463 1104 l 82 1104 m 76 14 q 138 40 113 14 q 165 101 164 65 l 165 872 q 138 933 164 908 q 76 958 113 958 l 58 958 l 58 972 l 481 972 l 479 958 l 463 958 q 400 933 426 958 q 374 872 374 908 l 374 101 q 400 40 374 65 q 463 14 426 14 l 479 14 l 481 0 l 58 0 l 58 14 l 76 14 z "},"ī":{"ha":472,"x_min":47,"x_max":429,"o":"m 49 967 l 49 1057 l 429 1057 l 429 967 l 49 967 m 425 0 l 47 0 l 47 14 l 63 14 q 115 35 93 14 q 136 88 136 57 l 136 746 q 115 798 136 776 q 63 819 93 819 l 47 819 l 47 833 l 425 833 l 425 819 l 411 819 q 359 799 381 819 q 336 746 338 778 l 336 88 q 359 35 338 56 q 411 14 381 14 l 425 14 l 425 0 z "},"Į":{"ha":536,"x_min":57,"x_max":481,"o":"m 281 -193 q 313 -200 296 -200 q 385 -168 349 -200 l 393 -176 q 354 -250 386 -222 q 281 -279 321 -279 q 144 -215 185 -279 q 125 -142 125 -182 q 164 -44 125 -78 q 256 0 203 -10 l 58 0 l 58 14 l 76 14 q 138 40 113 14 q 165 101 164 65 l 165 872 q 138 933 164 908 q 76 958 113 958 l 58 958 l 58 972 l 481 972 l 479 958 l 463 958 q 400 933 426 958 q 374 872 374 908 l 374 101 q 400 40 374 65 q 463 14 426 14 l 479 14 l 481 0 l 314 0 q 222 -98 222 -25 q 281 -193 222 -171 z "},"į":{"ha":472,"x_min":49,"x_max":428,"o":"m 263 -192 q 305 -197 279 -197 q 367 -167 331 -197 l 375 -175 q 336 -249 368 -221 q 263 -278 303 -278 q 128 -214 167 -278 q 107 -140 107 -181 q 126 -67 107 -96 q 229 0 163 -14 l 49 0 l 49 13 l 64 13 q 116 34 94 13 q 138 88 138 56 l 138 746 q 116 799 138 776 q 64 821 94 821 l 49 821 l 49 833 l 426 833 l 426 821 l 411 821 q 360 799 382 821 q 338 746 339 778 l 338 88 q 360 34 339 56 q 411 13 382 13 l 426 13 l 426 0 l 300 0 q 206 -96 206 -22 q 263 -192 206 -169 z "},"İ":{"ha":536,"x_min":57,"x_max":481,"o":"m 328 1086 q 315 1074 328 1086 q 267 1061 303 1061 q 207 1086 232 1061 q 182 1147 182 1111 q 207 1208 182 1182 q 267 1233 232 1233 q 328 1208 303 1233 q 353 1147 353 1182 q 328 1086 353 1111 m 76 14 q 138 40 113 14 q 165 101 164 65 l 165 872 q 138 933 164 908 q 76 958 113 958 l 58 958 l 58 972 l 481 972 l 479 958 l 463 958 q 400 933 426 958 q 374 872 374 908 l 374 101 q 400 40 374 65 q 463 14 426 14 l 479 14 l 481 0 l 58 0 l 58 14 l 76 14 z "},"ı":{"ha":472,"x_min":47,"x_max":426,"o":"m 425 0 l 47 0 l 47 14 l 63 14 q 115 35 93 14 q 136 88 136 57 l 136 746 q 115 798 136 776 q 63 819 93 819 l 47 819 l 47 833 l 425 833 l 425 819 l 411 819 q 359 799 381 819 q 336 746 338 778 l 336 88 q 359 35 338 56 q 411 14 381 14 l 425 14 l 425 0 z "},"Ĳ":{"ha":1071,"x_min":57,"x_max":1022,"o":"m 76 14 q 138 40 113 14 q 165 101 164 65 l 165 872 q 138 933 164 908 q 76 958 113 958 l 58 958 l 58 972 l 481 972 l 479 958 l 463 958 q 400 933 426 958 q 374 872 374 908 l 374 101 q 400 40 374 65 q 463 14 426 14 l 479 14 l 481 0 l 58 0 l 58 14 l 76 14 m 1004 958 q 928 915 953 958 q 915 871 915 896 l 915 42 q 863 -135 915 -57 q 733 -246 810 -212 q 581 -279 656 -279 q 543 -278 563 -279 l 543 -265 q 666 -145 626 -231 q 706 46 706 -60 l 706 871 q 679 933 706 907 q 617 958 653 958 l 600 958 l 599 972 l 1021 972 l 1021 958 l 1004 958 z "},"ĳ":{"ha":961,"x_min":47,"x_max":928,"o":"m 47 14 l 64 14 q 121 35 97 14 q 144 88 144 57 l 144 746 q 121 798 144 776 q 64 819 97 819 l 47 819 l 47 833 l 442 833 l 442 819 l 425 819 q 369 799 393 819 q 344 747 346 778 l 344 88 q 386 24 346 44 q 425 14 404 14 l 442 14 l 442 0 l 47 0 l 47 14 m 911 819 q 854 798 878 819 q 829 744 831 776 l 829 43 q 780 -115 829 -46 q 660 -214 731 -185 q 521 -243 589 -243 q 486 -242 504 -243 l 486 -229 q 595 -122 561 -197 q 629 46 629 -47 l 629 746 q 604 798 628 776 q 549 819 581 819 l 532 819 l 532 833 l 926 833 l 926 819 l 911 819 z "},"Ķ":{"ha":1051,"x_min":57,"x_max":1079,"o":"m 76 14 q 138 40 113 14 q 165 101 164 65 l 165 872 q 119 947 164 922 q 76 958 100 958 l 58 958 l 58 972 l 481 972 l 479 958 l 463 958 q 386 915 413 958 q 374 872 374 896 l 374 101 q 400 40 374 65 q 463 14 426 14 l 479 14 l 481 0 l 58 0 l 58 14 l 76 14 m 1079 0 l 965 0 q 667 115 754 0 q 418 458 418 453 l 747 894 q 758 919 758 908 q 754 939 758 931 q 715 960 743 960 l 701 960 l 701 972 l 1019 972 l 1019 960 l 1014 960 q 863 893 921 960 l 592 572 l 938 100 q 1079 14 1001 17 l 1079 0 m 536 -278 q 583 -215 583 -261 q 560 -162 583 -189 q 538 -104 538 -135 q 556 -54 538 -74 q 593 -35 575 -35 q 676 -83 656 -35 q 689 -142 689 -117 q 629 -265 689 -221 q 556 -292 594 -292 q 539 -290 547 -292 l 536 -278 z "},"ķ":{"ha":935,"x_min":47,"x_max":967,"o":"m 50 0 l 50 14 l 64 14 q 131 50 108 14 q 142 88 140 67 l 142 746 q 103 810 140 789 q 64 819 85 819 l 49 819 l 49 833 l 433 833 l 433 819 l 418 819 q 365 799 388 819 q 340 747 342 778 l 340 88 q 364 35 342 57 q 418 14 386 14 l 432 14 l 433 0 l 50 0 m 965 0 l 858 0 q 583 107 665 0 q 522 192 576 118 q 382 389 382 388 l 667 767 q 672 803 682 786 q 639 821 663 821 l 626 821 l 626 833 l 910 833 l 910 821 l 904 821 q 779 771 829 821 l 549 499 l 840 93 q 965 13 896 14 l 965 0 m 451 -333 q 499 -269 499 -315 q 476 -217 499 -243 q 454 -159 454 -190 q 472 -109 454 -128 q 508 -90 490 -90 q 592 -137 571 -90 q 604 -196 604 -171 q 546 -319 604 -275 q 471 -346 511 -346 q 456 -344 463 -346 l 451 -333 z "},"Ĺ":{"ha":856,"x_min":57,"x_max":842,"o":"m 256 1058 l 246 1068 q 446 1296 306 1171 q 539 1183 513 1261 q 256 1058 397 1093 m 76 14 q 138 40 113 14 q 165 101 164 65 l 165 871 q 119 947 164 922 q 76 958 100 958 l 58 958 l 58 972 l 481 972 l 479 958 l 463 958 q 400 933 426 958 q 374 871 374 907 l 374 60 l 556 60 q 726 118 657 60 q 828 283 794 176 l 842 283 l 778 0 l 58 0 l 58 14 l 76 14 z "},"ĺ":{"ha":761,"x_min":47,"x_max":756,"o":"m 228 919 l 218 929 q 418 1157 278 1032 q 513 1044 485 1122 q 228 919 369 954 m 47 0 l 47 14 l 64 14 q 117 35 96 14 q 139 86 139 56 l 139 746 q 101 810 139 789 q 64 819 83 819 l 47 819 l 47 833 l 433 833 l 433 819 l 417 819 q 356 790 379 819 q 340 746 340 771 l 340 56 l 507 56 q 653 109 593 57 q 742 256 713 161 l 756 256 l 701 0 l 47 0 z "},"Ļ":{"ha":856,"x_min":57,"x_max":842,"o":"m 76 14 q 138 40 113 14 q 165 101 164 65 l 165 871 q 119 947 164 922 q 76 958 100 958 l 58 958 l 58 972 l 481 972 l 479 958 l 463 958 q 400 933 426 958 q 374 871 374 907 l 374 60 l 556 60 q 726 118 657 60 q 828 283 794 176 l 842 283 l 778 0 l 58 0 l 58 14 l 76 14 m 394 -325 q 442 -261 442 -307 q 419 -208 442 -235 q 397 -151 397 -182 q 415 -101 397 -119 q 451 -82 433 -82 q 535 -129 514 -82 q 547 -189 547 -164 q 489 -312 547 -268 q 415 -337 454 -337 q 399 -336 407 -337 l 394 -325 z "},"ļ":{"ha":761,"x_min":47,"x_max":756,"o":"m 47 0 l 47 14 l 64 14 q 117 35 96 14 q 139 86 139 56 l 139 746 q 117 798 139 776 q 64 819 94 819 l 47 819 l 47 833 l 433 833 l 433 819 l 417 819 q 363 799 385 819 q 340 746 340 778 l 340 56 l 507 56 q 653 109 593 57 q 740 256 713 161 l 756 256 l 701 0 l 47 0 m 340 -333 q 389 -269 389 -315 q 366 -217 389 -243 q 343 -159 343 -190 q 361 -108 343 -128 q 397 -89 379 -89 q 481 -137 460 -89 q 493 -196 493 -171 q 435 -319 493 -275 q 360 -346 400 -346 q 344 -344 353 -346 l 340 -333 z "},"Ľ":{"ha":856,"x_min":57,"x_max":842,"o":"m 561 739 q 608 803 608 757 q 586 856 608 829 q 564 913 564 882 q 582 963 564 944 q 618 982 600 982 q 701 935 681 982 q 714 876 714 901 q 656 753 714 796 q 582 728 621 728 q 565 728 574 728 l 561 739 m 76 14 q 138 40 113 14 q 165 101 164 65 l 165 871 q 138 933 164 907 q 76 958 113 958 l 58 958 l 58 972 l 481 972 l 479 958 l 463 958 q 400 933 426 958 q 374 871 374 907 l 374 60 l 556 60 q 726 118 657 60 q 828 283 794 176 l 842 283 l 778 0 l 58 0 l 58 14 l 76 14 z "},"ľ":{"ha":761,"x_min":47,"x_max":756,"o":"m 524 590 q 571 654 571 608 q 548 707 571 681 q 525 764 525 733 q 544 814 525 794 q 581 833 563 833 q 664 786 643 833 q 676 726 676 753 q 617 604 676 647 q 543 578 583 578 q 526 579 535 578 l 524 590 m 47 0 l 47 14 l 64 14 q 117 35 96 14 q 139 86 139 56 l 139 746 q 101 810 139 789 q 64 819 83 819 l 47 819 l 47 833 l 433 833 l 433 819 l 417 819 q 363 799 385 819 q 340 746 340 778 l 340 56 l 507 56 q 653 109 593 57 q 740 256 713 161 l 756 256 l 701 0 l 47 0 z "},"Ŀ":{"ha":856,"x_min":57,"x_max":842,"o":"m 76 14 q 138 40 113 14 q 165 101 164 65 l 165 871 q 119 947 164 922 q 76 958 100 958 l 58 958 l 58 972 l 481 972 l 479 958 l 463 958 q 400 933 426 958 q 374 871 374 907 l 374 60 l 556 60 q 726 118 657 60 q 828 283 794 176 l 842 283 l 778 0 l 58 0 l 58 14 l 76 14 m 639 522 q 626 509 639 522 q 578 496 614 496 q 517 522 542 496 q 492 583 492 547 q 517 644 492 618 q 578 669 542 669 q 639 644 614 669 q 664 583 664 618 q 639 522 664 547 z "},"ŀ":{"ha":761,"x_min":47,"x_max":756,"o":"m 47 0 l 47 14 l 64 14 q 117 35 96 14 q 139 86 139 56 l 139 746 q 101 810 139 789 q 64 819 83 819 l 47 819 l 47 833 l 433 833 l 433 819 l 417 819 q 363 799 385 819 q 340 746 340 778 l 340 56 l 507 56 q 653 109 593 57 q 740 256 713 161 l 756 256 l 701 0 l 47 0 m 599 475 q 586 463 599 475 q 538 450 574 450 q 476 475 501 450 q 450 536 450 500 q 476 598 450 572 q 538 624 501 624 q 599 598 574 624 q 624 536 624 572 q 599 475 624 500 z "},"Ł":{"ha":856,"x_min":24,"x_max":842,"o":"m 76 14 q 138 40 113 14 q 165 101 164 65 l 165 390 l 54 328 l 25 381 l 165 461 l 165 871 q 119 947 164 922 q 76 958 100 958 l 58 958 l 58 972 l 481 972 l 479 958 l 463 958 q 400 933 426 958 q 374 871 374 907 l 374 582 l 507 658 l 536 606 l 374 511 l 374 60 l 556 60 q 726 118 657 60 q 828 283 794 176 l 842 283 l 778 0 l 58 0 l 58 14 l 76 14 z "},"ł":{"ha":797,"x_min":33,"x_max":756,"o":"m 47 0 l 47 14 l 64 14 q 117 35 96 14 q 139 86 139 56 l 139 344 l 63 303 l 33 356 l 139 414 l 139 746 q 117 798 139 776 q 64 819 94 819 l 47 819 l 47 833 l 433 833 l 433 819 l 417 819 q 363 799 385 819 q 340 746 340 778 l 340 522 l 485 600 l 514 549 l 340 454 l 340 56 l 507 56 q 653 109 593 57 q 740 256 713 161 l 756 256 l 701 0 l 47 0 z "},"Ń":{"ha":1201,"x_min":40,"x_max":1161,"o":"m 565 1058 l 556 1068 q 756 1296 615 1171 q 850 1183 822 1261 q 565 1058 707 1093 m 1135 958 q 1075 934 1100 958 q 1049 875 1050 910 l 1049 158 q 1061 1 1049 65 l 1065 -19 l 1053 -19 l 351 649 l 351 97 q 376 38 351 63 q 436 14 401 14 l 463 14 l 463 0 l 42 0 l 42 14 l 67 14 q 128 38 103 14 q 153 99 153 63 l 153 819 q 140 972 153 911 l 138 993 l 150 993 l 851 325 l 851 874 q 825 934 850 910 q 765 958 800 958 l 740 958 l 740 972 l 1161 972 l 1161 958 l 1135 958 z "},"ń":{"ha":1082,"x_min":29,"x_max":1054,"o":"m 503 919 l 493 929 q 693 1157 553 1032 q 788 1044 760 1122 q 503 919 644 954 m 664 833 l 1054 833 l 1054 819 l 1031 819 q 977 800 999 819 q 954 750 956 781 l 954 143 q 965 1 954 57 l 968 -18 l 956 -18 l 318 544 l 318 85 q 341 34 319 54 q 394 14 363 14 l 418 14 l 418 0 l 29 0 l 29 14 l 51 14 q 106 34 83 14 q 128 85 128 54 l 128 696 q 117 835 128 779 l 114 853 l 126 851 l 763 292 l 763 749 q 725 810 763 790 q 688 819 708 819 l 664 819 l 664 833 z "},"Ņ":{"ha":1201,"x_min":40,"x_max":1161,"o":"m 1135 958 q 1075 934 1100 958 q 1049 875 1050 910 l 1049 158 q 1061 1 1049 65 l 1065 -19 l 1053 -19 l 351 649 l 351 97 q 376 38 351 63 q 436 14 401 14 l 463 14 l 463 0 l 42 0 l 42 14 l 67 14 q 128 38 103 14 q 153 99 153 63 l 153 819 q 140 972 153 911 l 138 993 l 150 993 l 851 325 l 851 874 q 825 934 850 910 q 765 958 800 958 l 740 958 l 740 972 l 1161 972 l 1161 958 l 1135 958 m 589 -332 q 636 -269 636 -315 q 614 -216 636 -243 q 592 -158 592 -189 q 610 -108 592 -128 q 646 -89 628 -89 q 729 -137 708 -89 q 742 -196 742 -171 q 683 -319 742 -275 q 610 -344 649 -344 q 593 -343 601 -344 l 589 -332 z "},"ņ":{"ha":1082,"x_min":29,"x_max":1054,"o":"m 664 833 l 1054 833 l 1054 819 l 1031 819 q 977 800 999 819 q 954 750 956 781 l 954 143 q 965 1 954 57 l 968 -18 l 956 -18 l 318 544 l 318 85 q 341 34 319 54 q 394 14 363 14 l 418 14 l 418 0 l 29 0 l 29 14 l 51 14 q 106 34 83 14 q 128 85 128 54 l 128 696 q 117 833 128 779 l 114 853 l 126 851 l 763 292 l 763 749 q 741 799 763 779 q 688 819 719 819 l 664 819 l 664 833 m 533 -333 q 582 -269 582 -315 q 559 -217 582 -243 q 536 -159 536 -190 q 554 -108 536 -128 q 590 -89 572 -89 q 674 -137 653 -89 q 686 -196 686 -171 q 628 -319 686 -275 q 553 -346 593 -346 q 538 -344 546 -346 l 533 -333 z "},"Ň":{"ha":1201,"x_min":40,"x_max":1161,"o":"m 588 1061 l 572 1061 l 368 1274 l 376 1285 l 581 1194 l 771 1285 l 781 1274 l 588 1061 m 1135 958 q 1075 934 1100 958 q 1049 875 1050 910 l 1049 158 q 1061 1 1049 65 l 1065 -19 l 1053 -19 l 351 649 l 351 97 q 394 25 351 49 q 436 14 414 14 l 463 14 l 463 0 l 42 0 l 42 14 l 67 14 q 128 38 103 14 q 153 99 153 63 l 153 819 q 140 972 153 911 l 138 993 l 150 993 l 851 325 l 851 874 q 825 934 850 910 q 765 958 800 958 l 740 958 l 740 972 l 1161 972 l 1161 958 l 1135 958 z "},"ň":{"ha":1082,"x_min":29,"x_max":1054,"o":"m 525 922 l 510 922 l 306 1135 l 314 1146 l 518 1056 l 708 1146 l 718 1135 l 525 922 m 664 833 l 1054 833 l 1054 819 l 1031 819 q 977 800 999 819 q 954 750 956 781 l 954 143 q 965 1 954 57 l 968 -18 l 956 -18 l 318 544 l 318 85 q 341 34 319 54 q 394 14 363 14 l 418 14 l 418 0 l 29 0 l 29 14 l 51 14 q 106 34 83 14 q 128 85 128 54 l 128 696 q 117 833 128 779 l 114 853 l 126 851 l 763 292 l 763 749 q 725 810 763 790 q 688 819 708 819 l 664 819 l 664 833 z "},"Ŋ":{"ha":1197,"x_min":40,"x_max":1150,"o":"m 1124 957 q 1057 921 1081 957 q 1047 883 1047 903 l 1047 -21 q 1003 -173 1047 -110 q 901 -258 960 -236 q 803 -281 842 -281 q 739 -278 764 -281 l 732 -267 q 800 -208 776 -235 q 854 19 854 -144 l 854 164 l 336 657 l 336 94 q 361 39 338 63 q 418 15 385 15 l 442 15 l 442 0 l 42 0 l 42 15 l 65 15 q 122 38 99 15 q 147 94 146 61 l 147 819 q 135 972 147 911 l 131 993 l 144 993 l 854 318 l 854 878 q 829 933 853 910 q 772 957 806 957 l 749 957 l 749 972 l 1149 972 l 1149 957 l 1124 957 z "},"ŋ":{"ha":1114,"x_min":29,"x_max":1067,"o":"m 1067 819 l 1043 819 q 992 799 1013 819 q 971 750 971 779 l 971 4 q 886 -194 971 -126 q 728 -250 818 -250 q 678 -246 704 -250 l 671 -235 q 736 -176 714 -204 q 786 44 786 -114 l 786 132 l 311 550 l 311 85 q 335 34 313 54 q 388 14 357 14 l 411 14 l 411 0 l 29 0 l 29 14 l 51 14 q 106 34 83 14 q 128 85 128 54 l 128 696 q 117 835 128 779 l 114 853 l 126 851 l 786 272 l 786 751 q 764 800 785 781 q 713 819 743 819 l 689 819 l 689 833 l 1067 833 l 1067 819 z "},"Ō":{"ha":1219,"x_min":67,"x_max":1161,"o":"m 428 1117 l 428 1207 l 808 1207 l 808 1117 l 428 1117 m 216 856 q 290 924 216 856 q 615 992 364 992 q 1013 856 865 992 q 1161 486 1161 719 q 1013 117 1161 253 q 615 -19 865 -19 q 216 117 364 -19 q 68 486 68 253 q 216 856 68 719 m 381 159 q 424 99 381 159 q 614 39 467 39 q 847 159 761 39 q 933 486 933 279 q 847 813 933 693 q 614 933 761 933 q 381 813 467 933 q 296 486 296 693 q 381 159 296 279 z "},"ō":{"ha":1079,"x_min":47,"x_max":1032,"o":"m 354 967 l 354 1057 l 735 1057 l 735 967 l 354 967 m 49 417 q 49 517 49 417 q 183 734 49 617 q 540 851 317 851 q 897 734 763 851 q 1032 417 1032 617 q 897 99 1032 217 q 540 -18 763 -18 q 183 99 318 -18 q 49 417 49 217 m 261 417 q 261 329 261 417 q 337 140 261 242 q 540 38 413 38 q 742 140 667 38 q 818 417 818 242 q 742 694 818 592 q 540 796 667 796 q 337 694 413 796 q 261 417 261 592 z "},"Ő":{"ha":1219,"x_min":67,"x_max":1161,"o":"m 478 1075 l 465 1082 q 633 1310 503 1168 q 738 1219 704 1286 q 478 1075 615 1124 m 722 1075 l 710 1082 q 876 1310 749 1174 q 982 1219 949 1286 q 722 1075 857 1121 m 614 992 q 1013 856 865 992 q 1161 486 1161 719 q 1013 117 1161 253 q 615 -19 865 -19 q 216 117 364 -19 q 68 486 68 253 q 135 755 68 640 q 325 931 201 869 q 614 992 449 992 m 381 159 q 424 99 381 159 q 614 39 467 39 q 847 159 761 39 q 933 486 933 279 q 847 813 933 693 q 614 933 761 933 q 381 813 467 933 q 296 486 296 693 q 381 159 296 279 z "},"ő":{"ha":1079,"x_min":47,"x_max":1032,"o":"m 404 925 l 392 932 q 560 1160 429 1018 q 664 1069 631 1136 q 404 925 542 974 m 647 925 l 636 932 q 803 1160 675 1024 q 908 1069 875 1136 q 647 925 783 971 m 49 417 q 49 517 49 417 q 183 734 49 617 q 540 851 317 851 q 897 734 763 851 q 1032 417 1032 617 q 897 99 1032 217 q 540 -18 763 -18 q 183 99 318 -18 q 49 417 49 217 m 261 417 q 261 329 261 417 q 337 140 261 242 q 540 38 413 38 q 742 140 667 38 q 818 417 818 242 q 742 694 818 592 q 540 796 667 796 q 337 694 413 796 q 261 417 261 592 z "},"Œ":{"ha":1488,"x_min":61,"x_max":1461,"o":"m 1396 0 l 986 0 q 806 -1 829 0 q 715 -11 783 -3 q 603 -19 646 -19 q 210 117 357 -19 q 63 488 63 254 q 210 856 63 721 q 614 992 358 992 q 751 982 681 992 q 864 972 821 972 l 1210 972 q 1303 981 1253 972 q 1375 997 1354 989 l 1375 754 l 1360 756 l 1360 771 q 1324 872 1360 833 q 1225 913 1288 910 l 989 913 l 989 508 l 1176 508 q 1260 544 1226 510 q 1293 628 1294 578 l 1293 640 l 1307 640 l 1307 319 l 1293 319 l 1293 331 q 1238 433 1294 400 q 1178 450 1211 449 l 989 450 l 989 60 l 1174 60 q 1344 118 1275 60 q 1446 283 1413 176 l 1460 283 l 1396 0 m 615 933 q 374 814 467 933 q 281 483 281 694 q 322 247 281 349 q 440 92 364 146 q 615 39 515 39 q 733 65 683 39 q 783 124 783 90 l 783 849 q 734 908 783 882 q 615 933 685 933 z "},"œ":{"ha":1324,"x_min":47,"x_max":1299,"o":"m 758 0 q 637 -9 710 0 q 524 -18 564 -18 q 178 99 307 -18 q 49 419 49 215 q 107 652 49 554 q 275 801 165 750 q 533 853 385 853 q 651 844 588 853 q 757 835 715 835 l 1082 835 q 1163 842 1118 835 q 1225 857 1207 850 l 1225 638 l 1211 639 l 1211 651 q 1178 744 1211 710 q 1089 779 1146 778 l 878 779 l 878 440 l 1043 440 q 1120 472 1092 442 q 1149 549 1149 501 l 1149 558 l 1163 558 l 1163 269 l 1149 269 l 1149 279 q 1100 371 1149 342 q 1044 386 1076 386 l 878 386 l 878 56 l 1051 56 q 1233 147 1167 57 q 1283 253 1265 192 l 1297 253 l 1244 0 l 758 0 m 536 799 q 332 698 411 799 q 253 419 253 597 q 331 138 253 240 q 535 36 408 36 q 640 60 597 36 q 682 115 682 85 l 682 721 q 640 775 682 751 q 536 799 599 799 z "},"Ŕ":{"ha":1038,"x_min":61,"x_max":1096,"o":"m 492 1058 l 482 1068 q 682 1296 542 1171 q 776 1183 749 1261 q 492 1058 633 1093 m 442 911 l 382 911 q 378 911 379 911 l 378 101 q 405 40 379 65 q 467 14 431 14 l 485 14 l 485 0 l 63 0 l 63 14 l 81 14 q 142 39 117 14 q 169 100 168 64 l 169 871 q 142 933 168 907 q 81 958 117 958 l 63 958 l 63 972 l 539 972 q 767 914 674 972 q 842 833 814 885 q 869 697 869 781 q 811 535 869 613 q 642 446 753 457 q 783 324 722 419 q 1006 38 933 83 q 1096 14 1042 15 l 1096 0 l 960 0 q 759 32 839 0 q 633 144 679 64 q 518 382 607 190 q 424 475 479 467 l 424 489 l 467 489 q 642 649 610 490 q 647 694 647 678 q 601 859 647 808 q 483 911 556 910 q 442 911 469 911 z "},"ŕ":{"ha":913,"x_min":57,"x_max":972,"o":"m 433 919 l 424 929 q 622 1157 483 1032 q 717 1044 690 1122 q 433 919 574 954 m 393 776 l 349 776 l 349 88 q 372 34 349 54 q 424 14 394 14 l 439 14 l 439 0 l 57 0 l 57 14 l 74 14 q 126 35 104 14 q 147 86 147 56 l 147 747 q 126 799 147 778 q 75 819 104 819 l 57 819 l 57 833 l 483 833 q 693 785 608 833 q 788 606 788 731 q 739 460 788 525 q 594 382 690 396 q 669 335 632 369 q 728 264 706 300 q 821 119 772 185 q 899 33 869 53 q 972 14 929 14 l 972 0 l 856 0 q 678 28 740 0 q 568 133 617 56 q 501 265 539 179 q 447 369 463 350 q 392 408 419 406 l 392 419 l 426 419 q 571 558 544 421 q 576 594 576 579 q 575 637 576 610 q 558 698 574 664 q 517 747 542 732 q 428 775 474 774 q 393 776 413 776 z "},"Ŗ":{"ha":1038,"x_min":61,"x_max":1096,"o":"m 442 911 l 382 911 q 378 911 379 911 l 378 101 q 405 40 379 65 q 467 14 431 14 l 485 14 l 485 0 l 63 0 l 63 14 l 81 14 q 142 39 117 14 q 169 100 168 64 l 169 871 q 142 933 168 907 q 81 958 117 958 l 63 958 l 63 972 l 539 972 q 767 914 674 972 q 842 833 814 885 q 869 697 869 781 q 811 535 869 613 q 642 446 753 457 q 783 324 722 419 q 1006 38 933 83 q 1096 14 1042 15 l 1096 0 l 960 0 q 759 32 839 0 q 633 144 679 64 q 518 382 607 190 q 424 475 479 467 l 424 489 l 467 489 q 577 526 529 489 q 642 649 625 564 q 647 694 647 678 q 601 859 647 808 q 483 911 556 910 q 442 911 469 911 m 539 -325 q 588 -261 588 -307 q 565 -208 588 -235 q 542 -151 542 -182 q 560 -101 542 -119 q 596 -82 578 -82 q 679 -129 658 -82 q 692 -189 692 -162 q 633 -311 692 -268 q 558 -337 599 -337 q 543 -336 551 -337 l 539 -325 z "},"ŗ":{"ha":913,"x_min":57,"x_max":972,"o":"m 393 776 l 349 776 l 349 88 q 372 34 349 54 q 424 14 394 14 l 439 14 l 439 0 l 57 0 l 57 14 l 74 14 q 126 35 104 14 q 147 86 147 56 l 147 747 q 126 799 147 778 q 75 819 104 819 l 57 819 l 57 833 l 483 833 q 693 785 608 833 q 788 606 788 731 q 739 460 788 525 q 594 382 690 396 q 669 335 632 369 q 728 264 706 300 q 821 119 772 185 q 899 33 869 53 q 972 14 929 14 l 972 0 l 856 0 q 678 28 740 0 q 568 133 617 56 q 475 322 539 179 q 434 385 456 364 q 392 408 413 406 l 392 419 l 426 419 q 571 558 544 421 q 576 594 576 579 q 575 637 576 610 q 558 698 574 664 q 517 747 542 732 q 428 775 474 774 q 393 776 413 776 m 485 -333 q 532 -269 532 -315 q 509 -217 532 -243 q 486 -159 486 -190 q 505 -109 486 -128 q 540 -90 524 -90 q 625 -137 604 -90 q 638 -196 638 -171 q 578 -319 638 -275 q 504 -346 543 -346 q 488 -344 496 -346 l 485 -333 z "},"Ř":{"ha":1038,"x_min":61,"x_max":1096,"o":"m 515 1061 l 499 1061 l 294 1274 l 304 1285 l 508 1194 l 697 1285 l 707 1274 l 515 1061 m 442 911 l 382 911 q 378 911 379 911 l 378 101 q 422 25 379 50 q 467 14 443 14 l 485 14 l 485 0 l 63 0 l 63 14 l 81 14 q 142 39 117 14 q 169 100 168 64 l 169 871 q 142 933 168 907 q 81 958 117 958 l 63 958 l 63 972 l 539 972 q 767 914 674 972 q 842 833 814 885 q 869 697 869 781 q 811 535 869 613 q 642 446 753 457 q 783 324 722 419 q 1006 38 933 83 q 1096 14 1042 15 l 1096 0 l 960 0 q 759 32 839 0 q 633 144 679 64 q 518 382 607 190 q 424 475 479 467 l 424 489 l 467 489 q 642 649 610 490 q 647 694 647 678 q 601 859 647 808 q 483 911 556 910 q 442 911 469 911 z "},"ř":{"ha":913,"x_min":57,"x_max":972,"o":"m 456 922 l 440 922 l 235 1135 l 244 1146 l 449 1056 l 639 1146 l 647 1135 l 456 922 m 393 776 l 349 776 l 349 88 q 372 34 349 54 q 424 14 394 14 l 439 14 l 439 0 l 57 0 l 57 14 l 74 14 q 126 35 104 14 q 147 86 147 56 l 147 747 q 126 799 147 778 q 75 819 104 819 l 57 819 l 57 833 l 483 833 q 693 785 608 833 q 788 606 788 731 q 739 460 788 525 q 594 382 690 396 q 669 335 632 369 q 728 264 706 300 q 821 119 772 185 q 899 33 869 53 q 972 14 929 14 l 972 0 l 856 0 q 678 28 740 0 q 568 133 617 56 q 501 265 539 179 q 447 369 463 350 q 392 408 419 406 l 392 419 l 426 419 q 571 558 544 421 q 576 594 576 579 q 575 637 576 610 q 558 698 574 664 q 517 747 542 732 q 428 775 474 774 q 393 776 413 776 z "},"Ś":{"ha":803,"x_min":68,"x_max":739,"o":"m 386 1058 l 376 1068 q 576 1296 436 1171 q 671 1183 643 1261 q 386 1058 528 1093 m 69 129 q 113 300 69 229 l 125 300 q 124 278 124 289 q 193 110 124 182 q 381 39 263 39 q 526 83 474 39 q 578 196 578 128 q 552 268 578 236 q 467 339 526 300 l 225 499 q 92 721 92 589 q 93 749 92 735 q 178 925 101 858 q 385 992 256 992 q 574 978 461 992 l 661 978 l 643 774 l 629 774 q 576 890 629 846 q 433 933 522 933 q 276 867 325 933 q 251 797 251 835 q 275 731 251 760 q 349 671 299 703 l 614 499 q 739 285 739 417 q 638 59 739 138 q 371 -19 538 -19 q 197 3 276 -19 q 79 65 117 26 q 69 129 69 92 z "},"ś":{"ha":714,"x_min":63,"x_max":657,"o":"m 354 919 l 344 929 q 544 1157 404 1032 q 639 1044 611 1122 q 354 919 496 954 m 64 114 q 104 268 64 204 l 115 268 q 114 250 114 258 q 174 101 114 165 q 343 38 235 38 q 463 74 421 38 q 506 154 506 110 q 481 226 506 199 q 401 289 457 253 l 204 414 q 79 614 79 492 q 81 640 79 626 q 157 795 89 739 q 317 851 225 851 q 513 839 410 851 l 588 839 l 568 656 l 556 656 q 510 758 556 721 q 391 796 465 796 q 274 765 317 796 q 231 682 231 733 q 272 610 231 640 q 321 578 289 597 l 542 442 q 656 250 656 372 q 565 51 656 121 q 329 -18 474 -18 q 172 3 240 -18 q 72 56 104 24 q 64 114 64 81 z "},"Ş":{"ha":803,"x_min":68,"x_max":739,"o":"m 69 129 q 113 300 69 229 l 125 300 q 124 278 124 289 q 193 110 124 182 q 381 39 263 39 q 526 83 474 39 q 578 196 578 128 q 508 310 578 256 q 467 339 490 324 l 225 499 q 90 721 90 589 q 93 749 90 735 q 178 925 101 858 q 385 992 256 992 q 574 978 461 992 l 661 978 l 643 774 l 629 774 q 576 890 629 846 q 433 933 522 933 q 276 867 325 933 q 251 803 251 835 q 264 749 251 771 q 349 671 283 713 l 614 499 q 739 285 739 417 q 649 68 739 149 q 418 -18 565 -7 l 361 -85 q 408 -78 382 -78 q 503 -114 475 -78 q 518 -164 518 -133 q 439 -274 518 -237 q 358 -293 397 -293 q 283 -281 318 -293 l 283 -267 q 378 -241 335 -267 q 421 -164 421 -215 q 399 -124 421 -139 q 349 -108 378 -108 q 293 -118 321 -108 l 286 -104 l 351 -19 q 188 6 261 -17 q 79 65 115 28 q 69 129 69 92 z "},"ş":{"ha":661,"x_min":47,"x_max":642,"o":"m 49 114 q 89 268 49 204 l 100 268 q 99 250 99 258 q 159 101 99 165 q 328 38 219 38 q 448 74 406 38 q 490 154 490 110 q 466 226 490 199 q 386 289 442 253 l 189 414 q 64 614 64 492 q 65 640 64 626 q 142 795 74 739 q 302 851 210 851 q 497 839 394 851 l 572 839 l 553 656 l 540 656 q 495 758 540 721 q 376 796 450 796 q 258 765 301 796 q 215 682 215 733 q 257 610 215 640 q 306 578 274 597 l 525 442 q 640 250 640 372 q 565 65 640 133 q 367 -15 489 -3 l 310 -81 q 357 -74 331 -74 q 451 -110 424 -74 q 467 -160 467 -129 q 388 -269 467 -233 q 306 -289 346 -289 q 231 -276 267 -289 l 232 -262 q 326 -237 283 -262 q 369 -160 369 -211 q 348 -119 369 -135 q 298 -104 326 -104 q 242 -114 269 -104 l 233 -100 l 297 -18 q 151 4 215 -17 q 57 56 86 25 q 49 114 49 81 z "},"Š":{"ha":803,"x_min":68,"x_max":739,"o":"m 408 1061 l 393 1061 l 189 1274 l 199 1285 l 401 1194 l 592 1285 l 601 1274 l 408 1061 m 69 129 q 113 300 69 229 l 125 300 q 124 278 124 289 q 193 110 124 182 q 381 39 263 39 q 526 83 474 39 q 578 196 578 128 q 552 268 578 236 q 467 339 526 300 l 225 499 q 90 721 90 589 q 92 749 90 735 q 178 925 101 858 q 385 992 256 992 q 574 978 461 992 l 661 978 l 643 774 l 629 774 q 576 890 629 846 q 433 933 522 933 q 276 867 325 933 q 251 797 251 835 q 275 731 251 760 q 349 671 299 703 l 614 499 q 739 285 739 417 q 638 59 739 138 q 371 -19 538 -19 q 197 3 276 -19 q 79 65 117 26 q 69 129 69 92 z "},"š":{"ha":714,"x_min":63,"x_max":657,"o":"m 378 922 l 361 922 l 157 1135 l 167 1146 l 369 1056 l 560 1146 l 569 1135 l 378 922 m 64 114 q 104 268 64 204 l 115 268 q 114 250 114 258 q 174 101 114 165 q 343 38 235 38 q 433 56 396 38 q 506 164 506 89 q 481 226 506 199 q 401 289 457 253 l 204 414 q 79 614 79 492 q 81 640 79 626 q 157 795 89 739 q 317 851 225 851 q 513 839 410 851 l 588 839 l 568 656 l 556 656 q 510 758 556 721 q 391 796 465 796 q 274 765 317 796 q 231 682 231 733 q 272 610 231 640 q 321 578 289 597 l 542 442 q 656 250 656 372 q 565 51 656 121 q 329 -18 474 -18 q 172 3 240 -18 q 72 56 104 24 q 64 114 64 81 z "},"Ţ":{"ha":925,"x_min":18,"x_max":908,"o":"m 492 -146 q 470 -106 492 -121 q 420 -90 449 -90 q 363 -100 392 -90 l 356 -86 l 422 0 l 253 0 l 253 14 l 271 14 q 331 39 306 14 q 360 99 357 64 l 360 915 l 172 915 q 71 875 108 914 q 33 774 33 836 l 33 757 l 19 757 l 19 999 q 183 974 76 975 l 743 974 q 837 982 786 974 q 907 999 888 990 l 907 757 l 893 757 l 893 774 q 856 876 893 838 q 754 915 818 914 l 568 915 l 568 100 q 595 39 569 64 q 657 14 621 14 l 675 14 l 675 0 l 489 0 l 432 -67 q 515 -62 475 -51 q 589 -151 589 -82 q 510 -256 589 -219 q 428 -275 468 -275 q 353 -262 389 -275 l 354 -249 q 449 -223 406 -249 q 492 -146 492 -197 z "},"ţ":{"ha":832,"x_min":14,"x_max":819,"o":"m 446 -144 q 424 -104 446 -119 q 374 -89 403 -89 q 318 -99 346 -89 l 311 -85 l 376 0 l 225 0 l 225 14 l 239 14 q 293 35 271 14 q 315 88 315 56 l 315 779 l 156 779 q 61 743 94 778 q 28 649 28 708 l 28 636 l 14 636 l 14 856 q 78 842 33 849 q 160 835 124 835 l 672 835 q 757 842 710 835 q 818 856 804 849 l 818 636 l 804 636 l 804 649 q 772 743 806 708 q 678 779 738 778 l 517 779 l 517 86 q 540 35 518 56 q 593 14 563 14 l 608 14 l 608 0 l 443 0 l 386 -65 q 433 -58 407 -58 q 528 -94 500 -58 q 544 -144 544 -115 q 465 -256 544 -218 q 383 -275 422 -275 q 308 -262 343 -275 l 308 -249 q 403 -223 360 -249 q 446 -144 446 -197 z "},"Ť":{"ha":925,"x_min":18,"x_max":908,"o":"m 472 1061 l 457 1061 l 251 1274 l 261 1285 l 465 1194 l 656 1285 l 664 1274 l 472 1061 m 568 915 l 568 100 q 595 39 569 64 q 657 14 621 14 l 674 14 l 675 0 l 253 0 l 253 14 l 271 14 q 331 39 306 14 q 360 99 357 64 l 360 915 l 172 915 q 71 875 108 914 q 33 774 33 836 l 33 757 l 19 757 l 19 999 q 183 974 76 975 l 743 974 q 837 982 786 974 q 907 999 888 990 l 907 757 l 893 757 l 893 774 q 856 876 893 838 q 754 915 818 914 l 568 915 z "},"ť":{"ha":831,"x_min":14,"x_max":819,"o":"m 428 928 l 413 928 l 207 1142 l 217 1153 l 421 1063 l 611 1153 l 619 1142 l 428 928 m 804 636 l 804 649 q 772 743 806 708 q 678 779 738 778 l 517 779 l 517 86 q 540 35 518 56 q 593 14 563 14 l 608 14 l 608 0 l 225 0 l 225 14 l 239 14 q 293 35 271 14 q 315 88 315 56 l 315 779 l 156 779 q 61 743 94 778 q 28 649 28 708 l 28 636 l 14 636 l 14 856 q 78 842 33 849 q 160 835 124 835 l 672 835 q 773 844 733 835 q 818 856 813 853 l 818 636 l 804 636 z "},"Ŧ":{"ha":925,"x_min":18,"x_max":908,"o":"m 568 915 l 568 558 l 783 558 l 783 500 l 568 500 l 568 100 q 595 39 569 64 q 657 14 621 14 l 674 14 l 675 0 l 253 0 l 253 14 l 271 14 q 331 39 306 14 q 360 99 357 64 l 360 500 l 144 500 l 144 558 l 360 558 l 360 915 l 172 915 q 71 875 108 914 q 33 774 33 836 l 33 757 l 19 757 l 19 999 q 183 974 76 975 l 743 974 q 837 982 786 974 q 907 999 888 990 l 907 757 l 893 757 l 893 774 q 856 875 893 836 q 754 915 818 914 l 568 915 z "},"ŧ":{"ha":838,"x_min":14,"x_max":819,"o":"m 804 636 l 804 649 q 771 743 804 708 q 678 779 738 778 l 517 779 l 517 476 l 704 476 l 704 422 l 517 422 l 517 86 q 540 35 518 56 q 593 14 563 14 l 608 14 l 608 0 l 225 0 l 225 14 l 239 14 q 293 35 271 14 q 315 88 315 56 l 315 422 l 135 422 l 135 476 l 315 476 l 315 779 l 156 779 q 61 743 94 778 q 28 649 28 708 l 28 636 l 14 636 l 14 856 q 78 842 33 849 q 160 835 124 835 l 672 835 q 773 844 733 835 q 818 856 813 853 l 818 636 l 804 636 z "},"Ū":{"ha":1140,"x_min":51,"x_max":1097,"o":"m 440 1104 l 440 1196 l 821 1196 l 821 1104 l 440 1104 m 1097 958 l 1074 958 q 1024 940 1044 958 q 1001 893 1003 921 l 1001 351 q 894 81 1001 181 q 601 -19 788 -19 q 265 78 382 -19 q 149 350 149 176 l 149 889 q 127 939 149 919 q 75 958 106 958 l 53 958 l 53 972 l 453 972 l 453 958 l 431 958 q 379 940 400 958 q 357 892 358 921 l 357 361 q 429 128 357 214 q 628 42 501 42 q 828 123 754 42 q 903 343 901 204 l 903 892 q 865 950 900 932 q 829 958 849 958 l 807 958 l 807 972 l 1097 972 l 1097 958 z "},"ū":{"ha":978,"x_min":38,"x_max":951,"o":"m 340 965 l 340 1057 l 721 1057 l 721 965 l 340 965 m 951 819 l 932 819 q 888 803 906 819 q 868 763 869 788 l 868 303 q 776 67 868 153 q 503 -18 685 -18 q 222 65 322 -18 q 121 300 121 149 l 121 761 q 102 803 121 786 q 57 819 83 819 l 38 819 l 38 833 l 403 833 l 403 819 l 383 819 q 339 803 357 819 q 321 761 321 786 l 321 310 q 380 110 321 182 q 546 38 439 38 q 715 106 653 38 q 776 294 776 174 l 776 761 q 757 803 775 788 q 713 819 739 819 l 694 819 l 694 833 l 951 833 l 951 819 z "},"Ů":{"ha":1140,"x_min":51,"x_max":1097,"o":"m 475 1176 q 475 1201 475 1176 q 518 1260 475 1226 q 626 1293 561 1293 q 734 1261 692 1293 q 776 1178 776 1229 q 733 1094 776 1128 q 626 1061 690 1061 q 518 1094 561 1061 q 475 1176 475 1126 m 696 1170 q 696 1191 696 1170 q 676 1235 696 1213 q 626 1258 656 1258 q 576 1235 596 1258 q 556 1176 556 1213 q 576 1118 556 1140 q 621 1096 596 1096 q 661 1106 646 1096 q 696 1170 696 1128 m 1097 958 l 1074 958 q 1024 940 1044 958 q 1001 893 1003 921 l 1001 351 q 894 81 1001 181 q 601 -19 788 -19 q 265 78 382 -19 q 149 350 149 176 l 149 889 q 111 950 147 931 q 75 958 94 958 l 53 958 l 53 972 l 453 972 l 453 958 l 431 958 q 379 940 400 958 q 357 892 358 921 l 357 361 q 429 128 357 214 q 628 42 501 42 q 828 123 754 42 q 903 343 901 204 l 903 892 q 865 950 900 932 q 829 958 849 958 l 807 958 l 807 972 l 1097 972 l 1097 958 z "},"ů":{"ha":978,"x_min":38,"x_max":951,"o":"m 375 1038 q 375 1063 375 1038 q 418 1121 375 1088 q 526 1154 461 1154 q 634 1122 592 1154 q 676 1040 676 1090 q 633 956 676 989 q 526 922 590 922 q 418 955 461 922 q 375 1038 375 988 m 596 1038 q 596 1056 596 1038 q 576 1097 596 1074 q 526 1119 556 1119 q 476 1097 496 1119 q 456 1038 456 1074 q 476 979 456 1001 q 526 957 496 957 q 576 979 556 957 q 596 1038 596 1001 m 950 819 l 932 819 q 878 792 896 819 q 868 763 868 779 l 868 303 q 776 67 868 153 q 503 -18 685 -18 q 222 65 322 -18 q 121 300 121 149 l 121 761 q 101 803 119 786 q 57 819 83 819 l 38 819 l 38 833 l 403 833 l 403 819 l 383 819 q 329 792 347 819 q 321 761 321 778 l 321 310 q 380 110 321 182 q 544 38 439 38 q 715 106 653 38 q 776 294 776 174 l 776 761 q 757 803 775 788 q 713 819 739 819 l 694 819 l 694 833 l 950 833 l 950 819 z "},"Ű":{"ha":1140,"x_min":51,"x_max":1097,"o":"m 490 1064 l 478 1071 q 646 1299 515 1156 q 750 1207 717 1274 q 490 1064 628 1111 m 735 1064 l 722 1071 q 889 1299 761 1161 q 994 1207 961 1275 q 735 1064 869 1110 m 1097 958 l 1075 958 q 1024 940 1044 958 q 1001 893 1003 921 l 1001 351 q 894 81 1001 181 q 601 -19 788 -19 q 265 78 382 -19 q 149 350 149 176 l 149 889 q 127 939 149 919 q 75 958 106 958 l 53 958 l 53 972 l 453 972 l 453 958 l 431 958 q 379 940 400 958 q 357 892 358 921 l 357 361 q 429 128 357 214 q 628 42 501 42 q 828 123 754 42 q 903 343 901 204 l 903 892 q 865 950 900 932 q 829 958 849 958 l 807 958 l 807 972 l 1097 972 l 1097 958 z "},"ű":{"ha":978,"x_min":38,"x_max":951,"o":"m 390 925 l 379 932 q 546 1160 417 1017 q 650 1068 617 1135 q 390 925 528 972 m 635 925 l 622 932 q 789 1160 661 1022 q 894 1068 861 1136 q 635 925 769 971 m 951 819 l 932 819 q 888 803 906 819 q 868 763 869 788 l 868 303 q 776 67 868 153 q 503 -18 685 -18 q 222 65 322 -18 q 121 300 121 149 l 121 761 q 102 803 121 786 q 57 819 83 819 l 38 819 l 38 833 l 403 833 l 403 819 l 383 819 q 339 803 357 819 q 321 761 321 786 l 321 310 q 380 110 321 182 q 544 38 439 38 q 715 106 653 38 q 776 294 776 174 l 776 761 q 757 803 775 788 q 713 819 739 819 l 694 819 l 694 833 l 951 833 l 951 819 z "},"Ų":{"ha":1140,"x_min":51,"x_max":1097,"o":"m 1097 958 l 1074 958 q 1013 926 1033 958 q 1001 893 1001 911 l 1001 351 q 908 94 1001 192 q 650 -18 815 -4 q 561 -117 561 -40 q 618 -208 561 -186 q 660 -214 635 -214 q 722 -183 686 -214 l 731 -192 q 692 -265 724 -237 q 543 -282 635 -315 q 484 -233 506 -268 q 463 -157 463 -197 q 495 -65 463 -99 q 574 -19 528 -32 q 258 85 367 -12 q 149 350 149 182 l 149 889 q 111 950 147 931 q 75 958 94 958 l 53 958 l 53 972 l 453 972 l 453 958 l 431 958 q 379 940 400 958 q 357 892 358 921 l 357 361 q 429 128 357 214 q 628 42 501 42 q 828 123 754 42 q 903 343 901 204 l 903 892 q 865 950 900 932 q 829 958 849 958 l 807 958 l 807 972 l 1097 972 l 1097 958 z "},"ų":{"ha":978,"x_min":38,"x_max":951,"o":"m 950 819 l 932 819 q 888 803 906 819 q 868 763 869 788 l 868 303 q 791 82 868 165 q 572 -15 714 -1 q 481 -115 481 -37 q 538 -207 481 -185 q 580 -212 554 -212 q 642 -182 606 -212 l 650 -190 q 611 -264 643 -236 q 464 -281 554 -314 q 404 -232 426 -267 q 382 -156 382 -197 q 415 -64 382 -97 q 493 -18 449 -31 q 215 71 308 -12 q 121 300 121 154 l 121 761 q 102 803 121 786 q 57 819 83 819 l 38 819 l 38 833 l 403 833 l 403 819 l 383 819 q 329 792 347 819 q 321 761 321 778 l 321 310 q 380 110 321 182 q 544 38 439 38 q 749 156 692 38 q 776 294 776 214 l 776 761 q 757 803 775 788 q 713 819 739 819 l 694 819 l 694 833 l 950 833 l 950 819 z "},"Ŵ":{"ha":1349,"x_min":-47,"x_max":1389,"o":"m 726 1271 l 742 1271 l 954 1058 l 944 1047 l 733 1138 l 535 1047 l 525 1058 l 726 1271 m 1389 958 l 1376 958 q 1306 938 1342 958 q 1256 878 1271 917 l 1022 129 q 999 -12 999 53 q 999 -25 999 -19 l 985 -25 l 682 646 l 463 129 q 429 -25 431 49 l 415 -25 l 83 878 q 32 938 65 918 q -36 958 -1 958 l -47 958 l -47 972 l 376 972 l 376 958 l 364 958 q 320 940 335 958 q 306 904 306 921 q 311 871 306 888 l 482 389 l 733 994 l 746 993 l 1022 383 l 1161 872 q 1135 953 1178 933 q 1108 958 1124 958 l 1096 958 l 1096 972 l 1389 972 l 1389 958 z "},"ŵ":{"ha":1207,"x_min":-32,"x_max":1239,"o":"m 656 1133 l 671 1133 l 883 921 l 874 910 l 663 1000 l 464 910 l 454 921 l 656 1133 m 1238 819 l 1228 819 q 1167 803 1196 819 q 1124 754 1138 786 l 918 125 q 896 -1 896 58 q 896 -15 896 -8 l 883 -15 l 613 532 l 425 125 q 393 -15 393 51 l 381 -15 l 85 749 q -21 819 53 819 l -32 819 l -32 833 l 358 833 l 358 819 l 347 819 q 308 803 321 819 q 296 774 296 788 q 301 743 296 760 l 446 365 l 665 853 l 676 853 l 919 363 l 1032 743 q 1036 773 1036 758 q 1025 803 1036 788 q 988 819 1014 819 l 976 819 l 976 833 l 1238 833 l 1238 819 z "},"Ŷ":{"ha":975,"x_min":-43,"x_max":1021,"o":"m 543 1271 l 558 1271 l 772 1058 l 763 1047 l 550 1138 l 353 1047 l 343 1058 l 543 1271 m 1019 958 l 1000 958 q 896 917 944 958 q 861 878 875 900 l 588 442 l 588 101 q 614 40 588 65 q 676 14 640 14 l 693 14 l 694 0 l 272 0 l 272 14 l 290 14 q 352 39 326 14 q 379 100 378 64 l 379 443 l 114 879 q 55 935 93 913 q -24 958 17 958 l -43 958 l -43 972 l 417 972 l 417 958 l 399 958 q 351 931 368 958 q 343 901 343 915 q 350 872 343 886 l 549 511 l 756 872 q 763 901 763 886 q 753 929 763 915 q 706 958 736 958 l 689 958 l 689 972 l 1019 972 l 1019 958 z "},"ŷ":{"ha":882,"x_min":-44,"x_max":929,"o":"m 488 1132 l 503 1132 l 717 919 l 707 908 l 494 999 l 297 908 l 288 919 l 488 1132 m 929 819 l 911 819 q 842 800 875 819 q 789 751 810 781 l 542 371 l 542 88 q 565 35 543 57 q 621 14 588 14 l 636 14 l 636 0 l 247 0 l 247 14 l 264 14 q 318 35 296 14 q 342 88 340 57 l 342 371 l 96 751 q 44 801 76 782 q -26 819 11 819 l -43 819 l -43 833 l 379 833 l 379 819 l 364 819 q 326 802 338 819 q 314 773 314 785 q 319 751 314 761 l 504 432 l 692 751 q 676 810 706 788 q 646 819 664 819 l 632 819 l 632 833 l 929 833 l 929 819 z "},"Ÿ":{"ha":975,"x_min":-43,"x_max":1021,"o":"m 447 1078 q 434 1066 447 1078 q 388 1054 422 1054 q 328 1078 353 1054 q 304 1138 304 1103 q 328 1197 304 1172 q 388 1221 353 1221 q 447 1197 422 1221 q 471 1138 471 1172 q 447 1078 471 1103 m 770 1078 q 758 1066 770 1078 q 711 1054 746 1054 q 652 1078 676 1054 q 628 1138 628 1103 q 652 1197 628 1172 q 711 1221 676 1221 q 770 1197 746 1221 q 794 1138 794 1172 q 770 1078 794 1103 m 1019 958 l 1000 958 q 921 935 958 958 q 861 878 883 911 l 588 442 l 588 101 q 614 40 588 65 q 676 14 640 14 l 693 14 l 694 0 l 272 0 l 272 14 l 290 14 q 352 39 326 14 q 379 100 378 64 l 379 443 l 114 879 q 55 935 93 913 q -24 958 17 958 l -43 958 l -43 972 l 417 972 l 417 958 l 399 958 q 351 931 368 958 q 343 901 343 915 q 350 872 343 886 l 549 511 l 756 872 q 763 901 763 886 q 753 929 763 915 q 706 958 736 958 l 689 958 l 689 972 l 1019 972 l 1019 958 z "},"Ź":{"ha":918,"x_min":61,"x_max":881,"o":"m 444 1058 l 435 1068 q 635 1296 494 1171 q 729 1183 703 1261 q 444 1058 586 1093 m 82 999 q 155 982 103 990 q 228 974 207 974 q 250 974 250 974 l 693 974 q 781 979 733 974 q 840 992 828 985 l 840 979 l 325 58 l 617 58 q 772 118 706 58 q 865 279 838 178 l 879 279 l 829 0 l 63 0 l 63 13 l 572 915 l 236 915 q 134 876 172 914 q 96 774 96 838 l 96 757 l 82 757 l 82 999 z "},"ź":{"ha":842,"x_min":47,"x_max":824,"o":"m 417 919 l 407 929 q 607 1157 468 1032 q 701 1044 675 1122 q 417 919 558 954 m 49 0 l 49 11 l 506 779 l 208 779 q 115 743 149 778 q 82 647 82 708 l 82 636 l 68 636 l 68 856 q 133 842 85 849 q 219 835 181 835 l 628 835 q 713 840 668 835 q 771 851 758 846 l 771 840 l 319 54 l 560 54 q 808 256 744 57 l 822 256 l 763 0 l 49 0 z "},"Ż":{"ha":918,"x_min":61,"x_max":881,"o":"m 519 1086 q 507 1074 519 1086 q 459 1061 494 1061 q 398 1086 424 1061 q 372 1147 372 1111 q 398 1208 372 1182 q 459 1233 424 1233 q 519 1208 494 1233 q 544 1147 544 1182 q 519 1086 544 1111 m 82 999 q 155 982 103 990 q 228 974 207 974 q 250 974 250 974 l 693 974 q 797 981 761 974 q 839 992 833 989 l 839 979 l 325 58 l 617 58 q 772 118 706 58 q 865 279 838 178 l 879 279 l 829 0 l 63 0 l 63 13 l 572 915 l 236 915 q 134 876 172 914 q 96 774 96 838 l 96 757 l 82 757 l 82 999 z "},"ż":{"ha":842,"x_min":47,"x_max":824,"o":"m 492 947 q 479 935 492 947 q 431 922 467 922 q 371 947 396 922 q 346 1008 346 972 q 371 1069 346 1043 q 431 1094 396 1094 q 492 1069 467 1094 q 517 1008 517 1043 q 492 947 517 972 m 49 0 l 49 11 l 506 779 l 208 779 q 115 743 149 778 q 82 647 82 708 l 82 636 l 68 636 l 68 856 q 133 842 85 849 q 219 835 181 835 l 628 835 q 713 840 668 835 q 771 851 758 846 l 771 840 l 319 54 l 560 54 q 808 256 744 57 l 822 256 l 763 0 l 49 0 z "},"Ž":{"ha":918,"x_min":61,"x_max":881,"o":"m 468 1061 l 453 1061 l 247 1274 l 257 1285 l 461 1194 l 650 1285 l 660 1274 l 468 1061 m 82 999 q 155 982 103 990 q 228 974 207 974 q 250 974 250 974 l 693 974 q 781 979 733 974 q 839 992 828 985 l 839 979 l 325 58 l 617 58 q 772 118 706 58 q 865 279 838 178 l 879 279 l 829 0 l 63 0 l 63 13 l 572 915 l 236 915 q 134 876 172 914 q 96 774 96 838 l 96 757 l 82 757 l 82 999 z "},"ž":{"ha":842,"x_min":47,"x_max":824,"o":"m 440 922 l 425 922 l 219 1135 l 229 1146 l 433 1056 l 624 1146 l 632 1135 l 440 922 m 49 0 l 49 11 l 506 779 l 208 779 q 115 743 149 778 q 82 647 82 708 l 82 636 l 68 636 l 68 856 q 133 842 85 849 q 219 835 181 835 l 628 835 q 713 840 668 835 q 771 851 758 846 l 771 840 l 319 54 l 560 54 q 808 256 744 57 l 822 256 l 763 0 l 49 0 z "},"ƒ":{"ha":756,"x_min":28,"x_max":699,"o":"m 686 632 l 686 644 q 652 741 686 706 q 557 778 618 776 l 375 778 l 375 440 l 518 440 q 596 472 567 442 q 625 550 625 503 l 625 560 l 638 560 l 638 265 l 625 267 l 625 275 q 575 369 625 340 q 519 385 551 385 l 375 385 l 375 68 q 345 -78 375 -15 q 265 -176 315 -140 q 28 -247 164 -247 l 28 -233 q 168 42 168 -164 l 168 747 q 124 815 167 797 q 96 821 110 821 l 79 821 l 79 833 l 558 833 q 638 840 594 833 q 699 854 681 847 l 699 632 l 686 632 z "},"Ș":{"ha":775,"x_min":60,"x_max":731,"o":"m 61 128 q 101 290 61 219 l 114 290 q 114 278 114 283 q 186 110 114 181 q 382 39 258 39 q 520 84 471 40 q 569 194 569 128 q 544 267 569 235 q 458 339 518 300 l 217 500 q 82 722 82 589 q 122 872 82 811 q 369 992 203 992 q 572 978 467 992 l 651 978 l 633 782 l 621 782 q 601 847 619 815 q 419 933 551 933 q 292 894 343 933 q 242 793 242 854 q 265 730 242 758 q 339 669 289 701 l 604 497 q 729 285 729 417 q 629 59 729 138 q 364 -19 529 -19 q 186 3 265 -19 q 69 65 107 26 q 61 128 61 93 m 313 -332 q 360 -268 360 -314 q 338 -216 360 -243 q 315 -158 315 -189 q 333 -108 315 -128 q 369 -89 351 -89 q 453 -136 432 -89 q 465 -196 465 -169 q 407 -319 465 -275 q 333 -344 372 -344 q 317 -343 325 -344 l 313 -332 z "},"ș":{"ha":714,"x_min":63,"x_max":657,"o":"m 64 114 q 104 268 64 204 l 115 268 q 114 250 114 258 q 174 101 114 165 q 343 38 235 38 q 463 74 421 38 q 506 154 506 110 q 481 226 506 199 q 401 289 457 253 l 204 414 q 79 614 79 492 q 81 640 79 626 q 157 795 89 739 q 317 851 225 851 q 513 839 410 851 l 588 839 l 568 656 l 556 656 q 510 758 556 721 q 391 796 465 796 q 274 765 317 796 q 231 682 231 733 q 272 610 231 640 q 321 578 289 597 l 542 442 q 656 250 656 372 q 565 51 656 121 q 329 -18 474 -18 q 172 3 240 -18 q 72 56 104 24 q 64 114 64 81 m 290 -332 q 339 -269 339 -315 q 316 -216 339 -243 q 293 -158 293 -189 q 311 -108 293 -128 q 347 -89 329 -89 q 431 -137 410 -89 q 443 -196 443 -171 q 385 -319 443 -275 q 311 -344 350 -344 q 294 -343 303 -344 l 290 -332 z "},"Ț":{"ha":925,"x_min":18,"x_max":908,"o":"m 568 915 l 568 100 q 595 39 569 64 q 657 14 621 14 l 674 14 l 675 0 l 253 0 l 253 14 l 271 14 q 331 39 306 14 q 360 99 357 64 l 360 915 l 172 915 q 71 875 108 914 q 33 774 33 836 l 33 757 l 19 757 l 19 999 q 183 974 76 975 l 743 974 q 837 982 786 974 q 907 999 888 990 l 907 757 l 893 757 l 893 774 q 856 876 893 838 q 754 915 818 914 l 568 915 m 393 -332 q 440 -269 440 -315 q 417 -216 440 -243 q 394 -158 394 -189 q 413 -108 394 -128 q 449 -89 432 -89 q 533 -137 511 -89 q 544 -196 544 -171 q 486 -319 544 -275 q 414 -344 453 -344 q 396 -343 404 -344 l 393 -332 z "},"ț":{"ha":814,"x_min":14,"x_max":819,"o":"m 804 636 l 804 649 q 772 743 806 708 q 678 779 738 778 l 517 779 l 517 86 q 540 35 518 56 q 593 14 563 14 l 608 14 l 608 0 l 225 0 l 225 14 l 239 14 q 293 35 271 14 q 315 88 315 56 l 315 779 l 156 779 q 61 743 94 778 q 28 649 28 708 l 28 636 l 14 636 l 14 856 q 78 842 33 849 q 160 835 124 835 l 672 835 q 757 842 710 835 q 818 856 804 849 l 818 636 l 804 636 m 351 -332 q 400 -268 400 -314 q 377 -215 400 -242 q 354 -158 354 -189 q 372 -107 354 -126 q 408 -87 390 -87 q 492 -136 471 -87 q 504 -194 504 -169 q 446 -318 504 -274 q 371 -344 411 -344 q 356 -343 364 -344 l 351 -332 z "},"ˆ":{"ha":833,"x_min":175,"x_max":606,"o":"m 376 1179 l 392 1179 l 604 965 l 596 954 l 383 1044 l 185 954 l 176 965 l 376 1179 z "},"ˇ":{"ha":833,"x_min":183,"x_max":597,"o":"m 404 963 l 389 963 l 183 1176 l 193 1188 l 397 1097 l 588 1188 l 596 1176 l 404 963 z "},"˘":{"ha":746,"x_min":129,"x_max":482,"o":"m 482 1175 q 433 1062 482 1115 q 306 1008 385 1008 q 178 1062 226 1008 q 129 1175 129 1115 q 132 1203 129 1189 l 149 1203 q 207 1144 163 1168 q 306 1119 251 1119 q 404 1144 360 1119 q 464 1203 449 1168 l 479 1203 q 482 1175 482 1189 z "},"˙":{"ha":833,"x_min":325,"x_max":499,"o":"m 472 968 q 460 956 472 968 q 412 943 447 943 q 351 968 376 943 q 326 1028 326 993 q 351 1090 326 1064 q 412 1115 376 1115 q 472 1090 447 1115 q 497 1028 497 1064 q 472 968 497 993 z "},"˚":{"ha":833,"x_min":267,"x_max":569,"o":"m 267 1086 q 267 1111 267 1086 q 310 1169 267 1136 q 407 1203 353 1203 q 495 1188 461 1203 q 549 1147 529 1174 q 568 1079 568 1121 q 525 1003 568 1038 q 417 969 482 969 q 310 1003 353 969 q 267 1086 267 1036 m 488 1086 q 488 1104 488 1086 q 467 1145 488 1122 q 417 1168 447 1168 q 367 1145 388 1168 q 347 1086 347 1122 q 367 1028 347 1050 q 417 1006 388 1006 q 467 1028 447 1006 q 488 1086 488 1050 z "},"˛":{"ha":833,"x_min":331,"x_max":600,"o":"m 489 -260 q 465 -260 485 -260 q 410 -247 446 -260 q 353 -198 375 -233 q 331 -122 331 -162 q 361 -33 331 -67 q 497 24 414 24 q 511 22 504 24 l 525 19 q 429 -82 429 -4 q 486 -174 429 -151 q 528 -179 503 -179 q 590 -149 554 -179 l 599 -157 q 560 -231 592 -203 q 489 -260 529 -258 z "},"˜":{"ha":833,"x_min":167,"x_max":632,"o":"m 613 1099 l 628 1099 q 632 1068 632 1083 q 604 982 632 1026 q 494 925 567 925 q 392 956 446 925 q 344 980 371 968 q 301 993 317 992 q 269 994 286 994 q 224 976 251 994 q 185 929 197 957 l 169 929 q 168 950 168 939 q 201 1057 168 1003 q 303 1111 233 1111 q 409 1077 342 1111 q 529 1043 476 1043 q 575 1059 547 1043 q 613 1099 603 1075 z "},"˝":{"ha":833,"x_min":221,"x_max":739,"o":"m 235 1036 l 222 1043 q 389 1271 260 1128 q 494 1181 461 1247 q 235 1036 372 1085 m 478 1036 l 467 1043 q 633 1271 504 1135 q 738 1181 704 1247 q 478 1036 613 1082 z "},"̦":{"ha":0,"x_min":44,"x_max":199,"o":"m 46 -243 q 93 -181 93 -226 q 70 -127 93 -154 q 47 -69 47 -100 q 66 -19 47 -39 q 101 0 85 0 q 185 -49 164 0 q 197 -107 197 -82 q 139 -231 197 -186 q 67 -256 106 -256 q 49 -254 57 -256 l 46 -243 z "},"Δ":{"ha":906,"x_min":7,"x_max":899,"o":"m 899 0 l 7 0 l 7 14 l 446 992 l 460 992 l 899 14 l 899 0 m 725 58 l 413 782 l 93 58 l 725 58 z "},"Ω":{"ha":1182,"x_min":46,"x_max":1136,"o":"m 643 183 q 837 331 761 232 q 913 579 913 431 q 822 831 913 728 q 593 933 731 933 q 363 828 456 933 q 269 576 269 724 q 343 329 269 428 q 535 183 417 231 l 518 0 l 113 0 l 46 296 l 60 296 q 106 225 86 249 q 222 178 147 178 l 450 178 q 163 317 272 204 q 54 578 54 429 q 124 788 54 693 q 317 938 193 883 q 592 992 442 992 q 866 937 743 992 q 1058 785 989 882 q 1128 583 1128 689 q 1076 393 1128 478 q 933 250 1025 308 q 728 178 842 192 l 960 178 q 1051 202 1019 178 q 1122 296 1083 226 l 1136 296 l 1069 0 l 660 0 l 643 183 z "},"μ":{"ha":1199,"x_min":-11,"x_max":1213,"o":"m 1192 14 l 1211 14 l 1211 0 l 825 0 l 825 14 l 844 14 q 883 32 871 14 q 892 69 894 50 l 838 467 l 617 115 q 567 -26 567 36 l 554 -26 l 233 460 l 186 69 q 196 32 183 50 q 233 14 208 14 l 253 14 l 253 0 l -11 0 l -11 14 l 8 14 q 69 34 43 14 q 99 89 94 54 l 207 851 l 218 851 l 611 264 l 979 851 l 992 851 l 1103 82 q 1135 32 1110 50 q 1192 14 1160 14 z "},"π":{"ha":1043,"x_min":50,"x_max":994,"o":"m 618 14 q 672 36 650 14 q 694 89 694 58 l 694 700 q 673 753 694 731 q 621 775 651 775 l 425 775 q 373 753 394 775 q 350 701 351 732 l 350 88 q 374 35 351 57 q 426 14 396 14 l 442 14 l 442 0 l 51 0 l 51 14 l 67 14 q 120 36 97 14 q 143 89 143 58 l 143 744 q 104 810 142 788 q 67 819 88 819 l 51 819 l 51 833 l 994 833 l 994 819 l 979 819 q 926 798 947 819 q 901 746 904 776 l 901 88 q 940 24 903 44 q 979 14 958 14 l 994 14 l 994 0 l 603 0 l 603 14 l 618 14 z "},"Ẁ":{"ha":1349,"x_min":-47,"x_max":1389,"o":"m 761 1071 l 751 1061 q 467 1186 613 1094 q 561 1299 494 1265 q 761 1071 703 1172 m 1389 958 l 1376 958 q 1306 938 1342 958 q 1256 878 1271 917 l 1022 129 q 999 -12 999 53 q 999 -25 999 -19 l 985 -25 l 682 646 l 463 129 q 429 -25 431 49 l 415 -25 l 83 878 q 32 938 65 918 q -36 958 -1 958 l -47 958 l -47 972 l 376 972 l 376 958 l 364 958 q 320 940 335 958 q 306 904 306 921 q 311 871 306 888 l 482 389 l 733 994 l 746 993 l 1022 383 l 1161 872 q 1165 904 1165 888 q 1152 940 1165 921 q 1108 958 1139 958 l 1096 958 l 1096 972 l 1389 972 l 1389 958 z "},"ẁ":{"ha":1207,"x_min":-32,"x_max":1239,"o":"m 690 933 l 681 924 q 397 1049 542 956 q 490 1161 424 1126 q 690 933 632 1035 m 1238 819 l 1228 819 q 1167 803 1196 819 q 1124 754 1138 786 l 918 125 q 896 -1 896 58 q 896 -15 896 -8 l 883 -15 l 613 532 l 425 125 q 393 -15 393 51 l 381 -15 l 85 749 q -21 819 53 819 l -32 819 l -32 833 l 358 833 l 358 819 l 347 819 q 308 803 321 819 q 296 774 296 788 q 301 743 296 760 l 446 365 l 665 853 l 676 853 l 919 363 l 1032 743 q 1036 773 1036 758 q 1025 803 1036 788 q 988 819 1014 819 l 976 819 l 976 833 l 1238 833 l 1238 819 z "},"Ẃ":{"ha":1349,"x_min":-47,"x_max":1389,"o":"m 721 1058 l 711 1068 q 911 1296 771 1171 q 1004 1183 978 1261 q 721 1058 863 1093 m 1389 958 l 1376 958 q 1306 938 1342 958 q 1256 878 1271 917 l 1022 129 q 999 -12 999 53 q 999 -25 999 -19 l 985 -25 l 682 646 l 463 129 q 429 -25 431 49 l 415 -25 l 83 878 q 32 938 65 918 q -36 958 -1 958 l -47 958 l -47 972 l 376 972 l 376 958 l 364 958 q 320 940 335 958 q 306 904 306 921 q 311 872 306 888 l 482 390 l 733 994 l 746 993 l 1022 383 l 1161 872 q 1165 904 1165 888 q 1152 940 1165 921 q 1108 958 1139 958 l 1096 958 l 1096 972 l 1389 972 l 1389 958 z "},"ẃ":{"ha":1207,"x_min":-32,"x_max":1239,"o":"m 650 921 l 640 931 q 840 1158 700 1033 q 933 1046 907 1124 q 650 921 792 954 m 1238 819 l 1228 819 q 1167 803 1196 819 q 1124 754 1138 786 l 918 125 q 896 -1 896 58 q 896 -15 896 -8 l 883 -15 l 613 532 l 425 125 q 393 -15 393 51 l 381 -15 l 85 749 q 41 801 69 783 q -21 819 13 819 l -32 819 l -32 833 l 358 833 l 358 819 l 347 819 q 308 803 321 819 q 296 774 296 788 q 301 743 296 760 l 446 365 l 665 853 l 676 853 l 919 363 l 1032 743 q 1036 774 1036 758 q 1025 804 1036 789 q 988 819 1014 819 l 976 819 l 976 833 l 1238 833 l 1238 819 z "},"Ẅ":{"ha":1349,"x_min":-47,"x_max":1389,"o":"m 628 1078 q 616 1066 628 1078 q 569 1054 604 1054 q 510 1078 535 1054 q 486 1138 486 1103 q 510 1197 486 1172 q 569 1221 535 1221 q 628 1197 604 1221 q 653 1138 653 1172 q 628 1078 653 1103 m 953 1078 q 940 1066 953 1078 q 894 1054 928 1054 q 835 1078 860 1054 q 810 1138 810 1103 q 835 1197 810 1172 q 894 1221 860 1221 q 953 1197 928 1221 q 978 1138 978 1172 q 953 1078 978 1103 m 1389 958 l 1376 958 q 1306 938 1342 958 q 1256 878 1271 917 l 1022 129 q 999 -12 999 53 q 999 -25 999 -19 l 985 -25 l 682 646 l 463 129 q 429 -25 431 49 l 415 -25 l 83 878 q 32 938 65 918 q -36 958 -1 958 l -47 958 l -47 972 l 376 972 l 376 958 l 364 958 q 320 940 335 958 q 306 904 306 921 q 311 872 306 888 l 482 389 l 733 994 l 746 993 l 1022 383 l 1161 872 q 1135 953 1178 933 q 1108 958 1124 958 l 1096 958 l 1096 972 l 1389 972 l 1389 958 z "},"ẅ":{"ha":1207,"x_min":-33,"x_max":1239,"o":"m 558 941 q 545 929 558 941 q 499 917 533 917 q 440 941 464 917 q 415 999 415 965 q 440 1058 415 1033 q 499 1083 464 1083 q 558 1058 533 1083 q 582 999 582 1033 q 558 941 582 965 m 883 941 q 870 929 883 941 q 824 917 858 917 q 765 941 789 917 q 740 999 740 965 q 765 1058 740 1033 q 824 1083 789 1083 q 883 1058 858 1083 q 907 999 907 1033 q 883 941 907 965 m 1238 819 l 1228 819 q 1167 803 1196 819 q 1124 754 1138 786 l 918 125 q 896 -1 896 58 q 896 -15 896 -8 l 883 -15 l 613 532 l 425 125 q 393 -15 393 51 l 381 -15 l 85 749 q 41 801 69 783 q -21 819 13 819 l -32 819 l -32 833 l 358 833 l 358 819 l 347 819 q 308 803 321 819 q 296 774 296 788 q 301 743 296 760 l 446 365 l 665 853 l 676 853 l 919 363 l 1032 743 q 1010 815 1046 799 q 988 819 1000 819 l 976 819 l 976 833 l 1238 833 l 1238 819 z "},"Ỳ":{"ha":975,"x_min":-43,"x_max":1021,"o":"m 579 1071 l 569 1061 q 285 1186 429 1094 q 379 1299 311 1265 q 579 1071 519 1172 m 1019 958 l 1000 958 q 896 917 944 958 q 861 878 875 900 l 588 442 l 588 101 q 614 40 588 65 q 676 14 640 14 l 693 14 l 694 0 l 272 0 l 272 14 l 290 14 q 352 39 326 14 q 379 100 378 64 l 379 443 l 114 879 q 55 935 93 913 q -24 958 17 958 l -43 958 l -43 972 l 417 972 l 417 958 l 399 958 q 351 931 368 958 q 343 901 343 915 q 350 872 343 886 l 549 511 l 754 872 q 763 901 763 886 q 753 929 763 915 q 706 958 736 958 l 689 958 l 689 972 l 1019 972 l 1019 958 z "},"ỳ":{"ha":882,"x_min":-44,"x_max":929,"o":"m 524 932 l 514 922 q 229 1047 374 956 q 324 1160 256 1126 q 524 932 464 1033 m 929 819 l 911 819 q 842 800 875 819 q 789 751 810 781 l 542 371 l 542 88 q 565 35 543 57 q 621 14 588 14 l 636 14 l 636 0 l 247 0 l 247 14 l 264 14 q 331 50 308 14 q 342 88 340 67 l 342 371 l 96 751 q 44 801 76 782 q -26 819 11 819 l -43 819 l -43 833 l 379 833 l 379 819 l 364 819 q 326 802 338 819 q 314 773 314 785 q 319 751 314 761 l 504 432 l 692 751 q 696 773 696 761 q 684 802 696 785 q 646 819 672 819 l 632 819 l 632 833 l 929 833 l 929 819 z "},"–":{"ha":694,"x_min":0,"x_max":694,"o":"m 0 368 l 0 440 l 694 440 l 694 368 l 0 368 z "},"—":{"ha":1111,"x_min":0,"x_max":1111,"o":"m 0 368 l 0 440 l 1111 440 l 1111 368 l 0 368 z "},"‘":{"ha":343,"x_min":54,"x_max":283,"o":"m 283 1121 q 214 1029 214 1094 q 247 951 214 990 q 281 866 281 913 q 253 791 281 819 q 186 763 225 763 q 75 833 107 763 q 54 906 54 876 q 89 1042 54 989 q 168 1118 124 1096 q 239 1140 213 1140 q 278 1138 265 1140 l 283 1121 z "},"’":{"ha":335,"x_min":61,"x_max":281,"o":"m 63 799 q 128 886 128 824 q 96 960 128 924 q 64 1042 64 997 q 90 1113 64 1086 q 154 1140 117 1140 q 260 1074 231 1140 q 279 1004 279 1032 q 246 874 279 925 q 90 781 186 781 q 67 783 78 781 l 63 799 z "},"‚":{"ha":343,"x_min":60,"x_max":290,"o":"m 61 -156 q 129 -62 129 -129 q 97 15 129 -25 q 64 101 64 54 q 92 176 64 147 q 158 204 119 204 q 268 133 238 204 q 289 61 289 90 q 254 -76 289 -22 q 175 -151 219 -129 q 104 -174 131 -174 q 65 -172 78 -174 l 61 -156 z "},"“":{"ha":631,"x_min":54,"x_max":563,"o":"m 283 1121 q 214 1029 214 1094 q 247 951 214 990 q 281 866 281 913 q 253 791 281 819 q 186 763 225 763 q 75 833 107 763 q 54 906 54 876 q 89 1042 54 989 q 168 1118 124 1096 q 239 1140 213 1140 q 278 1138 265 1140 l 283 1121 m 563 1121 q 493 1029 493 1094 q 526 951 493 990 q 560 866 560 913 q 532 791 560 819 q 465 763 504 763 q 354 833 386 763 q 335 906 335 876 q 369 1042 335 989 q 447 1118 403 1096 q 519 1140 492 1140 q 557 1138 546 1140 l 563 1121 z "},"”":{"ha":604,"x_min":61,"x_max":550,"o":"m 332 799 q 397 886 397 824 q 366 960 397 924 q 335 1042 335 997 q 361 1113 335 1086 q 425 1140 388 1140 q 531 1074 500 1140 q 550 1004 550 1032 q 517 874 550 925 q 360 781 457 781 q 338 783 349 781 l 332 799 m 63 799 q 128 886 128 824 q 96 960 128 924 q 64 1042 64 997 q 90 1114 64 1088 q 154 1140 117 1140 q 260 1074 231 1140 q 279 1004 279 1032 q 246 874 279 925 q 90 781 186 781 q 67 783 78 781 l 63 799 z "},"„":{"ha":622,"x_min":58,"x_max":568,"o":"m 60 -164 q 129 -71 129 -137 q 95 9 129 -31 q 61 97 61 49 q 90 173 61 144 q 158 201 118 201 q 271 129 239 201 q 292 56 292 85 q 256 -83 292 -29 q 176 -160 221 -137 q 103 -183 131 -183 q 64 -182 76 -183 l 60 -164 m 335 -164 q 404 -71 404 -137 q 370 9 404 -31 q 336 97 336 49 q 365 173 336 144 q 433 201 393 201 q 546 129 514 201 q 567 56 567 85 q 531 -83 567 -29 q 451 -160 496 -137 q 378 -183 406 -183 q 339 -182 351 -183 l 335 -164 z "},"†":{"ha":683,"x_min":38,"x_max":647,"o":"m 647 608 l 619 515 l 428 560 l 349 603 l 392 526 l 433 215 l 350 -250 l 336 -250 l 251 215 l 294 526 l 336 603 l 256 560 l 67 515 l 39 608 l 67 703 l 256 658 l 336 617 l 294 692 l 249 964 l 344 992 l 436 964 l 392 692 l 350 617 l 428 658 l 619 703 l 647 608 z "},"‡":{"ha":685,"x_min":38,"x_max":649,"o":"m 619 226 l 647 132 l 619 38 l 431 83 l 351 125 l 393 50 l 439 -224 l 343 -251 l 250 -224 l 294 50 l 338 125 l 258 83 l 68 38 l 39 132 l 68 226 l 258 181 l 338 139 l 294 214 l 249 371 l 294 526 l 336 603 l 256 560 l 67 515 l 39 608 l 67 703 l 256 658 l 336 617 l 294 692 l 249 964 l 344 992 l 436 964 l 392 692 l 350 617 l 428 658 l 619 703 l 647 608 l 619 515 l 428 560 l 349 603 l 392 526 l 438 371 l 393 214 l 350 139 l 431 181 l 619 226 z "},"•":{"ha":510,"x_min":81,"x_max":432,"o":"m 281 292 q 256 288 268 288 q 232 292 243 288 q 133 339 154 317 q 85 438 111 361 q 81 462 81 450 q 85 486 81 474 q 133 585 111 564 q 232 633 154 607 q 256 638 243 638 q 281 633 268 638 q 379 585 357 607 q 426 486 401 564 q 431 462 431 475 q 426 435 431 449 q 379 338 401 360 q 281 292 357 317 z "},"…":{"ha":935,"x_min":53,"x_max":882,"o":"m 226 15 q 211 1 226 15 q 154 -14 196 -14 q 83 15 113 -14 q 54 86 54 44 q 83 158 54 128 q 154 188 113 188 q 226 158 196 188 q 256 86 256 128 q 226 15 256 44 m 542 15 q 527 1 542 15 q 471 -14 513 -14 q 399 15 429 -14 q 369 86 369 44 q 399 158 369 128 q 471 188 429 188 q 542 158 513 188 q 571 86 571 128 q 542 15 571 44 m 851 15 q 837 1 851 15 q 781 -14 822 -14 q 710 15 739 -14 q 681 86 681 44 q 710 158 681 128 q 781 188 739 188 q 851 158 822 188 q 881 86 881 128 q 851 15 881 44 z "},"‰":{"ha":1538,"x_min":40,"x_max":1483,"o":"m 476 900 q 497 815 497 857 q 406 567 497 649 q 228 501 333 501 q 75 568 124 501 q 42 692 42 617 q 135 928 42 844 q 314 992 206 992 q 408 975 367 992 q 483 940 450 958 q 554 919 524 919 q 612 926 585 919 q 658 941 639 932 q 706 965 676 950 q 742 985 735 981 l 788 965 l 269 -22 l 218 0 l 704 919 q 582 879 636 879 q 476 900 528 879 m 183 658 q 240 546 183 546 q 313 599 282 546 q 353 722 343 653 q 364 829 364 792 q 306 947 364 947 q 237 894 267 947 q 195 768 207 840 q 183 658 183 696 m 611 408 q 784 471 682 471 q 935 406 886 471 q 972 274 972 354 q 883 46 972 126 q 705 -19 811 -19 q 551 49 599 -19 q 517 171 517 96 q 611 408 517 324 m 1121 408 q 1294 471 1192 471 q 1444 406 1396 471 q 1482 274 1482 354 q 1393 46 1482 126 q 1215 -19 1321 -19 q 1061 49 1108 -19 q 1026 171 1026 96 q 1121 408 1026 324 m 1164 138 q 1219 25 1164 25 q 1292 78 1261 25 q 1333 200 1324 131 q 1343 307 1343 269 q 1286 426 1343 426 q 1183 283 1218 426 q 1164 138 1164 206 m 654 138 q 710 25 654 25 q 783 78 751 25 q 824 201 814 131 q 833 308 833 272 q 776 426 833 426 q 707 373 738 426 q 665 247 676 319 q 654 138 654 175 z "},"‹":{"ha":435,"x_min":56,"x_max":354,"o":"m 340 681 l 351 674 l 222 406 l 353 132 l 340 122 l 56 406 l 340 681 z "},"›":{"ha":435,"x_min":83,"x_max":382,"o":"m 96 122 l 83 132 l 215 406 l 85 674 l 96 681 l 381 406 l 96 122 z "},"⁄":{"ha":801,"x_min":28,"x_max":746,"o":"m 692 999 l 744 964 l 81 -25 l 28 11 l 692 999 z "},"€":{"ha":983,"x_min":-39,"x_max":943,"o":"m 629 -18 q 297 92 435 -18 q 122 376 158 201 l -39 376 l -18 436 l 114 436 q 113 533 108 485 l -39 533 l -18 592 l 121 592 q 295 881 156 769 q 632 992 435 992 q 821 971 732 992 q 942 910 910 950 l 881 726 l 867 726 q 868 763 868 740 q 858 817 868 785 q 825 871 847 849 q 771 908 803 893 q 646 933 717 933 q 442 842 522 933 q 340 592 361 750 l 835 592 l 814 533 l 333 533 l 333 488 q 335 436 333 461 l 781 436 l 761 376 l 340 376 q 445 130 363 219 q 649 40 528 40 q 836 95 771 40 q 931 264 901 150 l 943 264 l 943 68 q 812 3 901 25 q 629 -18 722 -18 z "},"™":{"ha":675,"x_min":13,"x_max":663,"o":"m 268 904 q 225 953 268 951 l 179 953 l 179 725 q 186 707 179 714 q 203 700 193 700 l 208 700 l 208 696 l 78 696 l 78 700 l 82 700 q 107 725 106 700 l 107 953 l 60 953 q 29 940 40 951 q 18 908 18 928 l 18 904 l 14 904 l 14 981 q 61 974 32 974 l 225 974 q 271 981 254 974 l 271 904 l 268 904 m 663 696 l 532 696 l 532 700 l 539 700 q 549 705 544 700 q 554 717 554 710 l 535 843 l 467 732 q 451 688 451 707 l 447 688 l 347 839 l 335 715 q 339 705 335 710 q 350 700 343 700 l 356 700 l 356 696 l 268 696 l 268 700 l 274 700 q 303 722 297 700 l 336 978 l 340 978 l 468 789 l 585 978 l 588 978 l 628 724 q 656 700 633 700 l 663 700 l 663 696 z "},"∂":{"ha":854,"x_min":57,"x_max":794,"o":"m 388 996 q 707 825 596 996 q 793 506 793 693 q 679 117 793 257 q 364 -21 568 -21 q 236 0 297 -21 q 76 161 121 40 q 57 268 57 213 q 83 403 57 331 q 179 534 108 475 q 353 607 250 593 q 388 610 369 610 q 574 551 475 610 q 530 758 568 674 q 424 874 492 843 q 314 903 365 903 q 106 810 183 903 l 93 819 q 235 963 143 919 q 388 996 304 996 m 375 494 q 282 321 308 438 q 274 236 274 271 q 317 75 274 128 q 386 39 346 39 q 514 160 463 39 q 575 463 565 281 l 575 503 q 463 525 513 525 q 375 494 413 525 z "},"∏":{"ha":1135,"x_min":58,"x_max":1078,"o":"m 701 -264 q 756 -242 733 -264 q 778 -189 778 -221 l 778 839 q 756 892 778 869 q 704 914 735 914 l 433 914 q 381 892 403 914 q 358 840 360 871 l 358 -190 q 382 -242 360 -221 q 435 -264 404 -264 l 450 -264 l 450 -278 l 60 -278 l 60 -264 l 75 -264 q 129 -242 107 -264 q 151 -189 151 -221 l 151 883 q 113 949 151 926 q 75 958 96 958 l 60 958 l 60 972 l 1078 972 l 1078 958 l 1063 958 q 1009 937 1031 958 q 985 885 988 915 l 985 -190 q 1008 -242 986 -221 q 1063 -264 1031 -264 l 1078 -264 l 1078 -278 l 686 -278 l 686 -264 l 701 -264 z "},"∑":{"ha":883,"x_min":42,"x_max":850,"o":"m 43 -251 l 43 -236 l 421 333 l 50 958 l 50 972 l 626 972 q 740 983 694 972 q 796 997 786 993 l 796 756 l 782 756 l 782 772 q 744 874 782 836 q 643 914 707 913 l 307 914 l 581 443 l 240 -68 l 600 -68 q 747 -3 685 -62 q 835 153 808 56 l 849 153 l 799 -251 l 43 -251 z "},"−":{"ha":668,"x_min":56,"x_max":614,"o":"m 56 390 l 56 469 l 614 469 l 614 390 l 56 390 z "},"√":{"ha":822,"x_min":18,"x_max":807,"o":"m 33 538 l 19 597 l 293 658 l 425 200 l 744 1171 l 807 1168 l 363 -204 l 129 557 l 33 538 z "},"∞":{"ha":857,"x_min":46,"x_max":833,"o":"m 439 350 q 345 257 403 294 q 218 219 288 219 q 98 274 149 219 q 47 411 47 329 q 99 549 47 493 q 217 606 151 606 q 440 478 339 606 q 540 569 483 532 q 663 606 597 606 q 781 549 729 606 q 832 410 832 493 q 809 314 832 357 q 745 245 786 271 q 647 219 704 219 q 533 257 590 219 q 439 350 476 294 m 126 413 q 126 389 126 413 q 156 331 126 365 q 228 297 186 297 q 315 331 271 297 q 392 413 358 364 q 225 528 304 528 q 156 494 186 528 q 126 413 126 460 m 654 297 q 739 354 710 297 q 753 420 753 381 q 724 494 753 460 q 654 528 694 528 q 488 413 576 528 q 654 297 565 297 z "},"∫":{"ha":781,"x_min":11,"x_max":765,"o":"m 301 799 q 381 1017 308 933 q 578 1101 453 1101 q 733 1060 683 1101 q 765 1001 765 1033 q 742 947 765 969 q 689 925 717 925 q 608 988 633 925 q 591 1019 600 1008 q 564 1031 582 1031 q 519 928 525 1029 q 508 717 514 828 q 497 520 501 606 q 488 348 492 435 q 479 201 483 261 q 469 36 472 67 q 396 -181 460 -106 q 193 -267 322 -267 q 40 -224 88 -267 q 11 -167 11 -197 q 31 -114 11 -137 q 86 -89 57 -89 q 164 -153 139 -89 q 183 -185 174 -174 q 207 -195 192 -196 q 231 -186 222 -194 q 253 -87 249 -165 l 301 799 z "},"≈":{"ha":668,"x_min":38,"x_max":632,"o":"m 89 571 q 104 583 89 571 q 147 604 119 596 q 191 613 174 613 q 232 610 208 613 q 301 588 256 607 q 386 549 346 568 q 453 528 432 528 q 500 538 475 528 q 538 558 525 549 q 578 590 550 567 l 631 540 q 617 526 629 538 q 592 501 604 514 q 465 447 528 447 q 425 451 453 447 q 322 492 397 456 q 225 531 246 528 q 189 533 204 533 q 103 478 158 533 q 93 469 97 472 l 39 518 q 89 571 58 546 m 196 376 q 224 376 196 376 q 338 335 251 376 q 444 292 424 294 q 482 294 465 290 q 519 311 499 297 q 578 354 546 328 l 631 304 q 617 289 629 301 q 592 265 604 276 q 465 210 528 210 q 425 215 453 210 q 322 256 397 219 q 225 294 246 292 q 189 297 204 297 q 103 242 158 297 q 93 233 97 236 l 39 282 q 89 335 58 310 q 196 376 140 376 z "},"≠":{"ha":668,"x_min":56,"x_max":614,"o":"m 614 497 l 435 497 l 356 333 l 614 333 l 614 254 l 318 254 l 236 85 l 163 118 l 228 254 l 56 254 l 56 333 l 267 333 l 346 497 l 56 497 l 56 576 l 383 576 l 457 729 l 531 696 l 472 576 l 614 576 l 614 497 z "},"≤":{"ha":685,"x_min":56,"x_max":614,"o":"m 614 815 l 614 729 l 167 517 l 614 304 l 614 218 l 56 479 l 56 554 l 614 815 m 56 51 l 56 131 l 614 131 l 614 51 l 56 51 z "},"≥":{"ha":768,"x_min":56,"x_max":614,"o":"m 56 815 l 614 554 l 614 479 l 56 218 l 56 304 l 503 517 l 56 729 l 56 815 m 56 51 l 56 131 l 614 131 l 614 51 l 56 51 z "},"◊":{"ha":718,"x_min":60,"x_max":660,"o":"m 660 486 l 351 -19 l 61 486 l 351 992 l 660 486 m 140 486 l 353 110 l 581 486 l 353 863 l 140 486 z "},"ﬁ":{"ha":1231,"x_min":47,"x_max":1185,"o":"m 668 632 l 668 646 q 635 741 668 706 q 540 778 601 776 l 340 778 l 340 440 l 500 440 q 577 472 549 442 q 606 550 606 503 l 606 560 l 621 560 l 621 265 l 606 265 l 606 275 q 577 353 606 322 q 501 385 549 383 l 340 385 l 340 88 q 363 35 342 56 q 417 14 385 14 l 433 14 l 433 0 l 47 0 l 47 14 l 64 14 q 117 35 96 14 q 140 86 139 56 l 140 747 q 118 799 140 778 q 64 819 96 819 l 47 819 l 47 833 l 538 833 q 683 854 631 833 l 683 632 l 668 632 m 790 14 l 807 14 q 863 35 840 14 q 888 88 886 57 l 888 746 q 863 798 886 776 q 807 819 840 819 l 790 819 l 790 833 l 1185 833 l 1185 819 l 1168 819 q 1112 799 1135 819 q 1088 747 1089 778 l 1088 88 q 1112 35 1089 56 q 1168 14 1135 14 l 1185 14 l 1185 0 l 790 0 l 790 14 z "},"ﬂ":{"ha":1504,"x_min":47,"x_max":1499,"o":"m 668 632 l 668 646 q 635 741 668 706 q 540 778 601 776 l 340 778 l 340 440 l 500 440 q 577 472 549 442 q 606 550 606 503 l 606 560 l 621 560 l 621 265 l 606 265 l 606 275 q 577 353 606 322 q 501 385 549 383 l 340 385 l 340 88 q 363 35 342 56 q 417 14 385 14 l 433 14 l 433 0 l 47 0 l 47 14 l 64 14 q 117 35 96 14 q 140 86 139 56 l 140 747 q 118 799 140 778 q 64 819 96 819 l 47 819 l 47 833 l 538 833 q 683 854 631 833 l 683 632 l 668 632 m 790 0 l 790 14 l 807 14 q 860 35 838 14 q 882 86 882 56 l 882 746 q 843 810 882 789 q 806 819 826 819 l 790 819 l 790 833 l 1175 833 l 1175 819 l 1160 819 q 1106 799 1128 819 q 1082 746 1083 778 l 1082 56 l 1250 56 q 1396 109 1336 57 q 1483 256 1456 161 l 1497 256 l 1443 0 l 790 0 z "}," ":{"ha":347,"x_min":0,"x_max":0,"o":""}}}
